<?xml version="1.0" standalone="no"?>
<!DOCTYPE svg PUBLIC "-//W3C//DTD SVG 1.1//EN" "http://www.w3.org/Graphics/SVG/1.1/DTD/svg11.dtd" >
<svg xmlns="http://www.w3.org/2000/svg">
<metadata>
US Army is a licensed version of FS Dillon Copyright (c) 2009 by Fontsmith Ltd for FutureBrand. All rights reserved. This font may not be altered in any way without prior permission of Fontsmith Ltd.
</metadata>
<defs>
<font id="USArmyWeb-Bold" horiz-adv-x="0" >
  <font-face 
    font-family="US Army Web Bold"
    font-weight="700"
    font-stretch="normal"
    units-per-em="1000"
    panose-1="2 11 5 6 3 2 2 2 2 4"
    ascent="800"
    descent="-200"
    x-height="487"
    cap-height="624"
    bbox="-377 -255 1246 870"
    underline-thickness="90"
    underline-position="0"
    unicode-range="U+000D-FB02"
  />
<missing-glyph horiz-adv-x="744" 
d="M128 633h488v-633h-488v633zM538 588h-332l167 -231zM343 317l-165 230v-461zM568 547l-167 -230l167 -231v461zM538 46l-165 230l-167 -230h332z" />
    <glyph glyph-name=".notdef" horiz-adv-x="744" 
d="M128 633h488v-633h-488v633zM538 588h-332l167 -231zM343 317l-165 230v-461zM568 547l-167 -230l167 -231v461zM538 46l-165 230l-167 -230h332z" />
    <glyph glyph-name=".null" 
 />
    <glyph glyph-name="nonmarkingreturn" unicode="&#xd;" horiz-adv-x="174" 
 />
    <glyph glyph-name="space" unicode=" " horiz-adv-x="174" 
 />
    <glyph glyph-name="A" unicode="A" horiz-adv-x="628" 
d="M438 129h-255l-50 -129h-123l255 624h98l255 -624h-131zM397 237l-84 223h-2l-86 -223h172z" />
    <glyph glyph-name="Aacute" unicode="&#xc1;" horiz-adv-x="628" 
d="M438 129h-255l-50 -129h-123l255 624h98l255 -624h-131zM397 237l-84 223h-2l-86 -223h172zM322 826h135l-114 -142h-102z" />
    <glyph glyph-name="Abreve" unicode="&#x102;" horiz-adv-x="628" 
d="M438 129h-255l-50 -129h-123l255 624h98l255 -624h-131zM397 237l-84 223h-2l-86 -223h172zM224.5 724q-37.5 29 -43.5 92h75q4 -18 20.5 -26.5t38.5 -8.5t38 8.5t20 26.5h75q-6 -63 -43.5 -92t-89.5 -29q-53 0 -90.5 29z" />
    <glyph glyph-name="uni01CD" unicode="&#x1cd;" horiz-adv-x="628" 
d="M438 129h-255l-50 -129h-123l255 624h98l255 -624h-131zM397 237l-84 223h-2l-86 -223h172zM293.5 673q-9.5 3 -26.5 12l-78 42v97l126 -64l125 64v-97l-78 -42q-17 -9 -26.5 -12t-20.5 -3q-12 0 -21.5 3z" />
    <glyph glyph-name="Acircumflex" unicode="&#xc2;" horiz-adv-x="628" 
d="M438 129h-255l-50 -129h-123l255 624h98l255 -624h-131zM397 237l-84 223h-2l-86 -223h172zM190 769l78 42q17 9 26.5 12t21.5 3q11 0 20.5 -3t26.5 -12l78 -42v-97l-125 64l-126 -64v97z" />
    <glyph glyph-name="Adieresis" unicode="&#xc4;" horiz-adv-x="628" 
d="M438 129h-255l-50 -129h-123l255 624h98l255 -624h-131zM397 237l-84 223h-2l-86 -223h172zM181 805h102v-121h-102v121zM347 805h102v-121h-102v121z" />
    <glyph glyph-name="Agrave" unicode="&#xc0;" horiz-adv-x="628" 
d="M438 129h-255l-50 -129h-123l255 624h98l255 -624h-131zM397 237l-84 223h-2l-86 -223h172zM135 826h135l81 -142h-102z" />
    <glyph glyph-name="Amacron" unicode="&#x100;" horiz-adv-x="628" 
d="M438 129h-255l-50 -129h-123l255 624h98l255 -624h-131zM397 237l-84 223h-2l-86 -223h172zM192 793h246v-90h-246v90z" />
    <glyph glyph-name="Aogonek" unicode="&#x104;" horiz-adv-x="628" 
d="M438 129h-255l-50 -129h-123l255 624h98l255 -624h-131zM397 237l-84 223h-2l-86 -223h172zM495 -151q-26 23 -26 61q0 39 24 73t75 65l50 -48q-35 -23 -47 -40.5t-12 -32.5q0 -12 7.5 -19t21.5 -7q18 0 41 10v-68q-34 -17 -72 -17q-36 0 -62 23z" />
    <glyph glyph-name="Aring" unicode="&#xc5;" horiz-adv-x="628" 
d="M438 129h-255l-50 -129h-123l255 624h98l255 -624h-131zM397 237l-84 223h-2l-86 -223h172zM234.5 687.5q-28.5 28.5 -28.5 71.5t28.5 71.5t79.5 28.5t80 -28.5t29 -71.5t-29 -71.5t-80 -28.5t-79.5 28.5zM338 735q8 9 8 24t-8 24t-24 9t-24 -9.5t-8 -23.5t8 -23.5
t24 -9.5t24 9z" />
    <glyph glyph-name="Atilde" unicode="&#xc3;" horiz-adv-x="628" 
d="M438 129h-255l-50 -129h-123l255 624h98l255 -624h-131zM397 237l-84 223h-2l-86 -223h172zM252 792q26 0 62 -14q30 -10 43 -10q22 0 25 28h73q-3 -63 -23 -90t-63 -27q-24 0 -62 14q-30 10 -42 10q-20 0 -24 -28h-75q6 117 86 117z" />
    <glyph glyph-name="AE" unicode="&#xc6;" horiz-adv-x="929" 
d="M593 511v-140h264v-112h-264v-147h286v-112h-412v130h-222l-76 -130h-139l379 624h470v-113h-286zM467 238v266h-3l-156 -266h159z" />
    <glyph glyph-name="AEacute" unicode="&#x1fc;" horiz-adv-x="929" 
d="M593 511v-140h264v-112h-264v-147h286v-112h-412v130h-222l-76 -130h-139l379 624h470v-113h-286zM467 238v266h-3l-156 -266h159zM590 826h135l-114 -142h-102z" />
    <glyph glyph-name="B" unicode="B" horiz-adv-x="614" 
d="M549 285q25 -37 25 -95q0 -97 -59.5 -143.5t-183.5 -46.5h-251v624h253q106 0 154.5 -40.5t48.5 -123.5q0 -38 -15 -67.5t-49 -50.5q52 -20 77 -57zM393.5 501.5q-23.5 17.5 -77.5 17.5h-111v-139h125q48 0 67.5 17.5t19.5 53.5q0 33 -23.5 50.5zM423.5 125.5
q23.5 20.5 23.5 64.5q0 42 -25.5 62t-89.5 20h-127v-167h133q62 0 85.5 20.5z" />
    <glyph glyph-name="C" unicode="C" horiz-adv-x="622" 
d="M124.5 49q-64.5 55 -64.5 162v202q0 107 64.5 162t189.5 55q248 0 248 -213v-31h-125v31q0 51 -26 74t-96 23q-74 0 -102 -25.5t-28 -74.5v-204q0 -48 29.5 -74t100.5 -26q69 0 95.5 23.5t26.5 76.5v27h125v-29q0 -109 -62.5 -161.5t-185.5 -52.5q-125 0 -189.5 55z" />
    <glyph glyph-name="Cacute" unicode="&#x106;" horiz-adv-x="622" 
d="M124.5 49q-64.5 55 -64.5 162v202q0 107 64.5 162t189.5 55q248 0 248 -213v-31h-125v31q0 51 -26 74t-96 23q-74 0 -102 -25.5t-28 -74.5v-204q0 -48 29.5 -74t100.5 -26q69 0 95.5 23.5t26.5 76.5v27h125v-29q0 -109 -62.5 -161.5t-185.5 -52.5q-125 0 -189.5 55z
M319 826h135l-114 -142h-102z" />
    <glyph glyph-name="Ccaron" unicode="&#x10c;" horiz-adv-x="622" 
d="M124.5 49q-64.5 55 -64.5 162v202q0 107 64.5 162t189.5 55q248 0 248 -213v-31h-125v31q0 51 -26 74t-96 23q-74 0 -102 -25.5t-28 -74.5v-204q0 -48 29.5 -74t100.5 -26q69 0 95.5 23.5t26.5 76.5v27h125v-29q0 -109 -62.5 -161.5t-185.5 -52.5q-125 0 -189.5 55z
M290.5 673q-9.5 3 -26.5 12l-78 42v97l126 -64l125 64v-97l-78 -42q-17 -9 -26.5 -12t-20.5 -3q-12 0 -21.5 3z" />
    <glyph glyph-name="Ccedilla" unicode="&#xc7;" horiz-adv-x="622" 
d="M124.5 49q-64.5 55 -64.5 162v202q0 107 64.5 162t189.5 55q248 0 248 -213v-31h-125v31q0 51 -26 74t-96 23q-74 0 -102 -25.5t-28 -74.5v-204q0 -48 29.5 -74t100.5 -26q69 0 95.5 23.5t26.5 76.5v27h125v-29q0 -109 -62.5 -161.5t-185.5 -52.5q-125 0 -189.5 55z
M265 -110q9 -3 26 -6t32 -3q19 0 26 4.5t7 15.5q0 9 -5.5 13.5t-19.5 4.5h-46q-20 0 -20 16q0 9 5 37l9 51h68l-7 -46h10q36 0 59 -18t23 -58q0 -41 -27.5 -63t-76.5 -22q-41 0 -77 12z" />
    <glyph glyph-name="Ccircumflex" unicode="&#x108;" horiz-adv-x="622" 
d="M124.5 49q-64.5 55 -64.5 162v202q0 107 64.5 162t189.5 55q248 0 248 -213v-31h-125v31q0 51 -26 74t-96 23q-74 0 -102 -25.5t-28 -74.5v-204q0 -48 29.5 -74t100.5 -26q69 0 95.5 23.5t26.5 76.5v27h125v-29q0 -109 -62.5 -161.5t-185.5 -52.5q-125 0 -189.5 55z
M187 769l78 42q17 9 26.5 12t21.5 3q11 0 20.5 -3t26.5 -12l78 -42v-97l-125 64l-126 -64v97z" />
    <glyph glyph-name="Cdotaccent" unicode="&#x10a;" horiz-adv-x="622" 
d="M124.5 49q-64.5 55 -64.5 162v202q0 107 64.5 162t189.5 55q248 0 248 -213v-31h-125v31q0 51 -26 74t-96 23q-74 0 -102 -25.5t-28 -74.5v-204q0 -48 29.5 -74t100.5 -26q69 0 95.5 23.5t26.5 76.5v27h125v-29q0 -109 -62.5 -161.5t-185.5 -52.5q-125 0 -189.5 55z
M259 829h106v-126h-106v126z" />
    <glyph glyph-name="D" unicode="D" horiz-adv-x="654" 
d="M604 353v-72q0 -130 -68 -205.5t-198 -75.5h-258v624h233q291 0 291 -271zM475 353q0 82 -42.5 120.5t-132.5 38.5h-95v-400h108q91 0 126.5 40.5t35.5 128.5v72z" />
    <glyph glyph-name="Eth" unicode="&#xd0;" horiz-adv-x="683" 
d="M633 353v-72q0 -130 -68 -205.5t-198 -75.5h-258v247h-89v112h89v265h233q291 0 291 -271zM504 353q0 82 -42.5 120.5t-132.5 38.5h-95v-153h94v-112h-94v-135h108q91 0 126.5 40.5t35.5 128.5v72z" />
    <glyph glyph-name="Dcaron" unicode="&#x10e;" horiz-adv-x="654" 
d="M604 353v-72q0 -130 -68 -205.5t-198 -75.5h-258v624h233q291 0 291 -271zM475 353q0 82 -42.5 120.5t-132.5 38.5h-95v-400h108q91 0 126.5 40.5t35.5 128.5v72zM287.5 673q-9.5 3 -26.5 12l-78 42v97l126 -64l125 64v-97l-78 -42q-17 -9 -26.5 -12t-20.5 -3
q-12 0 -21.5 3z" />
    <glyph glyph-name="Dcroat" unicode="&#x110;" horiz-adv-x="683" 
d="M633 353v-72q0 -130 -68 -205.5t-198 -75.5h-258v247h-89v112h89v265h233q291 0 291 -271zM504 353q0 82 -42.5 120.5t-132.5 38.5h-95v-153h94v-112h-94v-135h108q91 0 126.5 40.5t35.5 128.5v72z" />
    <glyph glyph-name="E" unicode="E" horiz-adv-x="551" 
d="M205 511v-140h274v-112h-274v-147h296v-112h-421v624h421v-113h-296z" />
    <glyph glyph-name="Eacute" unicode="&#xc9;" horiz-adv-x="551" 
d="M205 511v-140h274v-112h-274v-147h296v-112h-421v624h421v-113h-296zM287 826h135l-114 -142h-102z" />
    <glyph glyph-name="Ebreve" unicode="&#x114;" horiz-adv-x="551" 
d="M205 511v-140h274v-112h-274v-147h296v-112h-421v624h421v-113h-296zM189.5 724q-37.5 29 -43.5 92h75q4 -18 20.5 -26.5t38.5 -8.5t38 8.5t20 26.5h75q-6 -63 -43.5 -92t-89.5 -29q-53 0 -90.5 29z" />
    <glyph glyph-name="Ecaron" unicode="&#x11a;" horiz-adv-x="551" 
d="M205 511v-140h274v-112h-274v-147h296v-112h-421v624h421v-113h-296zM258.5 673q-9.5 3 -26.5 12l-78 42v97l126 -64l125 64v-97l-78 -42q-17 -9 -26.5 -12t-20.5 -3q-12 0 -21.5 3z" />
    <glyph glyph-name="Ecircumflex" unicode="&#xca;" horiz-adv-x="551" 
d="M205 511v-140h274v-112h-274v-147h296v-112h-421v624h421v-113h-296zM155 769l78 42q17 9 26.5 12t21.5 3q11 0 20.5 -3t26.5 -12l78 -42v-97l-125 64l-126 -64v97z" />
    <glyph glyph-name="Edieresis" unicode="&#xcb;" horiz-adv-x="551" 
d="M205 511v-140h274v-112h-274v-147h296v-112h-421v624h421v-113h-296zM146 805h102v-121h-102v121zM312 805h102v-121h-102v121z" />
    <glyph glyph-name="Edotaccent" unicode="&#x116;" horiz-adv-x="551" 
d="M205 511v-140h274v-112h-274v-147h296v-112h-421v624h421v-113h-296zM227 829h106v-126h-106v126z" />
    <glyph glyph-name="Egrave" unicode="&#xc8;" horiz-adv-x="551" 
d="M205 511v-140h274v-112h-274v-147h296v-112h-421v624h421v-113h-296zM100 826h135l81 -142h-102z" />
    <glyph glyph-name="Emacron" unicode="&#x112;" horiz-adv-x="551" 
d="M205 511v-140h274v-112h-274v-147h296v-112h-421v624h421v-113h-296zM157 793h246v-90h-246v90z" />
    <glyph glyph-name="Eogonek" unicode="&#x118;" horiz-adv-x="551" 
d="M205 511v-140h274v-112h-274v-147h296v-112h-421v624h421v-113h-296zM378 -151q-26 23 -26 61q0 39 24 73t75 65l50 -48q-35 -23 -47 -40.5t-12 -32.5q0 -12 7.5 -19t21.5 -7q18 0 41 10v-68q-34 -17 -72 -17q-36 0 -62 23z" />
    <glyph glyph-name="F" unicode="F" horiz-adv-x="535" 
d="M205 511v-140h264v-112h-264v-259h-125v624h415v-113h-290z" />
    <glyph glyph-name="G" unicode="G" horiz-adv-x="646" 
d="M576 325v-325h-101l-5 67q-24 -39 -67 -56t-107 -17q-236 0 -236 227v177q0 116 66 174t192 58q136 0 194 -55.5t58 -155.5v-11h-125v9q0 35 -10.5 55.5t-37.5 31t-78 10.5q-76 0 -105 -28.5t-29 -86.5v-179q0 -54 29 -82t105 -28q70 0 101 27.5t31 78.5v1h-107v108h232z
" />
    <glyph glyph-name="Gbreve" unicode="&#x11e;" horiz-adv-x="646" 
d="M576 325v-325h-101l-5 67q-24 -39 -67 -56t-107 -17q-236 0 -236 227v177q0 116 66 174t192 58q136 0 194 -55.5t58 -155.5v-11h-125v9q0 35 -10.5 55.5t-37.5 31t-78 10.5q-76 0 -105 -28.5t-29 -86.5v-179q0 -54 29 -82t105 -28q70 0 101 27.5t31 78.5v1h-107v108h232z
M229.5 724q-37.5 29 -43.5 92h75q4 -18 20.5 -26.5t38.5 -8.5t38 8.5t20 26.5h75q-6 -63 -43.5 -92t-89.5 -29q-53 0 -90.5 29z" />
    <glyph glyph-name="Gcircumflex" unicode="&#x11c;" horiz-adv-x="646" 
d="M576 325v-325h-101l-5 67q-24 -39 -67 -56t-107 -17q-236 0 -236 227v177q0 116 66 174t192 58q136 0 194 -55.5t58 -155.5v-11h-125v9q0 35 -10.5 55.5t-37.5 31t-78 10.5q-76 0 -105 -28.5t-29 -86.5v-179q0 -54 29 -82t105 -28q70 0 101 27.5t31 78.5v1h-107v108h232z
M195 769l78 42q17 9 26.5 12t21.5 3q11 0 20.5 -3t26.5 -12l78 -42v-97l-125 64l-126 -64v97z" />
    <glyph glyph-name="Gcommaaccent" unicode="&#x122;" horiz-adv-x="646" 
d="M576 325v-325h-101l-5 67q-24 -39 -67 -56t-107 -17q-236 0 -236 227v177q0 116 66 174t192 58q136 0 194 -55.5t58 -155.5v-11h-125v9q0 35 -10.5 55.5t-37.5 31t-78 10.5q-76 0 -105 -28.5t-29 -86.5v-179q0 -54 29 -82t105 -28q70 0 101 27.5t31 78.5v1h-107v108h232z
M270 -53h96v-70l-37 -132h-59v202z" />
    <glyph glyph-name="Gdotaccent" unicode="&#x120;" horiz-adv-x="646" 
d="M576 325v-325h-101l-5 67q-24 -39 -67 -56t-107 -17q-236 0 -236 227v177q0 116 66 174t192 58q136 0 194 -55.5t58 -155.5v-11h-125v9q0 35 -10.5 55.5t-37.5 31t-78 10.5q-76 0 -105 -28.5t-29 -86.5v-179q0 -54 29 -82t105 -28q70 0 101 27.5t31 78.5v1h-107v108h232z
M267 829h106v-126h-106v126z" />
    <glyph glyph-name="H" unicode="H" horiz-adv-x="684" 
d="M604 624v-624h-125v259h-274v-259h-125v624h125v-253h274v253h125z" />
    <glyph glyph-name="Hbar" unicode="&#x126;" horiz-adv-x="704" 
d="M674 438h-60v-438h-125v259h-274v-259h-125v438h-60v104h60v82h125v-82h274v82h125v-82h60v-104zM489 438h-274v-67h274v67z" />
    <glyph glyph-name="Hcircumflex" unicode="&#x124;" horiz-adv-x="684" 
d="M604 624v-624h-125v259h-274v-259h-125v624h125v-253h274v253h125zM217 769l78 42q17 9 26.5 12t21.5 3q11 0 20.5 -3t26.5 -12l78 -42v-97l-125 64l-126 -64v97z" />
    <glyph glyph-name="I" unicode="I" horiz-adv-x="285" 
d="M80 624h125v-624h-125v624z" />
    <glyph glyph-name="IJ" unicode="&#x132;" horiz-adv-x="685" 
d="M80 624h125v-624h-125v624zM315 -3v115q26 -3 50 -3q52 0 79 13t36.5 40t9.5 77v385h125v-390q0 -122 -52.5 -181t-175.5 -59q-50 0 -72 3z" />
    <glyph glyph-name="Iacute" unicode="&#xcd;" horiz-adv-x="285" 
d="M80 624h125v-624h-125v624zM150 826h135l-114 -142h-102z" />
    <glyph glyph-name="Ibreve" unicode="&#x12c;" horiz-adv-x="285" 
d="M80 624h125v-624h-125v624zM52.5 724q-37.5 29 -43.5 92h75q4 -18 20.5 -26.5t38.5 -8.5t38 8.5t20 26.5h75q-6 -63 -43.5 -92t-89.5 -29q-53 0 -90.5 29z" />
    <glyph glyph-name="Icircumflex" unicode="&#xce;" horiz-adv-x="285" 
d="M80 624h125v-624h-125v624zM18 769l78 42q17 9 26.5 12t21.5 3q11 0 20.5 -3t26.5 -12l78 -42v-97l-125 64l-126 -64v97z" />
    <glyph glyph-name="Idieresis" unicode="&#xcf;" horiz-adv-x="285" 
d="M80 624h125v-624h-125v624zM9 805h102v-121h-102v121zM175 805h102v-121h-102v121z" />
    <glyph glyph-name="Idotaccent" unicode="&#x130;" horiz-adv-x="285" 
d="M80 624h125v-624h-125v624zM90 829h106v-126h-106v126z" />
    <glyph glyph-name="Igrave" unicode="&#xcc;" horiz-adv-x="285" 
d="M80 624h125v-624h-125v624zM-37 826h135l81 -142h-102z" />
    <glyph glyph-name="Imacron" unicode="&#x12a;" horiz-adv-x="285" 
d="M80 624h125v-624h-125v624zM20 793h246v-90h-246v90z" />
    <glyph glyph-name="Iogonek" unicode="&#x12e;" horiz-adv-x="285" 
d="M80 624h125v-624h-125v624zM82 -151q-26 23 -26 61q0 39 24 73t75 65l50 -48q-35 -23 -47 -40.5t-12 -32.5q0 -12 7.5 -19t21.5 -7q18 0 41 10v-68q-34 -17 -72 -17q-36 0 -62 23z" />
    <glyph glyph-name="Itilde" unicode="&#x128;" horiz-adv-x="285" 
d="M80 624h125v-624h-125v624zM80 792q26 0 62 -14q30 -10 43 -10q22 0 25 28h73q-3 -63 -23 -90t-63 -27q-24 0 -62 14q-30 10 -42 10q-20 0 -24 -28h-75q6 117 86 117z" />
    <glyph glyph-name="J" unicode="J" horiz-adv-x="390" 
d="M20 -3v115q26 -3 50 -3q52 0 79 13t36.5 40t9.5 77v385h125v-390q0 -122 -52.5 -181t-175.5 -59q-50 0 -72 3z" />
    <glyph glyph-name="uni00A40301" horiz-adv-x="390" 
d="M20 -3v115q26 -3 50 -3q52 0 79 13t36.5 40t9.5 77v385h125v-390q0 -122 -52.5 -181t-175.5 -59q-50 0 -72 3zM264 826h135l-114 -142h-102z" />
    <glyph glyph-name="Jcircumflex" unicode="&#x134;" horiz-adv-x="390" 
d="M20 -3v115q26 -3 50 -3q52 0 79 13t36.5 40t9.5 77v385h125v-390q0 -122 -52.5 -181t-175.5 -59q-50 0 -72 3zM132 769l78 42q17 9 26.5 12t21.5 3q11 0 20.5 -3t26.5 -12l78 -42v-97l-125 64l-126 -64v97z" />
    <glyph glyph-name="K" unicode="K" horiz-adv-x="616" 
d="M256 258l-51 -55v-203h-125v624h125v-269l248 269h142l-258 -279l269 -345h-148z" />
    <glyph glyph-name="Kcommaaccent" unicode="&#x136;" horiz-adv-x="616" 
d="M256 258l-51 -55v-203h-125v624h125v-269l248 269h142l-258 -279l269 -345h-148zM261 -53h96v-70l-37 -132h-59v202z" />
    <glyph glyph-name="L" unicode="L" horiz-adv-x="511" 
d="M491 112v-112h-411v624h125v-512h286z" />
    <glyph glyph-name="Lacute" unicode="&#x139;" horiz-adv-x="511" 
d="M491 112v-112h-411v624h125v-512h286zM150 826h135l-114 -142h-102z" />
    <glyph glyph-name="Lcaron" unicode="&#x13d;" horiz-adv-x="511" 
d="M491 112v-112h-411v624h125v-512h286zM328 624h96v-70l-37 -132h-59v202z" />
    <glyph glyph-name="Lcommaaccent" unicode="&#x13b;" horiz-adv-x="511" 
d="M491 112v-112h-411v624h125v-512h286zM250 -53h96v-70l-37 -132h-59v202z" />
    <glyph glyph-name="Ldot" unicode="&#x13f;" horiz-adv-x="533" 
d="M491 112v-112h-411v624h125v-512h286zM356 434h106v-126h-106v126z" />
    <glyph glyph-name="Lslash" unicode="&#x141;" horiz-adv-x="531" 
d="M511 112v-112h-411v255l-93 -31v109l93 31v260h125v-217l93 31v-109l-93 -31v-186h286z" />
    <glyph glyph-name="M" unicode="M" horiz-adv-x="808" 
d="M728 624v-624h-120v393l-194 -340h-14l-201 345v-398h-119v624h115l218 -365l206 365h109z" />
    <glyph glyph-name="N" unicode="N" horiz-adv-x="709" 
d="M629 624v-624h-112l-319 414v-414h-118v624h112l319 -421v421h118z" />
    <glyph glyph-name="Nacute" unicode="&#x143;" horiz-adv-x="709" 
d="M629 624v-624h-112l-319 414v-414h-118v624h112l319 -421v421h118zM363 826h135l-114 -142h-102z" />
    <glyph glyph-name="Ncaron" unicode="&#x147;" horiz-adv-x="709" 
d="M629 624v-624h-112l-319 414v-414h-118v624h112l319 -421v421h118zM334.5 673q-9.5 3 -26.5 12l-78 42v97l126 -64l125 64v-97l-78 -42q-17 -9 -26.5 -12t-20.5 -3q-12 0 -21.5 3z" />
    <glyph glyph-name="Ncommaaccent" unicode="&#x145;" horiz-adv-x="709" 
d="M629 624v-624h-112l-319 414v-414h-118v624h112l319 -421v421h118zM304 -53h96v-70l-37 -132h-59v202z" />
    <glyph glyph-name="Eng" unicode="&#x14a;" horiz-adv-x="709" 
d="M629 624v-565q0 -79 -22.5 -129t-77.5 -75.5t-152 -25.5q-37 0 -52 2v111q20 -2 61 -2q53 0 85 19.5t32 50.5v9l-305 394v-413h-118v624h112l319 -421v421h118z" />
    <glyph glyph-name="Ntilde" unicode="&#xd1;" horiz-adv-x="709" 
d="M629 624v-624h-112l-319 414v-414h-118v624h112l319 -421v421h118zM293 792q26 0 62 -14q30 -10 43 -10q22 0 25 28h73q-3 -63 -23 -90t-63 -27q-24 0 -62 14q-30 10 -42 10q-20 0 -24 -28h-75q6 117 86 117z" />
    <glyph glyph-name="O" unicode="O" horiz-adv-x="644" 
d="M128 52.5q-68 58.5 -68 168.5v182q0 110 68 168.5t194 58.5t194 -58.5t68 -168.5v-182q0 -110 -68 -168.5t-194 -58.5t-194 58.5zM426.5 136.5q32.5 26.5 32.5 84.5v182q0 58 -32.5 84.5t-104.5 26.5t-104.5 -26.5t-32.5 -84.5v-182q0 -58 32.5 -84.5t104.5 -26.5
t104.5 26.5z" />
    <glyph glyph-name="Oacute" unicode="&#xd3;" horiz-adv-x="644" 
d="M128 52.5q-68 58.5 -68 168.5v182q0 110 68 168.5t194 58.5t194 -58.5t68 -168.5v-182q0 -110 -68 -168.5t-194 -58.5t-194 58.5zM426.5 136.5q32.5 26.5 32.5 84.5v182q0 58 -32.5 84.5t-104.5 26.5t-104.5 -26.5t-32.5 -84.5v-182q0 -58 32.5 -84.5t104.5 -26.5
t104.5 26.5zM329 826h135l-114 -142h-102z" />
    <glyph glyph-name="Obreve" unicode="&#x14e;" horiz-adv-x="644" 
d="M128 52.5q-68 58.5 -68 168.5v182q0 110 68 168.5t194 58.5t194 -58.5t68 -168.5v-182q0 -110 -68 -168.5t-194 -58.5t-194 58.5zM426.5 136.5q32.5 26.5 32.5 84.5v182q0 58 -32.5 84.5t-104.5 26.5t-104.5 -26.5t-32.5 -84.5v-182q0 -58 32.5 -84.5t104.5 -26.5
t104.5 26.5zM231.5 724q-37.5 29 -43.5 92h75q4 -18 20.5 -26.5t38.5 -8.5t38 8.5t20 26.5h75q-6 -63 -43.5 -92t-89.5 -29q-53 0 -90.5 29z" />
    <glyph glyph-name="Ocircumflex" unicode="&#xd4;" horiz-adv-x="644" 
d="M128 52.5q-68 58.5 -68 168.5v182q0 110 68 168.5t194 58.5t194 -58.5t68 -168.5v-182q0 -110 -68 -168.5t-194 -58.5t-194 58.5zM426.5 136.5q32.5 26.5 32.5 84.5v182q0 58 -32.5 84.5t-104.5 26.5t-104.5 -26.5t-32.5 -84.5v-182q0 -58 32.5 -84.5t104.5 -26.5
t104.5 26.5zM197 769l78 42q17 9 26.5 12t21.5 3q11 0 20.5 -3t26.5 -12l78 -42v-97l-125 64l-126 -64v97z" />
    <glyph glyph-name="Odieresis" unicode="&#xd6;" horiz-adv-x="644" 
d="M128 52.5q-68 58.5 -68 168.5v182q0 110 68 168.5t194 58.5t194 -58.5t68 -168.5v-182q0 -110 -68 -168.5t-194 -58.5t-194 58.5zM426.5 136.5q32.5 26.5 32.5 84.5v182q0 58 -32.5 84.5t-104.5 26.5t-104.5 -26.5t-32.5 -84.5v-182q0 -58 32.5 -84.5t104.5 -26.5
t104.5 26.5zM188 805h102v-121h-102v121zM354 805h102v-121h-102v121z" />
    <glyph glyph-name="Ograve" unicode="&#xd2;" horiz-adv-x="644" 
d="M128 52.5q-68 58.5 -68 168.5v182q0 110 68 168.5t194 58.5t194 -58.5t68 -168.5v-182q0 -110 -68 -168.5t-194 -58.5t-194 58.5zM426.5 136.5q32.5 26.5 32.5 84.5v182q0 58 -32.5 84.5t-104.5 26.5t-104.5 -26.5t-32.5 -84.5v-182q0 -58 32.5 -84.5t104.5 -26.5
t104.5 26.5zM142 826h135l81 -142h-102z" />
    <glyph glyph-name="Ohungarumlaut" unicode="&#x150;" horiz-adv-x="644" 
d="M128 52.5q-68 58.5 -68 168.5v182q0 110 68 168.5t194 58.5t194 -58.5t68 -168.5v-182q0 -110 -68 -168.5t-194 -58.5t-194 58.5zM426.5 136.5q32.5 26.5 32.5 84.5v182q0 58 -32.5 84.5t-104.5 26.5t-104.5 -26.5t-32.5 -84.5v-182q0 -58 32.5 -84.5t104.5 -26.5
t104.5 26.5zM248 826h127l-103 -142h-90zM422 826h130l-103 -142h-92z" />
    <glyph glyph-name="Omacron" unicode="&#x14c;" horiz-adv-x="644" 
d="M128 52.5q-68 58.5 -68 168.5v182q0 110 68 168.5t194 58.5t194 -58.5t68 -168.5v-182q0 -110 -68 -168.5t-194 -58.5t-194 58.5zM426.5 136.5q32.5 26.5 32.5 84.5v182q0 58 -32.5 84.5t-104.5 26.5t-104.5 -26.5t-32.5 -84.5v-182q0 -58 32.5 -84.5t104.5 -26.5
t104.5 26.5zM199 793h246v-90h-246v90z" />
    <glyph glyph-name="Oslash" unicode="&#xd8;" horiz-adv-x="644" 
d="M554 526q30 -51 30 -123v-182q0 -110 -68 -168.5t-194 -58.5q-36 0 -63 4l-23 -66h-91l31 90q-57 26 -86.5 76.5t-29.5 122.5v182q0 110 68 168.5t194 58.5q36 0 63 -4l22 65h91l-31 -88q57 -26 87 -77zM216 138l130 375q-8 1 -24 1q-72 0 -104.5 -26.5t-32.5 -84.5v-182
q0 -56 31 -83zM459 403q0 57 -31 84l-130 -376q7 -1 24 -1q72 0 104.5 26.5t32.5 84.5v182z" />
    <glyph glyph-name="Oslashacute" unicode="&#x1fe;" horiz-adv-x="644" 
d="M554 526q30 -51 30 -123v-182q0 -110 -68 -168.5t-194 -58.5q-36 0 -63 4l-23 -66h-91l31 90q-57 26 -86.5 76.5t-29.5 122.5v182q0 110 68 168.5t194 58.5q36 0 63 -4l22 65h91l-31 -88q57 -26 87 -77zM216 138l130 375q-8 1 -24 1q-72 0 -104.5 -26.5t-32.5 -84.5v-182
q0 -56 31 -83zM459 403q0 57 -31 84l-130 -376q7 -1 24 -1q72 0 104.5 26.5t32.5 84.5v182zM337 826h135l-114 -142h-102z" />
    <glyph glyph-name="Otilde" unicode="&#xd5;" horiz-adv-x="644" 
d="M128 52.5q-68 58.5 -68 168.5v182q0 110 68 168.5t194 58.5t194 -58.5t68 -168.5v-182q0 -110 -68 -168.5t-194 -58.5t-194 58.5zM426.5 136.5q32.5 26.5 32.5 84.5v182q0 58 -32.5 84.5t-104.5 26.5t-104.5 -26.5t-32.5 -84.5v-182q0 -58 32.5 -84.5t104.5 -26.5
t104.5 26.5zM259 792q26 0 62 -14q30 -10 43 -10q22 0 25 28h73q-3 -63 -23 -90t-63 -27q-24 0 -62 14q-30 10 -42 10q-20 0 -24 -28h-75q6 117 86 117z" />
    <glyph glyph-name="OE" unicode="&#x152;" horiz-adv-x="950" 
d="M604 511v-140h274v-112h-274v-147h296v-112h-421v37q-69 -43 -157 -43q-125 0 -193.5 56.5t-68.5 160.5v202q0 105 70 161t192 56q89 0 157 -44v38h421v-113h-296zM458 414q0 47 -29.5 73.5t-106.5 26.5q-78 0 -107.5 -27t-29.5 -73v-204q0 -49 29.5 -74.5t107.5 -25.5
t107 26t29 74v204z" />
    <glyph glyph-name="P" unicode="P" horiz-adv-x="588" 
d="M507.5 575q60.5 -49 60.5 -156q0 -74 -24 -118t-79 -64.5t-149 -20.5h-111v-216h-125v624h226q141 0 201.5 -49zM393 336.5q28 9.5 38.5 29.5t10.5 55q0 34 -12 53.5t-42 28.5t-84 9h-99v-185h107q53 0 81 9.5z" />
    <glyph glyph-name="Thorn" unicode="&#xde;" horiz-adv-x="621" 
d="M495.5 470.5q73.5 -45.5 73.5 -159.5q0 -86 -35.5 -130t-94 -58.5t-144.5 -14.5h-90v-108h-125v624h125v-108h80q137 0 210.5 -45.5zM405.5 237.5q36.5 18.5 36.5 75.5q0 40 -22.5 60t-55.5 25.5t-81 5.5h-78v-185h86q78 0 114.5 18.5z" />
    <glyph glyph-name="Q" unicode="Q" horiz-adv-x="644" 
d="M533 69q-51 -57 -147 -71q7 -30 34.5 -47t73.5 -17q14 0 33 3t32 8v-105q-27 -11 -75 -11q-95 0 -148.5 43t-64.5 125q-102 11 -156.5 68.5t-54.5 155.5v182q0 110 68 168.5t194 58.5t194 -58.5t68 -168.5v-182q0 -95 -51 -152zM459 403q0 58 -32.5 84.5t-104.5 26.5
t-104.5 -26.5t-32.5 -84.5v-182q0 -58 32.5 -84.5t104.5 -26.5t104.5 26.5t32.5 84.5v182z" />
    <glyph glyph-name="R" unicode="R" horiz-adv-x="621" 
d="M536 294q-33 -45 -109 -65l142 -229h-144l-129 215h-91v-215h-125v624h216q144 0 208.5 -50t64.5 -156q0 -79 -33 -124zM205 326h100q55 0 84 9.5t41 29.5t12 56q0 49 -30.5 70t-111.5 21h-95v-186z" />
    <glyph glyph-name="Racute" unicode="&#x154;" horiz-adv-x="621" 
d="M536 294q-33 -45 -109 -65l142 -229h-144l-129 215h-91v-215h-125v624h216q144 0 208.5 -50t64.5 -156q0 -79 -33 -124zM205 326h100q55 0 84 9.5t41 29.5t12 56q0 49 -30.5 70t-111.5 21h-95v-186zM312 826h135l-114 -142h-102z" />
    <glyph glyph-name="Rcaron" unicode="&#x158;" horiz-adv-x="621" 
d="M536 294q-33 -45 -109 -65l142 -229h-144l-129 215h-91v-215h-125v624h216q144 0 208.5 -50t64.5 -156q0 -79 -33 -124zM205 326h100q55 0 84 9.5t41 29.5t12 56q0 49 -30.5 70t-111.5 21h-95v-186zM283.5 673q-9.5 3 -26.5 12l-78 42v97l126 -64l125 64v-97l-78 -42
q-17 -9 -26.5 -12t-20.5 -3q-12 0 -21.5 3z" />
    <glyph glyph-name="Rcommaaccent" unicode="&#x156;" horiz-adv-x="621" 
d="M536 294q-33 -45 -109 -65l142 -229h-144l-129 215h-91v-215h-125v624h216q144 0 208.5 -50t64.5 -156q0 -79 -33 -124zM205 326h100q55 0 84 9.5t41 29.5t12 56q0 49 -30.5 70t-111.5 21h-95v-186zM260 -53h96v-70l-37 -132h-59v202z" />
    <glyph glyph-name="S" unicode="S" horiz-adv-x="591" 
d="M123.5 43.5q-62.5 49.5 -62.5 138.5v23h126v-16q0 -85 115 -85q104 0 104 62q0 22 -9.5 35.5t-33 24.5t-69.5 24l-41 12q-74 21 -115 44.5t-59 57t-18 83.5q0 54 28.5 95.5t81 64.5t123.5 23q108 0 166.5 -52t58.5 -149v-9h-126v16q0 41 -26 62.5t-72 21.5
q-51 0 -78 -17.5t-27 -48.5q0 -21 10.5 -34t36 -23.5t81.5 -27.5l50 -15q86 -26 127 -67.5t41 -103.5q0 -88 -63.5 -138.5t-173.5 -50.5q-113 0 -175.5 49.5z" />
    <glyph glyph-name="Sacute" unicode="&#x15a;" horiz-adv-x="591" 
d="M123.5 43.5q-62.5 49.5 -62.5 138.5v23h126v-16q0 -85 115 -85q104 0 104 62q0 22 -9.5 35.5t-33 24.5t-69.5 24l-41 12q-74 21 -115 44.5t-59 57t-18 83.5q0 54 28.5 95.5t81 64.5t123.5 23q108 0 166.5 -52t58.5 -149v-9h-126v16q0 41 -26 62.5t-72 21.5
q-51 0 -78 -17.5t-27 -48.5q0 -21 10.5 -34t36 -23.5t81.5 -27.5l50 -15q86 -26 127 -67.5t41 -103.5q0 -88 -63.5 -138.5t-173.5 -50.5q-113 0 -175.5 49.5zM300 826h135l-114 -142h-102z" />
    <glyph glyph-name="Scaron" unicode="&#x160;" horiz-adv-x="591" 
d="M123.5 43.5q-62.5 49.5 -62.5 138.5v23h126v-16q0 -85 115 -85q104 0 104 62q0 22 -9.5 35.5t-33 24.5t-69.5 24l-41 12q-74 21 -115 44.5t-59 57t-18 83.5q0 54 28.5 95.5t81 64.5t123.5 23q108 0 166.5 -52t58.5 -149v-9h-126v16q0 41 -26 62.5t-72 21.5
q-51 0 -78 -17.5t-27 -48.5q0 -21 10.5 -34t36 -23.5t81.5 -27.5l50 -15q86 -26 127 -67.5t41 -103.5q0 -88 -63.5 -138.5t-173.5 -50.5q-113 0 -175.5 49.5zM271.5 673q-9.5 3 -26.5 12l-78 42v97l126 -64l125 64v-97l-78 -42q-17 -9 -26.5 -12t-20.5 -3q-12 0 -21.5 3z
" />
    <glyph glyph-name="Scedilla" unicode="&#x15e;" horiz-adv-x="591" 
d="M123.5 43.5q-62.5 49.5 -62.5 138.5v23h126v-16q0 -85 115 -85q104 0 104 62q0 22 -9.5 35.5t-33 24.5t-69.5 24l-41 12q-74 21 -115 44.5t-59 57t-18 83.5q0 54 28.5 95.5t81 64.5t123.5 23q108 0 166.5 -52t58.5 -149v-9h-126v16q0 41 -26 62.5t-72 21.5
q-51 0 -78 -17.5t-27 -48.5q0 -21 10.5 -34t36 -23.5t81.5 -27.5l50 -15q86 -26 127 -67.5t41 -103.5q0 -88 -63.5 -138.5t-173.5 -50.5q-113 0 -175.5 49.5zM249 -110q9 -3 26 -6t32 -3q19 0 26 4.5t7 15.5q0 9 -5.5 13.5t-19.5 4.5h-46q-20 0 -20 16q0 9 5 37l9 51h68
l-7 -46h10q36 0 59 -18t23 -58q0 -41 -27.5 -63t-76.5 -22q-41 0 -77 12z" />
    <glyph glyph-name="Scircumflex" unicode="&#x15c;" horiz-adv-x="591" 
d="M123.5 43.5q-62.5 49.5 -62.5 138.5v23h126v-16q0 -85 115 -85q104 0 104 62q0 22 -9.5 35.5t-33 24.5t-69.5 24l-41 12q-74 21 -115 44.5t-59 57t-18 83.5q0 54 28.5 95.5t81 64.5t123.5 23q108 0 166.5 -52t58.5 -149v-9h-126v16q0 41 -26 62.5t-72 21.5
q-51 0 -78 -17.5t-27 -48.5q0 -21 10.5 -34t36 -23.5t81.5 -27.5l50 -15q86 -26 127 -67.5t41 -103.5q0 -88 -63.5 -138.5t-173.5 -50.5q-113 0 -175.5 49.5zM168 769l78 42q17 9 26.5 12t21.5 3q11 0 20.5 -3t26.5 -12l78 -42v-97l-125 64l-126 -64v97z" />
    <glyph glyph-name="Scommaaccent" unicode="&#x218;" horiz-adv-x="591" 
d="M123.5 43.5q-62.5 49.5 -62.5 138.5v23h126v-16q0 -85 115 -85q104 0 104 62q0 22 -9.5 35.5t-33 24.5t-69.5 24l-41 12q-74 21 -115 44.5t-59 57t-18 83.5q0 54 28.5 95.5t81 64.5t123.5 23q108 0 166.5 -52t58.5 -149v-9h-126v16q0 41 -26 62.5t-72 21.5
q-51 0 -78 -17.5t-27 -48.5q0 -21 10.5 -34t36 -23.5t81.5 -27.5l50 -15q86 -26 127 -67.5t41 -103.5q0 -88 -63.5 -138.5t-173.5 -50.5q-113 0 -175.5 49.5zM242 -53h96v-70l-37 -132h-59v202z" />
    <glyph glyph-name="T" unicode="T" horiz-adv-x="535" 
d="M525 511h-195v-511h-125v511h-195v113h515v-113z" />
    <glyph glyph-name="Tbar" unicode="&#x166;" horiz-adv-x="535" 
d="M330 511v-155h152v-107h-152v-249h-125v249h-152v107h152v155h-195v113h515v-113h-195z" />
    <glyph glyph-name="Tcaron" unicode="&#x164;" horiz-adv-x="535" 
d="M525 511h-195v-511h-125v511h-195v113h515v-113zM246.5 673q-9.5 3 -26.5 12l-78 42v97l126 -64l125 64v-97l-78 -42q-17 -9 -26.5 -12t-20.5 -3q-12 0 -21.5 3z" />
    <glyph glyph-name="uni0162" unicode="&#x162;" horiz-adv-x="535" 
d="M525 511h-195v-511h-125v511h-195v113h515v-113zM217 -53h96v-70l-37 -132h-59v202z" />
    <glyph glyph-name="uni021A" unicode="&#x21a;" horiz-adv-x="535" 
d="M525 511h-195v-511h-125v511h-195v113h515v-113zM217 -53h96v-70l-37 -132h-59v202z" />
    <glyph glyph-name="U" unicode="U" horiz-adv-x="657" 
d="M139.5 49q-64.5 55 -64.5 176v399h125v-395q0 -58 27.5 -87.5t101.5 -29.5q73 0 100.5 30.5t27.5 86.5v395h125v-399q0 -122 -64 -176.5t-189 -54.5t-189.5 55z" />
    <glyph glyph-name="Uacute" unicode="&#xda;" horiz-adv-x="657" 
d="M139.5 49q-64.5 55 -64.5 176v399h125v-395q0 -58 27.5 -87.5t101.5 -29.5q73 0 100.5 30.5t27.5 86.5v395h125v-399q0 -122 -64 -176.5t-189 -54.5t-189.5 55zM336 826h135l-114 -142h-102z" />
    <glyph glyph-name="Ubreve" unicode="&#x16c;" horiz-adv-x="657" 
d="M139.5 49q-64.5 55 -64.5 176v399h125v-395q0 -58 27.5 -87.5t101.5 -29.5q73 0 100.5 30.5t27.5 86.5v395h125v-399q0 -122 -64 -176.5t-189 -54.5t-189.5 55zM238.5 724q-37.5 29 -43.5 92h75q4 -18 20.5 -26.5t38.5 -8.5t38 8.5t20 26.5h75q-6 -63 -43.5 -92
t-89.5 -29q-53 0 -90.5 29z" />
    <glyph glyph-name="Ucircumflex" unicode="&#xdb;" horiz-adv-x="657" 
d="M139.5 49q-64.5 55 -64.5 176v399h125v-395q0 -58 27.5 -87.5t101.5 -29.5q73 0 100.5 30.5t27.5 86.5v395h125v-399q0 -122 -64 -176.5t-189 -54.5t-189.5 55zM204 769l78 42q17 9 26.5 12t21.5 3q11 0 20.5 -3t26.5 -12l78 -42v-97l-125 64l-126 -64v97z" />
    <glyph glyph-name="Udieresis" unicode="&#xdc;" horiz-adv-x="657" 
d="M139.5 49q-64.5 55 -64.5 176v399h125v-395q0 -58 27.5 -87.5t101.5 -29.5q73 0 100.5 30.5t27.5 86.5v395h125v-399q0 -122 -64 -176.5t-189 -54.5t-189.5 55zM195 805h102v-121h-102v121zM361 805h102v-121h-102v121z" />
    <glyph glyph-name="Ugrave" unicode="&#xd9;" horiz-adv-x="657" 
d="M139.5 49q-64.5 55 -64.5 176v399h125v-395q0 -58 27.5 -87.5t101.5 -29.5q73 0 100.5 30.5t27.5 86.5v395h125v-399q0 -122 -64 -176.5t-189 -54.5t-189.5 55zM149 826h135l81 -142h-102z" />
    <glyph glyph-name="Uhungarumlaut" unicode="&#x170;" horiz-adv-x="657" 
d="M139.5 49q-64.5 55 -64.5 176v399h125v-395q0 -58 27.5 -87.5t101.5 -29.5q73 0 100.5 30.5t27.5 86.5v395h125v-399q0 -122 -64 -176.5t-189 -54.5t-189.5 55zM255 826h127l-103 -142h-90zM429 826h130l-103 -142h-92z" />
    <glyph glyph-name="Umacron" unicode="&#x16a;" horiz-adv-x="657" 
d="M139.5 49q-64.5 55 -64.5 176v399h125v-395q0 -58 27.5 -87.5t101.5 -29.5q73 0 100.5 30.5t27.5 86.5v395h125v-399q0 -122 -64 -176.5t-189 -54.5t-189.5 55zM206 793h246v-90h-246v90z" />
    <glyph glyph-name="Uogonek" unicode="&#x172;" horiz-adv-x="657" 
d="M139.5 49q-64.5 55 -64.5 176v399h125v-395q0 -58 27.5 -87.5t101.5 -29.5q73 0 100.5 30.5t27.5 86.5v395h125v-399q0 -122 -64 -176.5t-189 -54.5t-189.5 55zM281 -151q-26 23 -26 61q0 39 24 73t75 65l50 -48q-35 -23 -47 -40.5t-12 -32.5q0 -12 7.5 -19t21.5 -7
q18 0 41 10v-68q-34 -17 -72 -17q-36 0 -62 23z" />
    <glyph glyph-name="Uring" unicode="&#x16e;" horiz-adv-x="657" 
d="M139.5 49q-64.5 55 -64.5 176v399h125v-395q0 -58 27.5 -87.5t101.5 -29.5q73 0 100.5 30.5t27.5 86.5v395h125v-399q0 -122 -64 -176.5t-189 -54.5t-189.5 55zM248.5 687.5q-28.5 28.5 -28.5 71.5t28.5 71.5t79.5 28.5t80 -28.5t29 -71.5t-29 -71.5t-80 -28.5
t-79.5 28.5zM352 735q8 9 8 24t-8 24t-24 9t-24 -9.5t-8 -23.5t8 -23.5t24 -9.5t24 9z" />
    <glyph glyph-name="Utilde" unicode="&#x168;" horiz-adv-x="657" 
d="M139.5 49q-64.5 55 -64.5 176v399h125v-395q0 -58 27.5 -87.5t101.5 -29.5q73 0 100.5 30.5t27.5 86.5v395h125v-399q0 -122 -64 -176.5t-189 -54.5t-189.5 55zM266 792q26 0 62 -14q30 -10 43 -10q22 0 25 28h73q-3 -63 -23 -90t-63 -27q-24 0 -62 14q-30 10 -42 10
q-20 0 -24 -28h-75q6 117 86 117z" />
    <glyph glyph-name="V" unicode="V" horiz-adv-x="614" 
d="M594 624l-222 -624h-129l-223 624h134l155 -461l155 461h130z" />
    <glyph glyph-name="W" unicode="W" horiz-adv-x="908" 
d="M888 624l-181 -624h-126l-124 420l-130 -420h-123l-184 624h128l125 -473l139 473h94l135 -467l122 467h125z" />
    <glyph glyph-name="Wacute" unicode="&#x1e82;" horiz-adv-x="908" 
d="M888 624l-181 -624h-126l-124 420l-130 -420h-123l-184 624h128l125 -473l139 473h94l135 -467l122 467h125zM462 826h135l-114 -142h-102z" />
    <glyph glyph-name="Wcircumflex" unicode="&#x174;" horiz-adv-x="908" 
d="M888 624l-181 -624h-126l-124 420l-130 -420h-123l-184 624h128l125 -473l139 473h94l135 -467l122 467h125zM330 769l78 42q17 9 26.5 12t21.5 3q11 0 20.5 -3t26.5 -12l78 -42v-97l-125 64l-126 -64v97z" />
    <glyph glyph-name="Wdieresis" unicode="&#x1e84;" horiz-adv-x="908" 
d="M888 624l-181 -624h-126l-124 420l-130 -420h-123l-184 624h128l125 -473l139 473h94l135 -467l122 467h125zM321 805h102v-121h-102v121zM487 805h102v-121h-102v121z" />
    <glyph glyph-name="Wgrave" unicode="&#x1e80;" horiz-adv-x="908" 
d="M888 624l-181 -624h-126l-124 420l-130 -420h-123l-184 624h128l125 -473l139 473h94l135 -467l122 467h125zM275 826h135l81 -142h-102z" />
    <glyph glyph-name="X" unicode="X" horiz-adv-x="585" 
d="M361 311l194 -311h-136l-130 209l-131 -209h-128l194 313l-194 311h136l130 -209l131 209h128z" />
    <glyph glyph-name="Y" unicode="Y" horiz-adv-x="583" 
d="M353 223v-223h-126v225l-217 399h131l151 -283l151 283h130z" />
    <glyph glyph-name="Yacute" unicode="&#xdd;" horiz-adv-x="583" 
d="M353 223v-223h-126v225l-217 399h131l151 -283l151 283h130zM299 826h135l-114 -142h-102z" />
    <glyph glyph-name="Ycircumflex" unicode="&#x176;" horiz-adv-x="583" 
d="M353 223v-223h-126v225l-217 399h131l151 -283l151 283h130zM167 769l78 42q17 9 26.5 12t21.5 3q11 0 20.5 -3t26.5 -12l78 -42v-97l-125 64l-126 -64v97z" />
    <glyph glyph-name="Ydieresis" unicode="&#x178;" horiz-adv-x="583" 
d="M353 223v-223h-126v225l-217 399h131l151 -283l151 283h130zM158 805h102v-121h-102v121zM324 805h102v-121h-102v121z" />
    <glyph glyph-name="Ygrave" unicode="&#x1ef2;" horiz-adv-x="583" 
d="M353 223v-223h-126v225l-217 399h131l151 -283l151 283h130zM112 826h135l81 -142h-102z" />
    <glyph glyph-name="Z" unicode="Z" horiz-adv-x="579" 
d="M529 111v-111h-474v94l305 419h-289v111h448v-94l-310 -419h320z" />
    <glyph glyph-name="Zacute" unicode="&#x179;" horiz-adv-x="579" 
d="M529 111v-111h-474v94l305 419h-289v111h448v-94l-310 -419h320zM299 826h135l-114 -142h-102z" />
    <glyph glyph-name="Zcaron" unicode="&#x17d;" horiz-adv-x="579" 
d="M529 111v-111h-474v94l305 419h-289v111h448v-94l-310 -419h320zM270.5 673q-9.5 3 -26.5 12l-78 42v97l126 -64l125 64v-97l-78 -42q-17 -9 -26.5 -12t-20.5 -3q-12 0 -21.5 3z" />
    <glyph glyph-name="Zdotaccent" unicode="&#x17b;" horiz-adv-x="579" 
d="M529 111v-111h-474v94l305 419h-289v111h448v-94l-310 -419h320zM239 829h106v-126h-106v126z" />
    <glyph glyph-name="Cacute.loclPLK" horiz-adv-x="622" 
d="M124.5 49q-64.5 55 -64.5 162v202q0 107 64.5 162t189.5 55q248 0 248 -213v-31h-125v31q0 51 -26 74t-96 23q-74 0 -102 -25.5t-28 -74.5v-204q0 -48 29.5 -74t100.5 -26q69 0 95.5 23.5t26.5 76.5v27h125v-29q0 -109 -62.5 -161.5t-185.5 -52.5q-125 0 -189.5 55z
M313 826h130l-80 -142h-96z" />
    <glyph glyph-name="Nacute.loclPLK" horiz-adv-x="709" 
d="M629 624v-624h-112l-319 414v-414h-118v624h112l319 -421v421h118zM357 826h130l-80 -142h-96z" />
    <glyph glyph-name="Oacute.loclPLK" horiz-adv-x="644" 
d="M128 52.5q-68 58.5 -68 168.5v182q0 110 68 168.5t194 58.5t194 -58.5t68 -168.5v-182q0 -110 -68 -168.5t-194 -58.5t-194 58.5zM426.5 136.5q32.5 26.5 32.5 84.5v182q0 58 -32.5 84.5t-104.5 26.5t-104.5 -26.5t-32.5 -84.5v-182q0 -58 32.5 -84.5t104.5 -26.5
t104.5 26.5zM323 826h130l-80 -142h-96z" />
    <glyph glyph-name="Sacute.loclPLK" horiz-adv-x="591" 
d="M123.5 43.5q-62.5 49.5 -62.5 138.5v23h126v-16q0 -85 115 -85q104 0 104 62q0 22 -9.5 35.5t-33 24.5t-69.5 24l-41 12q-74 21 -115 44.5t-59 57t-18 83.5q0 54 28.5 95.5t81 64.5t123.5 23q108 0 166.5 -52t58.5 -149v-9h-126v16q0 41 -26 62.5t-72 21.5
q-51 0 -78 -17.5t-27 -48.5q0 -21 10.5 -34t36 -23.5t81.5 -27.5l50 -15q86 -26 127 -67.5t41 -103.5q0 -88 -63.5 -138.5t-173.5 -50.5q-113 0 -175.5 49.5zM294 826h130l-80 -142h-96z" />
    <glyph glyph-name="Zacute.loclPLK" horiz-adv-x="579" 
d="M529 111v-111h-474v94l305 419h-289v111h448v-94l-310 -419h320zM293 826h130l-80 -142h-96z" />
    <glyph glyph-name="a" unicode="a" horiz-adv-x="505" 
d="M399 450.5q51 -42.5 51 -123.5v-327h-107l-4 47q-19 -25 -54.5 -39t-79.5 -14q-79 0 -124.5 40t-45.5 104q0 73 45 108t137 35h115v27q0 87 -84 87q-40 0 -62 -17t-22 -50h-116v8q0 74 53.5 115.5t150.5 41.5q96 0 147 -42.5zM332 178v15h-103q-42 0 -59 -12.5t-17 -40.5
q0 -27 20.5 -42t55.5 -15q103 0 103 95z" />
    <glyph glyph-name="aacute" unicode="&#xe1;" horiz-adv-x="505" 
d="M399 450.5q51 -42.5 51 -123.5v-327h-107l-4 47q-19 -25 -54.5 -39t-79.5 -14q-79 0 -124.5 40t-45.5 104q0 73 45 108t137 35h115v27q0 87 -84 87q-40 0 -62 -17t-22 -50h-116v8q0 74 53.5 115.5t150.5 41.5q96 0 147 -42.5zM332 178v15h-103q-42 0 -59 -12.5t-17 -40.5
q0 -27 20.5 -42t55.5 -15q103 0 103 95zM268 689h135l-114 -142h-102z" />
    <glyph glyph-name="abreve" unicode="&#x103;" horiz-adv-x="505" 
d="M399 450.5q51 -42.5 51 -123.5v-327h-107l-4 47q-19 -25 -54.5 -39t-79.5 -14q-79 0 -124.5 40t-45.5 104q0 73 45 108t137 35h115v27q0 87 -84 87q-40 0 -62 -17t-22 -50h-116v8q0 74 53.5 115.5t150.5 41.5q96 0 147 -42.5zM332 178v15h-103q-42 0 -59 -12.5t-17 -40.5
q0 -27 20.5 -42t55.5 -15q103 0 103 95zM158.5 587q-37.5 29 -43.5 92h75q4 -18 20.5 -26.5t38.5 -8.5t38 8.5t20 26.5h75q-6 -63 -43.5 -92t-89.5 -29q-53 0 -90.5 29z" />
    <glyph glyph-name="uni01CE" unicode="&#x1ce;" horiz-adv-x="505" 
d="M399 450.5q51 -42.5 51 -123.5v-327h-107l-4 47q-19 -25 -54.5 -39t-79.5 -14q-79 0 -124.5 40t-45.5 104q0 73 45 108t137 35h115v27q0 87 -84 87q-40 0 -62 -17t-22 -50h-116v8q0 74 53.5 115.5t150.5 41.5q96 0 147 -42.5zM332 178v15h-103q-42 0 -59 -12.5t-17 -40.5
q0 -27 20.5 -42t55.5 -15q103 0 103 95zM227.5 548q-9.5 3 -26.5 12l-78 42v97l126 -64l125 64v-97l-78 -42q-17 -9 -26.5 -12t-20.5 -3q-12 0 -21.5 3z" />
    <glyph glyph-name="acircumflex" unicode="&#xe2;" horiz-adv-x="505" 
d="M399 450.5q51 -42.5 51 -123.5v-327h-107l-4 47q-19 -25 -54.5 -39t-79.5 -14q-79 0 -124.5 40t-45.5 104q0 73 45 108t137 35h115v27q0 87 -84 87q-40 0 -62 -17t-22 -50h-116v8q0 74 53.5 115.5t150.5 41.5q96 0 147 -42.5zM332 178v15h-103q-42 0 -59 -12.5t-17 -40.5
q0 -27 20.5 -42t55.5 -15q103 0 103 95zM123 644l78 42q17 9 26.5 12t21.5 3q11 0 20.5 -3t26.5 -12l78 -42v-97l-125 64l-126 -64v97z" />
    <glyph glyph-name="adieresis" unicode="&#xe4;" horiz-adv-x="505" 
d="M399 450.5q51 -42.5 51 -123.5v-327h-107l-4 47q-19 -25 -54.5 -39t-79.5 -14q-79 0 -124.5 40t-45.5 104q0 73 45 108t137 35h115v27q0 87 -84 87q-40 0 -62 -17t-22 -50h-116v8q0 74 53.5 115.5t150.5 41.5q96 0 147 -42.5zM332 178v15h-103q-42 0 -59 -12.5t-17 -40.5
q0 -27 20.5 -42t55.5 -15q103 0 103 95zM115 691h102v-121h-102v121zM281 691h102v-121h-102v121z" />
    <glyph glyph-name="agrave" unicode="&#xe0;" horiz-adv-x="505" 
d="M399 450.5q51 -42.5 51 -123.5v-327h-107l-4 47q-19 -25 -54.5 -39t-79.5 -14q-79 0 -124.5 40t-45.5 104q0 73 45 108t137 35h115v27q0 87 -84 87q-40 0 -62 -17t-22 -50h-116v8q0 74 53.5 115.5t150.5 41.5q96 0 147 -42.5zM332 178v15h-103q-42 0 -59 -12.5t-17 -40.5
q0 -27 20.5 -42t55.5 -15q103 0 103 95zM88 689h135l81 -142h-102z" />
    <glyph glyph-name="amacron" unicode="&#x101;" horiz-adv-x="505" 
d="M399 450.5q51 -42.5 51 -123.5v-327h-107l-4 47q-19 -25 -54.5 -39t-79.5 -14q-79 0 -124.5 40t-45.5 104q0 73 45 108t137 35h115v27q0 87 -84 87q-40 0 -62 -17t-22 -50h-116v8q0 74 53.5 115.5t150.5 41.5q96 0 147 -42.5zM332 178v15h-103q-42 0 -59 -12.5t-17 -40.5
q0 -27 20.5 -42t55.5 -15q103 0 103 95zM126 667h246v-90h-246v90z" />
    <glyph glyph-name="aogonek" unicode="&#x105;" horiz-adv-x="505" 
d="M399 450.5q51 -42.5 51 -123.5v-327h-107l-4 47q-19 -25 -54.5 -39t-79.5 -14q-79 0 -124.5 40t-45.5 104q0 73 45 108t137 35h115v27q0 87 -84 87q-40 0 -62 -17t-22 -50h-116v8q0 74 53.5 115.5t150.5 41.5q96 0 147 -42.5zM332 178v15h-103q-42 0 -59 -12.5t-17 -40.5
q0 -27 20.5 -42t55.5 -15q103 0 103 95zM327 -151q-26 23 -26 61q0 39 24 73t75 65l50 -48q-35 -23 -47 -40.5t-12 -32.5q0 -12 7.5 -19t21.5 -7q18 0 41 10v-68q-34 -17 -72 -17q-36 0 -62 23z" />
    <glyph glyph-name="aring" unicode="&#xe5;" horiz-adv-x="505" 
d="M399 450.5q51 -42.5 51 -123.5v-327h-107l-4 47q-19 -25 -54.5 -39t-79.5 -14q-79 0 -124.5 40t-45.5 104q0 73 45 108t137 35h115v27q0 87 -84 87q-40 0 -62 -17t-22 -50h-116v8q0 74 53.5 115.5t150.5 41.5q96 0 147 -42.5zM332 178v15h-103q-42 0 -59 -12.5t-17 -40.5
q0 -27 20.5 -42t55.5 -15q103 0 103 95zM169.5 554.5q-28.5 28.5 -28.5 71.5t28.5 71.5t79.5 28.5t80 -28.5t29 -71.5t-29 -71.5t-80 -28.5t-79.5 28.5zM273 602q8 9 8 24t-8 24t-24 9t-24 -9.5t-8 -23.5t8 -23.5t24 -9.5t24 9z" />
    <glyph glyph-name="atilde" unicode="&#xe3;" horiz-adv-x="505" 
d="M399 450.5q51 -42.5 51 -123.5v-327h-107l-4 47q-19 -25 -54.5 -39t-79.5 -14q-79 0 -124.5 40t-45.5 104q0 73 45 108t137 35h115v27q0 87 -84 87q-40 0 -62 -17t-22 -50h-116v8q0 74 53.5 115.5t150.5 41.5q96 0 147 -42.5zM332 178v15h-103q-42 0 -59 -12.5t-17 -40.5
q0 -27 20.5 -42t55.5 -15q103 0 103 95zM186 675q26 0 62 -14q30 -10 43 -10q22 0 25 28h73q-3 -63 -23 -90t-63 -27q-24 0 -62 14q-30 10 -42 10q-20 0 -24 -28h-75q6 117 86 117z" />
    <glyph glyph-name="ae" unicode="&#xe6;" horiz-adv-x="790" 
d="M449 210v-31q0 -52 22.5 -71.5t70.5 -19.5q90 0 90 72h116v-5q0 -78 -53.5 -119.5t-153.5 -41.5q-56 0 -93.5 16.5t-61.5 47.5q-61 -64 -177 -64q-83 0 -128.5 39.5t-45.5 104.5q0 73 45 108t137 35h115v27q0 87 -84 87q-40 0 -62 -17t-22 -50h-116v8q0 74 53 115.5
t148 41.5q50 0 85 -12.5t61 -41.5q53 54 153 54q96 0 149.5 -43t53.5 -126v-84q0 -30 -29 -30h-273zM472 376.5q-23 -22.5 -23 -68.5v-15h185v18q0 39 -20.5 63.5t-70.5 24.5q-48 0 -71 -22.5zM332 178v15h-103q-42 0 -59 -12.5t-17 -39.5q0 -28 20 -43t58 -15q101 0 101 95
z" />
    <glyph glyph-name="aeacute" unicode="&#x1fd;" horiz-adv-x="790" 
d="M449 210v-31q0 -52 22.5 -71.5t70.5 -19.5q90 0 90 72h116v-5q0 -78 -53.5 -119.5t-153.5 -41.5q-56 0 -93.5 16.5t-61.5 47.5q-61 -64 -177 -64q-83 0 -128.5 39.5t-45.5 104.5q0 73 45 108t137 35h115v27q0 87 -84 87q-40 0 -62 -17t-22 -50h-116v8q0 74 53 115.5
t148 41.5q50 0 85 -12.5t61 -41.5q53 54 153 54q96 0 149.5 -43t53.5 -126v-84q0 -30 -29 -30h-273zM472 376.5q-23 -22.5 -23 -68.5v-15h185v18q0 39 -20.5 63.5t-70.5 24.5q-48 0 -71 -22.5zM332 178v15h-103q-42 0 -59 -12.5t-17 -39.5q0 -28 20 -43t58 -15q101 0 101 95
zM413 689h135l-114 -142h-102z" />
    <glyph glyph-name="b" unicode="b" horiz-adv-x="528" 
d="M437 449.5q50 -43.5 50 -119.5v-155q0 -85 -49.5 -133t-138.5 -48q-44 0 -77.5 12.5t-53.5 34.5l-3 -41h-105v668h118v-211q42 36 121 36q88 0 138 -43.5zM369 304q0 41 -24.5 64.5t-67.5 23.5q-46 0 -72.5 -23t-26.5 -63v-122q0 -46 23.5 -67.5t73.5 -21.5
q49 0 71.5 21.5t22.5 68.5v119z" />
    <glyph glyph-name="c" unicode="c" horiz-adv-x="478" 
d="M92.5 38.5q-51.5 44.5 -51.5 132.5v142q0 180 204 180q110 0 156.5 -45t46.5 -125v-10h-118v8q0 34 -21.5 52.5t-63.5 18.5q-86 0 -86 -83v-131q0 -83 86 -83q42 0 63 18.5t21 52.5h119v-2q0 -170 -203 -170q-101 0 -152.5 44.5z" />
    <glyph glyph-name="cacute" unicode="&#x107;" horiz-adv-x="478" 
d="M92.5 38.5q-51.5 44.5 -51.5 132.5v142q0 180 204 180q110 0 156.5 -45t46.5 -125v-10h-118v8q0 34 -21.5 52.5t-63.5 18.5q-86 0 -86 -83v-131q0 -83 86 -83q42 0 63 18.5t21 52.5h119v-2q0 -170 -203 -170q-101 0 -152.5 44.5zM264 689h135l-114 -142h-102z" />
    <glyph glyph-name="ccaron" unicode="&#x10d;" horiz-adv-x="478" 
d="M92.5 38.5q-51.5 44.5 -51.5 132.5v142q0 180 204 180q110 0 156.5 -45t46.5 -125v-10h-118v8q0 34 -21.5 52.5t-63.5 18.5q-86 0 -86 -83v-131q0 -83 86 -83q42 0 63 18.5t21 52.5h119v-2q0 -170 -203 -170q-101 0 -152.5 44.5zM223.5 548q-9.5 3 -26.5 12l-78 42v97
l126 -64l125 64v-97l-78 -42q-17 -9 -26.5 -12t-20.5 -3q-12 0 -21.5 3z" />
    <glyph glyph-name="ccedilla" unicode="&#xe7;" horiz-adv-x="478" 
d="M92.5 38.5q-51.5 44.5 -51.5 132.5v142q0 180 204 180q110 0 156.5 -45t46.5 -125v-10h-118v8q0 34 -21.5 52.5t-63.5 18.5q-86 0 -86 -83v-131q0 -83 86 -83q42 0 63 18.5t21 52.5h119v-2q0 -170 -203 -170q-101 0 -152.5 44.5zM192 -110q9 -3 26 -6t32 -3q19 0 26 4.5
t7 15.5q0 9 -5.5 13.5t-19.5 4.5h-46q-20 0 -20 16q0 9 5 37l9 51h68l-7 -46h10q36 0 59 -18t23 -58q0 -41 -27.5 -63t-76.5 -22q-41 0 -77 12z" />
    <glyph glyph-name="ccircumflex" unicode="&#x109;" horiz-adv-x="478" 
d="M92.5 38.5q-51.5 44.5 -51.5 132.5v142q0 180 204 180q110 0 156.5 -45t46.5 -125v-10h-118v8q0 34 -21.5 52.5t-63.5 18.5q-86 0 -86 -83v-131q0 -83 86 -83q42 0 63 18.5t21 52.5h119v-2q0 -170 -203 -170q-101 0 -152.5 44.5zM119 644l78 42q17 9 26.5 12t21.5 3
q11 0 20.5 -3t26.5 -12l78 -42v-97l-125 64l-126 -64v97z" />
    <glyph glyph-name="cdotaccent" unicode="&#x10b;" horiz-adv-x="478" 
d="M92.5 38.5q-51.5 44.5 -51.5 132.5v142q0 180 204 180q110 0 156.5 -45t46.5 -125v-10h-118v8q0 34 -21.5 52.5t-63.5 18.5q-86 0 -86 -83v-131q0 -83 86 -83q42 0 63 18.5t21 52.5h119v-2q0 -170 -203 -170q-101 0 -152.5 44.5zM192 691h106v-126h-106v126z" />
    <glyph glyph-name="d" unicode="d" horiz-adv-x="528" 
d="M468 668v-668h-103l-4 41q-20 -23 -53.5 -35t-78.5 -12q-88 0 -138 43.5t-50 119.5v158q0 83 50 130.5t138 47.5q79 0 121 -33v208h118zM350 306q0 44 -24 65t-75 21q-48 0 -70 -21t-22 -64v-126q0 -39 24.5 -62.5t67.5 -23.5q46 0 72.5 23t26.5 63v125z" />
    <glyph glyph-name="eth" unicode="&#xf0;" horiz-adv-x="528" 
d="M468 278v-96q0 -88 -56.5 -138t-160.5 -50q-103 0 -156.5 44t-53.5 126v121q0 83 50 130.5t138 47.5q51 0 91 -16q-12 41 -32 80l-78 -26l-29 76l61 20q-26 33 -65 71h137l34 -35l85 28l29 -76l-64 -21q70 -120 70 -286zM350 276q0 44 -23 65t-72 21t-72.5 -21t-23.5 -64
v-96q0 -40 25 -63t71 -23q44 0 69.5 23t25.5 63v95z" />
    <glyph glyph-name="dcaron" unicode="&#x10f;" horiz-adv-x="528" 
d="M468 668v-668h-103l-4 41q-20 -23 -53.5 -35t-78.5 -12q-88 0 -138 43.5t-50 119.5v158q0 83 50 130.5t138 47.5q79 0 121 -33v208h118zM350 306q0 44 -24 65t-75 21q-48 0 -70 -21t-22 -64v-126q0 -39 24.5 -62.5t67.5 -23.5q46 0 72.5 23t26.5 63v125zM537 668h96v-70
l-37 -132h-59v202z" />
    <glyph glyph-name="dcroat" unicode="&#x111;" horiz-adv-x="528" 
d="M528 523h-60v-523h-103l-4 41q-20 -23 -53.5 -35t-78.5 -12q-88 0 -138 43.5t-50 119.5v158q0 83 50 130.5t138 47.5q79 0 121 -33v63h-100v88h100v57h118v-57h60v-88zM350 306q0 44 -24 65t-75 21q-48 0 -70 -21t-22 -64v-126q0 -39 24.5 -62.5t67.5 -23.5q46 0 72.5 23
t26.5 63v125z" />
    <glyph glyph-name="e" unicode="e" horiz-adv-x="499" 
d="M158 210v-31q0 -49 21 -70t76 -21q42 0 64 19t22 53h116v-3q0 -80 -53.5 -121.5t-157.5 -41.5q-100 0 -152.5 45t-52.5 132v144q0 88 53 133t156 45q104 0 157 -43t53 -128v-82q0 -16 -8 -23t-25 -7h-269zM180 376q-22 -23 -22 -69v-14h185v14q0 46 -22 69t-71 23
q-48 0 -70 -23z" />
    <glyph glyph-name="eacute" unicode="&#xe9;" horiz-adv-x="499" 
d="M158 210v-31q0 -49 21 -70t76 -21q42 0 64 19t22 53h116v-3q0 -80 -53.5 -121.5t-157.5 -41.5q-100 0 -152.5 45t-52.5 132v144q0 88 53 133t156 45q104 0 157 -43t53 -128v-82q0 -16 -8 -23t-25 -7h-269zM180 376q-22 -23 -22 -69v-14h185v14q0 46 -22 69t-71 23
q-48 0 -70 -23zM269 689h135l-114 -142h-102z" />
    <glyph glyph-name="ebreve" unicode="&#x115;" horiz-adv-x="499" 
d="M158 210v-31q0 -49 21 -70t76 -21q42 0 64 19t22 53h116v-3q0 -80 -53.5 -121.5t-157.5 -41.5q-100 0 -152.5 45t-52.5 132v144q0 88 53 133t156 45q104 0 157 -43t53 -128v-82q0 -16 -8 -23t-25 -7h-269zM180 376q-22 -23 -22 -69v-14h185v14q0 46 -22 69t-71 23
q-48 0 -70 -23zM159.5 587q-37.5 29 -43.5 92h75q4 -18 20.5 -26.5t38.5 -8.5t38 8.5t20 26.5h75q-6 -63 -43.5 -92t-89.5 -29q-53 0 -90.5 29z" />
    <glyph glyph-name="ecaron" unicode="&#x11b;" horiz-adv-x="499" 
d="M158 210v-31q0 -49 21 -70t76 -21q42 0 64 19t22 53h116v-3q0 -80 -53.5 -121.5t-157.5 -41.5q-100 0 -152.5 45t-52.5 132v144q0 88 53 133t156 45q104 0 157 -43t53 -128v-82q0 -16 -8 -23t-25 -7h-269zM180 376q-22 -23 -22 -69v-14h185v14q0 46 -22 69t-71 23
q-48 0 -70 -23zM228.5 548q-9.5 3 -26.5 12l-78 42v97l126 -64l125 64v-97l-78 -42q-17 -9 -26.5 -12t-20.5 -3q-12 0 -21.5 3z" />
    <glyph glyph-name="ecircumflex" unicode="&#xea;" horiz-adv-x="499" 
d="M158 210v-31q0 -49 21 -70t76 -21q42 0 64 19t22 53h116v-3q0 -80 -53.5 -121.5t-157.5 -41.5q-100 0 -152.5 45t-52.5 132v144q0 88 53 133t156 45q104 0 157 -43t53 -128v-82q0 -16 -8 -23t-25 -7h-269zM180 376q-22 -23 -22 -69v-14h185v14q0 46 -22 69t-71 23
q-48 0 -70 -23zM124 644l78 42q17 9 26.5 12t21.5 3q11 0 20.5 -3t26.5 -12l78 -42v-97l-125 64l-126 -64v97z" />
    <glyph glyph-name="edieresis" unicode="&#xeb;" horiz-adv-x="499" 
d="M158 210v-31q0 -49 21 -70t76 -21q42 0 64 19t22 53h116v-3q0 -80 -53.5 -121.5t-157.5 -41.5q-100 0 -152.5 45t-52.5 132v144q0 88 53 133t156 45q104 0 157 -43t53 -128v-82q0 -16 -8 -23t-25 -7h-269zM180 376q-22 -23 -22 -69v-14h185v14q0 46 -22 69t-71 23
q-48 0 -70 -23zM116 691h102v-121h-102v121zM282 691h102v-121h-102v121z" />
    <glyph glyph-name="edotaccent" unicode="&#x117;" horiz-adv-x="499" 
d="M158 210v-31q0 -49 21 -70t76 -21q42 0 64 19t22 53h116v-3q0 -80 -53.5 -121.5t-157.5 -41.5q-100 0 -152.5 45t-52.5 132v144q0 88 53 133t156 45q104 0 157 -43t53 -128v-82q0 -16 -8 -23t-25 -7h-269zM180 376q-22 -23 -22 -69v-14h185v14q0 46 -22 69t-71 23
q-48 0 -70 -23zM197 691h106v-126h-106v126z" />
    <glyph glyph-name="egrave" unicode="&#xe8;" horiz-adv-x="499" 
d="M158 210v-31q0 -49 21 -70t76 -21q42 0 64 19t22 53h116v-3q0 -80 -53.5 -121.5t-157.5 -41.5q-100 0 -152.5 45t-52.5 132v144q0 88 53 133t156 45q104 0 157 -43t53 -128v-82q0 -16 -8 -23t-25 -7h-269zM180 376q-22 -23 -22 -69v-14h185v14q0 46 -22 69t-71 23
q-48 0 -70 -23zM89 689h135l81 -142h-102z" />
    <glyph glyph-name="emacron" unicode="&#x113;" horiz-adv-x="499" 
d="M158 210v-31q0 -49 21 -70t76 -21q42 0 64 19t22 53h116v-3q0 -80 -53.5 -121.5t-157.5 -41.5q-100 0 -152.5 45t-52.5 132v144q0 88 53 133t156 45q104 0 157 -43t53 -128v-82q0 -16 -8 -23t-25 -7h-269zM180 376q-22 -23 -22 -69v-14h185v14q0 46 -22 69t-71 23
q-48 0 -70 -23zM127 667h246v-90h-246v90z" />
    <glyph glyph-name="eogonek" unicode="&#x119;" horiz-adv-x="497" 
d="M158 210v-31q0 -49 21 -70t76 -21q42 0 64 19t22 53h116v-3q0 -44 -14.5 -72t-60.5 -64l-20 -15q-31 -24 -44.5 -42t-13.5 -35q0 -13 8 -20.5t24 -7.5q20 0 38 10v-68q-14 -7 -32.5 -12t-36.5 -5q-42 0 -67 22.5t-25 64.5t36 81h-6q-98 0 -150 45t-52 132v144
q0 88 53 133t156 45q104 0 157 -43t53 -128v-82q0 -16 -8 -23t-25 -7h-269zM180 376q-22 -23 -22 -69v-14h185v14q0 46 -22 69t-71 23q-48 0 -70 -23z" />
    <glyph glyph-name="f" unicode="f" horiz-adv-x="326" 
d="M230 563q-17 -16 -17 -49v-27h93v-98h-93v-389h-118v389h-70v98h70v43q0 70 38.5 110t121.5 40q34 0 61 -6v-98q-11 3 -40 3t-46 -16z" />
    <glyph glyph-name="g" unicode="g" horiz-adv-x="519" 
d="M462 487v-490q0 -94 -52.5 -142t-167.5 -48q-36 0 -69 7v101q30 -6 66 -6q53 0 79 17.5t26 65.5v46q-20 -18 -51.5 -28t-68.5 -10q-83 0 -133 42.5t-50 120.5v152q0 84 48.5 131t134.5 47q42 0 75.5 -13t55.5 -36l3 43h104zM319 125q25 22 25 62v119q0 41 -20.5 63.5
t-72.5 22.5q-54 0 -73 -22t-19 -63v-120q0 -42 24 -63t66 -21q45 0 70 22z" />
    <glyph glyph-name="gbreve" unicode="&#x11f;" horiz-adv-x="519" 
d="M462 487v-490q0 -94 -52.5 -142t-167.5 -48q-36 0 -69 7v101q30 -6 66 -6q53 0 79 17.5t26 65.5v46q-20 -18 -51.5 -28t-68.5 -10q-83 0 -133 42.5t-50 120.5v152q0 84 48.5 131t134.5 47q42 0 75.5 -13t55.5 -36l3 43h104zM319 125q25 22 25 62v119q0 41 -20.5 63.5
t-72.5 22.5q-54 0 -73 -22t-19 -63v-120q0 -42 24 -63t66 -21q45 0 70 22zM165.5 587q-37.5 29 -43.5 92h75q4 -18 20.5 -26.5t38.5 -8.5t38 8.5t20 26.5h75q-6 -63 -43.5 -92t-89.5 -29q-53 0 -90.5 29z" />
    <glyph glyph-name="gcircumflex" unicode="&#x11d;" horiz-adv-x="519" 
d="M462 487v-490q0 -94 -52.5 -142t-167.5 -48q-36 0 -69 7v101q30 -6 66 -6q53 0 79 17.5t26 65.5v46q-20 -18 -51.5 -28t-68.5 -10q-83 0 -133 42.5t-50 120.5v152q0 84 48.5 131t134.5 47q42 0 75.5 -13t55.5 -36l3 43h104zM319 125q25 22 25 62v119q0 41 -20.5 63.5
t-72.5 22.5q-54 0 -73 -22t-19 -63v-120q0 -42 24 -63t66 -21q45 0 70 22zM130 644l78 42q17 9 26.5 12t21.5 3q11 0 20.5 -3t26.5 -12l78 -42v-97l-125 64l-126 -64v97z" />
    <glyph glyph-name="gcommaaccent" unicode="&#x123;" horiz-adv-x="519" 
d="M462 487v-490q0 -94 -52.5 -142t-167.5 -48q-36 0 -69 7v101q30 -6 66 -6q53 0 79 17.5t26 65.5v46q-20 -18 -51.5 -28t-68.5 -10q-83 0 -133 42.5t-50 120.5v152q0 84 48.5 131t134.5 47q42 0 75.5 -13t55.5 -36l3 43h104zM319 125q25 22 25 62v119q0 41 -20.5 63.5
t-72.5 22.5q-54 0 -73 -22t-19 -63v-120q0 -42 24 -63t66 -21q45 0 70 22zM293 570h-96v70l37 132h59v-202z" />
    <glyph glyph-name="gdotaccent" unicode="&#x121;" horiz-adv-x="519" 
d="M462 487v-490q0 -94 -52.5 -142t-167.5 -48q-36 0 -69 7v101q30 -6 66 -6q53 0 79 17.5t26 65.5v46q-20 -18 -51.5 -28t-68.5 -10q-83 0 -133 42.5t-50 120.5v152q0 84 48.5 131t134.5 47q42 0 75.5 -13t55.5 -36l3 43h104zM319 125q25 22 25 62v119q0 41 -20.5 63.5
t-72.5 22.5q-54 0 -73 -22t-19 -63v-120q0 -42 24 -63t66 -21q45 0 70 22zM203 691h106v-126h-106v126z" />
    <glyph glyph-name="h" unicode="h" horiz-adv-x="540" 
d="M438.5 450.5q46.5 -42.5 46.5 -119.5v-331h-118v305q0 42 -19 64t-72 22q-56 0 -77 -23t-21 -63v-305h-118v668h118v-217q24 20 57.5 31t70.5 11q86 0 132.5 -42.5z" />
    <glyph glyph-name="hbar" unicode="&#x127;" horiz-adv-x="540" 
d="M438.5 450.5q46.5 -42.5 46.5 -119.5v-331h-118v305q0 42 -19 64t-72 22q-56 0 -77 -23t-21 -63v-305h-118v523h-61v88h61v57h118v-57h99v-88h-99v-72q24 20 57.5 31t70.5 11q86 0 132.5 -42.5z" />
    <glyph glyph-name="hcircumflex" unicode="&#x125;" horiz-adv-x="540" 
d="M438.5 450.5q46.5 -42.5 46.5 -119.5v-331h-118v305q0 42 -19 64t-72 22q-56 0 -77 -23t-21 -63v-305h-118v668h118v-217q24 20 57.5 31t70.5 11q86 0 132.5 -42.5zM-7 789l78 42q17 9 26.5 12t21.5 3q11 0 20.5 -3t26.5 -12l78 -42v-97l-125 64l-126 -64v97z" />
    <glyph glyph-name="i" unicode="i" horiz-adv-x="242" 
d="M62 668h118v-106h-118v106zM62 487h118v-487h-118v487z" />
    <glyph glyph-name="dotlessi" unicode="&#x131;" horiz-adv-x="242" 
d="M62 487h118v-487h-118v487z" />
    <glyph glyph-name="iacute" unicode="&#xed;" horiz-adv-x="242" 
d="M62 487h118v-487h-118v487zM141 689h135l-114 -142h-102z" />
    <glyph glyph-name="ibreve" unicode="&#x12d;" horiz-adv-x="242" 
d="M62 487h118v-487h-118v487zM31.5 587q-37.5 29 -43.5 92h75q4 -18 20.5 -26.5t38.5 -8.5t38 8.5t20 26.5h75q-6 -63 -43.5 -92t-89.5 -29q-53 0 -90.5 29z" />
    <glyph glyph-name="icircumflex" unicode="&#xee;" horiz-adv-x="242" 
d="M62 487h118v-487h-118v487zM-4 644l78 42q17 9 26.5 12t21.5 3q11 0 20.5 -3t26.5 -12l78 -42v-97l-125 64l-126 -64v97z" />
    <glyph glyph-name="idieresis" unicode="&#xef;" horiz-adv-x="242" 
d="M62 487h118v-487h-118v487zM-12 691h102v-121h-102v121zM154 691h102v-121h-102v121z" />
    <glyph glyph-name="i.loclTRK" horiz-adv-x="242" 
d="M62 668h118v-106h-118v106zM62 487h118v-487h-118v487z" />
    <glyph glyph-name="igrave" unicode="&#xec;" horiz-adv-x="242" 
d="M62 487h118v-487h-118v487zM-39 689h135l81 -142h-102z" />
    <glyph glyph-name="ij" unicode="&#x133;" horiz-adv-x="479" 
d="M62 668h118v-106h-118v106zM62 487h118v-487h-118v487zM304 668h118v-106h-118v106zM178 -190v102q13 -3 31 -3q58 0 76.5 21.5t18.5 66.5v490h118v-495q0 -91 -48.5 -138t-150.5 -47q-30 0 -45 3z" />
    <glyph glyph-name="imacron" unicode="&#x12b;" horiz-adv-x="242" 
d="M62 487h118v-487h-118v487zM-1 667h246v-90h-246v90z" />
    <glyph glyph-name="iogonek" unicode="&#x12f;" horiz-adv-x="242" 
d="M180 562h-118v106h118v-106zM191 -89v-68q-34 -17 -72 -17q-40 0 -64 22.5t-24 61.5q0 46 31 84v493h118v-487q-59 -36 -59 -73q0 -12 7.5 -19t21.5 -7q18 0 41 10z" />
    <glyph glyph-name="itilde" unicode="&#x129;" horiz-adv-x="242" 
d="M62 487h118v-487h-118v487zM59 675q26 0 62 -14q30 -10 43 -10q22 0 25 28h73q-3 -63 -23 -90t-63 -27q-24 0 -62 14q-30 10 -42 10q-20 0 -24 -28h-75q6 117 86 117z" />
    <glyph glyph-name="j" unicode="j" horiz-adv-x="237" 
d="M62 668h118v-106h-118v106zM-64 -190v102q13 -3 31 -3q58 0 76.5 21.5t18.5 66.5v490h118v-495q0 -91 -48.5 -138t-150.5 -47q-30 0 -45 3z" />
    <glyph glyph-name="uni0237" unicode="&#x237;" horiz-adv-x="237" 
d="M-64 -190v102q13 -3 31 -3q58 0 76.5 21.5t18.5 66.5v490h118v-495q0 -91 -48.5 -138t-150.5 -47q-30 0 -45 3z" />
    <glyph glyph-name="uni006A0301" horiz-adv-x="237" 
d="M-64 -190v102q13 -3 31 -3q58 0 76.5 21.5t18.5 66.5v490h118v-495q0 -91 -48.5 -138t-150.5 -47q-30 0 -45 3zM140 689h135l-114 -142h-102z" />
    <glyph glyph-name="jcircumflex" unicode="&#x135;" horiz-adv-x="237" 
d="M-64 -190v102q13 -3 31 -3q58 0 76.5 21.5t18.5 66.5v490h118v-495q0 -91 -48.5 -138t-150.5 -47q-30 0 -45 3zM-5 644l78 42q17 9 26.5 12t21.5 3q11 0 20.5 -3t26.5 -12l78 -42v-97l-125 64l-126 -64v97z" />
    <glyph glyph-name="k" unicode="k" horiz-adv-x="503" 
d="M306 284l190 -284h-134l-134 201l-50 -54v-147h-118v668h118v-381l178 200h140z" />
    <glyph glyph-name="kcommaaccent" unicode="&#x137;" horiz-adv-x="503" 
d="M306 284l190 -284h-134l-134 201l-50 -54v-147h-118v668h118v-381l178 200h140zM213 -53h96v-70l-37 -132h-59v202z" />
    <glyph glyph-name="kgreenlandic" unicode="&#x138;" horiz-adv-x="503" 
d="M306 284l190 -284h-134l-134 201l-50 -54v-147h-118v487h118v-200l178 200h140z" />
    <glyph glyph-name="l" unicode="l" horiz-adv-x="278" 
d="M55 142v526h118v-485q0 -45 13 -64.5t51 -19.5q16 0 21 1v-101q-27 -5 -57 -5q-146 0 -146 148z" />
    <glyph glyph-name="lacute" unicode="&#x13a;" horiz-adv-x="278" 
d="M55 142v526h118v-485q0 -45 13 -64.5t51 -19.5q16 0 21 1v-101q-27 -5 -57 -5q-146 0 -146 148zM133 870h135l-114 -142h-102z" />
    <glyph glyph-name="lcaron" unicode="&#x13e;" horiz-adv-x="233" 
d="M55 142v526h118v-485q0 -45 13 -64.5t51 -19.5q16 0 21 1v-101q-27 -5 -57 -5q-146 0 -146 148zM242 668h96v-70l-37 -132h-59v202z" />
    <glyph glyph-name="lcommaaccent" unicode="&#x13c;" horiz-adv-x="278" 
d="M55 142v526h118v-485q0 -45 13 -64.5t51 -19.5q16 0 21 1v-101q-27 -5 -57 -5q-146 0 -146 148zM112 -53h96v-70l-37 -132h-59v202z" />
    <glyph glyph-name="ldot" unicode="&#x140;" horiz-adv-x="354" 
d="M55 142v526h118v-485q0 -45 13 -64.5t51 -19.5q16 0 21 1v-101q-27 -5 -57 -5q-146 0 -146 148zM235 411h112v-129h-112v129z" />
    <glyph glyph-name="lslash" unicode="&#x142;" horiz-adv-x="278" 
d="M258 100v-101q-27 -5 -57 -5q-146 0 -146 148v113l-60 -28v104l60 28v309h118v-254l59 27v-104l-59 -27v-127q0 -45 13 -64.5t51 -19.5q16 0 21 1z" />
    <glyph glyph-name="m" unicode="m" horiz-adv-x="837" 
d="M734 445.5q48 -47.5 48 -131.5v-314h-118v302q0 41 -19 65t-69 24q-55 0 -75.5 -23t-20.5 -68v-300h-118v302q0 42 -18.5 65.5t-68.5 23.5q-97 0 -97 -88v-303h-118v487h107l3 -42q48 48 129 48q96 0 144 -61q19 31 59.5 46t95.5 15q88 0 136 -47.5z" />
    <glyph glyph-name="n" unicode="n" horiz-adv-x="540" 
d="M437.5 450.5q47.5 -42.5 47.5 -119.5v-331h-118v305q0 42 -19 64t-72 22q-57 0 -77.5 -23t-20.5 -63v-305h-118v487h107l3 -46q21 25 55 38.5t76 13.5q89 0 136.5 -42.5z" />
    <glyph glyph-name="nacute" unicode="&#x144;" horiz-adv-x="540" 
d="M437.5 450.5q47.5 -42.5 47.5 -119.5v-331h-118v305q0 42 -19 64t-72 22q-57 0 -77.5 -23t-20.5 -63v-305h-118v487h107l3 -46q21 25 55 38.5t76 13.5q89 0 136.5 -42.5zM302 689h135l-114 -142h-102z" />
    <glyph glyph-name="ncaron" unicode="&#x148;" horiz-adv-x="540" 
d="M437.5 450.5q47.5 -42.5 47.5 -119.5v-331h-118v305q0 42 -19 64t-72 22q-57 0 -77.5 -23t-20.5 -63v-305h-118v487h107l3 -46q21 25 55 38.5t76 13.5q89 0 136.5 -42.5zM261.5 548q-9.5 3 -26.5 12l-78 42v97l126 -64l125 64v-97l-78 -42q-17 -9 -26.5 -12t-20.5 -3
q-12 0 -21.5 3z" />
    <glyph glyph-name="ncommaaccent" unicode="&#x146;" horiz-adv-x="540" 
d="M437.5 450.5q47.5 -42.5 47.5 -119.5v-331h-118v305q0 42 -19 64t-72 22q-57 0 -77.5 -23t-20.5 -63v-305h-118v487h107l3 -46q21 25 55 38.5t76 13.5q89 0 136.5 -42.5zM220 -53h96v-70l-37 -132h-59v202z" />
    <glyph glyph-name="eng" unicode="&#x14b;" horiz-adv-x="540" 
d="M60 487h107l3 -46q21 25 55 38.5t76 13.5q89 0 136.5 -42.5t47.5 -119.5v-322q0 -61 -14.5 -100.5t-53 -61t-108.5 -21.5q-24 0 -38 2v100q6 -1 23 -1q43 0 58 19.5t15 67.5v291q0 42 -19 64t-72 22q-57 0 -77.5 -23t-20.5 -63v-305h-118v487z" />
    <glyph glyph-name="ntilde" unicode="&#xf1;" horiz-adv-x="540" 
d="M437.5 450.5q47.5 -42.5 47.5 -119.5v-331h-118v305q0 42 -19 64t-72 22q-57 0 -77.5 -23t-20.5 -63v-305h-118v487h107l3 -46q21 25 55 38.5t76 13.5q89 0 136.5 -42.5zM220 675q26 0 62 -14q30 -10 43 -10q22 0 25 28h73q-3 -63 -23 -90t-63 -27q-24 0 -62 14
q-30 10 -42 10q-20 0 -24 -28h-75q6 117 86 117z" />
    <glyph glyph-name="o" unicode="o" horiz-adv-x="503" 
d="M95.5 39.5q-54.5 45.5 -54.5 132.5v142q0 87 55 133t158 46q100 0 154 -46t54 -133v-142q0 -87 -54.5 -132.5t-155.5 -45.5q-102 0 -156.5 45.5zM326 117q18 22 18 64v128q0 43 -17.5 63t-72.5 20q-56 0 -75.5 -21t-19.5 -62v-128q0 -43 19 -64.5t74 -21.5q56 0 74 22z
" />
    <glyph glyph-name="oacute" unicode="&#xf3;" horiz-adv-x="503" 
d="M95.5 39.5q-54.5 45.5 -54.5 132.5v142q0 87 55 133t158 46q100 0 154 -46t54 -133v-142q0 -87 -54.5 -132.5t-155.5 -45.5q-102 0 -156.5 45.5zM326 117q18 22 18 64v128q0 43 -17.5 63t-72.5 20q-56 0 -75.5 -21t-19.5 -62v-128q0 -43 19 -64.5t74 -21.5q56 0 74 22z
M273 689h135l-114 -142h-102z" />
    <glyph glyph-name="obreve" unicode="&#x14f;" horiz-adv-x="503" 
d="M95.5 39.5q-54.5 45.5 -54.5 132.5v142q0 87 55 133t158 46q100 0 154 -46t54 -133v-142q0 -87 -54.5 -132.5t-155.5 -45.5q-102 0 -156.5 45.5zM326 117q18 22 18 64v128q0 43 -17.5 63t-72.5 20q-56 0 -75.5 -21t-19.5 -62v-128q0 -43 19 -64.5t74 -21.5q56 0 74 22z
M163.5 587q-37.5 29 -43.5 92h75q4 -18 20.5 -26.5t38.5 -8.5t38 8.5t20 26.5h75q-6 -63 -43.5 -92t-89.5 -29q-53 0 -90.5 29z" />
    <glyph glyph-name="ocircumflex" unicode="&#xf4;" horiz-adv-x="503" 
d="M95.5 39.5q-54.5 45.5 -54.5 132.5v142q0 87 55 133t158 46q100 0 154 -46t54 -133v-142q0 -87 -54.5 -132.5t-155.5 -45.5q-102 0 -156.5 45.5zM326 117q18 22 18 64v128q0 43 -17.5 63t-72.5 20q-56 0 -75.5 -21t-19.5 -62v-128q0 -43 19 -64.5t74 -21.5q56 0 74 22z
M128 644l78 42q17 9 26.5 12t21.5 3q11 0 20.5 -3t26.5 -12l78 -42v-97l-125 64l-126 -64v97z" />
    <glyph glyph-name="odieresis" unicode="&#xf6;" horiz-adv-x="503" 
d="M95.5 39.5q-54.5 45.5 -54.5 132.5v142q0 87 55 133t158 46q100 0 154 -46t54 -133v-142q0 -87 -54.5 -132.5t-155.5 -45.5q-102 0 -156.5 45.5zM326 117q18 22 18 64v128q0 43 -17.5 63t-72.5 20q-56 0 -75.5 -21t-19.5 -62v-128q0 -43 19 -64.5t74 -21.5q56 0 74 22z
M120 691h102v-121h-102v121zM286 691h102v-121h-102v121z" />
    <glyph glyph-name="ograve" unicode="&#xf2;" horiz-adv-x="503" 
d="M95.5 39.5q-54.5 45.5 -54.5 132.5v142q0 87 55 133t158 46q100 0 154 -46t54 -133v-142q0 -87 -54.5 -132.5t-155.5 -45.5q-102 0 -156.5 45.5zM326 117q18 22 18 64v128q0 43 -17.5 63t-72.5 20q-56 0 -75.5 -21t-19.5 -62v-128q0 -43 19 -64.5t74 -21.5q56 0 74 22z
M93 689h135l81 -142h-102z" />
    <glyph glyph-name="ohungarumlaut" unicode="&#x151;" horiz-adv-x="503" 
d="M95.5 39.5q-54.5 45.5 -54.5 132.5v142q0 87 55 133t158 46q100 0 154 -46t54 -133v-142q0 -87 -54.5 -132.5t-155.5 -45.5q-102 0 -156.5 45.5zM326 117q18 22 18 64v128q0 43 -17.5 63t-72.5 20q-56 0 -75.5 -21t-19.5 -62v-128q0 -43 19 -64.5t74 -21.5q56 0 74 22z
M170 689h127l-103 -142h-90zM344 689h130l-103 -142h-92z" />
    <glyph glyph-name="omacron" unicode="&#x14d;" horiz-adv-x="503" 
d="M95.5 39.5q-54.5 45.5 -54.5 132.5v142q0 87 55 133t158 46q100 0 154 -46t54 -133v-142q0 -87 -54.5 -132.5t-155.5 -45.5q-102 0 -156.5 45.5zM326 117q18 22 18 64v128q0 43 -17.5 63t-72.5 20q-56 0 -75.5 -21t-19.5 -62v-128q0 -43 19 -64.5t74 -21.5q56 0 74 22z
M131 667h246v-90h-246v90z" />
    <glyph glyph-name="oslash" unicode="&#xf8;" horiz-adv-x="503" 
d="M439 409.5q23 -39.5 23 -95.5v-142q0 -87 -54.5 -132.5t-155.5 -45.5q-15 0 -41 2l-22 -64h-87l29 85q-90 43 -90 155v142q0 87 55 133t158 46q14 0 40 -2l22 65h86l-29 -86q43 -21 66 -60.5zM169 128l91 264h-6q-56 0 -75.5 -21t-19.5 -62v-128q0 -35 10 -53zM344 309
q0 34 -9 51l-90 -265h7q56 0 74 22t18 64v128z" />
    <glyph glyph-name="oslashacute" unicode="&#x1ff;" horiz-adv-x="503" 
d="M439 409.5q23 -39.5 23 -95.5v-142q0 -87 -54.5 -132.5t-155.5 -45.5q-15 0 -41 2l-22 -64h-87l29 85q-90 43 -90 155v142q0 87 55 133t158 46q14 0 40 -2l22 65h86l-29 -86q43 -21 66 -60.5zM169 128l91 264h-6q-56 0 -75.5 -21t-19.5 -62v-128q0 -35 10 -53zM344 309
q0 34 -9 51l-90 -265h7q56 0 74 22t18 64v128zM229 689h135l-114 -142h-102z" />
    <glyph glyph-name="otilde" unicode="&#xf5;" horiz-adv-x="503" 
d="M95.5 39.5q-54.5 45.5 -54.5 132.5v142q0 87 55 133t158 46q100 0 154 -46t54 -133v-142q0 -87 -54.5 -132.5t-155.5 -45.5q-102 0 -156.5 45.5zM326 117q18 22 18 64v128q0 43 -17.5 63t-72.5 20q-56 0 -75.5 -21t-19.5 -62v-128q0 -43 19 -64.5t74 -21.5q56 0 74 22z
M191 675q26 0 62 -14q30 -10 43 -10q22 0 25 28h73q-3 -63 -23 -90t-63 -27q-24 0 -62 14q-30 10 -42 10q-20 0 -24 -28h-75q6 117 86 117z" />
    <glyph glyph-name="oe" unicode="&#x153;" horiz-adv-x="802" 
d="M461 210v-31q0 -51 22 -71t73 -20q43 0 65.5 19t22.5 53h116v-7q0 -76 -54 -117.5t-155 -41.5q-48 0 -87 14.5t-65 39.5q-61 -54 -151 -54q-207 0 -207 178v142q0 87 54.5 133t154.5 46q91 0 154 -54q61 54 155 54q99 0 151.5 -43.5t52.5 -128.5v-81q0 -30 -31 -30h-271z
M483 376q-22 -23 -22 -68v-15h185v19q0 87 -92 87q-49 0 -71 -23zM344 309q0 43 -17 63t-71 20q-58 0 -77.5 -21t-19.5 -62v-128q0 -43 19 -64.5t74 -21.5q56 0 74 22t18 64v128z" />
    <glyph glyph-name="p" unicode="p" horiz-adv-x="528" 
d="M437 449.5q50 -43.5 50 -119.5v-158q0 -83 -50 -130.5t-138 -47.5q-79 0 -121 33v-208h-118v668h103l4 -41q20 23 53.5 35t78.5 12q88 0 138 -43.5zM369 306q0 39 -24.5 62.5t-67.5 23.5q-46 0 -72.5 -23t-26.5 -63v-125q0 -44 24 -65t75 -21q48 0 70 21t22 64v126z" />
    <glyph glyph-name="thorn" unicode="&#xfe;" horiz-adv-x="528" 
d="M437 449.5q50 -43.5 50 -119.5v-158q0 -83 -50 -130.5t-138 -47.5q-76 0 -121 33v-208h-118v849h118v-213q43 38 121 38q88 0 138 -43.5zM369 306q0 39 -24.5 62.5t-67.5 23.5q-46 0 -72.5 -23t-26.5 -63v-125q0 -44 24 -65t75 -21q48 0 70 21t22 64v126z" />
    <glyph glyph-name="q" unicode="q" horiz-adv-x="528" 
d="M468 487v-668h-118v211q-42 -36 -121 -36q-88 0 -138 43.5t-50 119.5v158q0 83 50 130.5t138 47.5q44 0 77.5 -12.5t53.5 -34.5l3 41h105zM323.5 118q26.5 23 26.5 63v125q0 44 -24 65t-75 21q-48 0 -70 -21t-22 -64v-126q0 -39 24.5 -62.5t67.5 -23.5q46 0 72.5 23z" />
    <glyph glyph-name="r" unicode="r" horiz-adv-x="363" 
d="M345 490v-105q-14 2 -31 2q-77 0 -106.5 -28.5t-29.5 -78.5v-280h-118v487h110l3 -53q23 29 56 44t74 15q26 0 42 -3z" />
    <glyph glyph-name="racute" unicode="&#x155;" horiz-adv-x="363" 
d="M345 490v-105q-14 2 -31 2q-77 0 -106.5 -28.5t-29.5 -78.5v-280h-118v487h110l3 -53q23 29 56 44t74 15q26 0 42 -3zM228 689h135l-114 -142h-102z" />
    <glyph glyph-name="rcaron" unicode="&#x159;" horiz-adv-x="363" 
d="M345 490v-105q-14 2 -31 2q-77 0 -106.5 -28.5t-29.5 -78.5v-280h-118v487h110l3 -53q23 29 56 44t74 15q26 0 42 -3zM187.5 548q-9.5 3 -26.5 12l-78 42v97l126 -64l125 64v-97l-78 -42q-17 -9 -26.5 -12t-20.5 -3q-12 0 -21.5 3z" />
    <glyph glyph-name="rcommaaccent" unicode="&#x157;" horiz-adv-x="363" 
d="M345 490v-105q-14 2 -31 2q-77 0 -106.5 -28.5t-29.5 -78.5v-280h-118v487h110l3 -53q23 29 56 44t74 15q26 0 42 -3zM68 -53h96v-70l-37 -132h-59v202z" />
    <glyph glyph-name="s" unicode="s" horiz-adv-x="465" 
d="M104.5 34q-52.5 40 -52.5 112v20h112v-11q0 -30 23 -46.5t62 -16.5q36 0 52 10.5t16 33.5q0 19 -16.5 31t-64.5 27l-40 12q-79 23 -112.5 55t-33.5 92q0 63 52 101.5t139 38.5q88 0 136.5 -42t48.5 -118v-11h-112v12q0 61 -79 61q-32 0 -49.5 -11t-17.5 -31
q0 -15 7 -23.5t24 -15.5t53 -18l42 -13q79 -24 110 -56.5t31 -86.5q0 -68 -49.5 -107t-137.5 -39q-91 0 -143.5 40z" />
    <glyph glyph-name="sacute" unicode="&#x15b;" horiz-adv-x="465" 
d="M104.5 34q-52.5 40 -52.5 112v20h112v-11q0 -30 23 -46.5t62 -16.5q36 0 52 10.5t16 33.5q0 19 -16.5 31t-64.5 27l-40 12q-79 23 -112.5 55t-33.5 92q0 63 52 101.5t139 38.5q88 0 136.5 -42t48.5 -118v-11h-112v12q0 61 -79 61q-32 0 -49.5 -11t-17.5 -31
q0 -15 7 -23.5t24 -15.5t53 -18l42 -13q79 -24 110 -56.5t31 -86.5q0 -68 -49.5 -107t-137.5 -39q-91 0 -143.5 40zM260 689h135l-114 -142h-102z" />
    <glyph glyph-name="scaron" unicode="&#x161;" horiz-adv-x="465" 
d="M104.5 34q-52.5 40 -52.5 112v20h112v-11q0 -30 23 -46.5t62 -16.5q36 0 52 10.5t16 33.5q0 19 -16.5 31t-64.5 27l-40 12q-79 23 -112.5 55t-33.5 92q0 63 52 101.5t139 38.5q88 0 136.5 -42t48.5 -118v-11h-112v12q0 61 -79 61q-32 0 -49.5 -11t-17.5 -31
q0 -15 7 -23.5t24 -15.5t53 -18l42 -13q79 -24 110 -56.5t31 -86.5q0 -68 -49.5 -107t-137.5 -39q-91 0 -143.5 40zM219.5 548q-9.5 3 -26.5 12l-78 42v97l126 -64l125 64v-97l-78 -42q-17 -9 -26.5 -12t-20.5 -3q-12 0 -21.5 3z" />
    <glyph glyph-name="scedilla" unicode="&#x15f;" horiz-adv-x="465" 
d="M104.5 34q-52.5 40 -52.5 112v20h112v-11q0 -30 23 -46.5t62 -16.5q36 0 52 10.5t16 33.5q0 19 -16.5 31t-64.5 27l-40 12q-79 23 -112.5 55t-33.5 92q0 63 52 101.5t139 38.5q88 0 136.5 -42t48.5 -118v-11h-112v12q0 61 -79 61q-32 0 -49.5 -11t-17.5 -31
q0 -15 7 -23.5t24 -15.5t53 -18l42 -13q79 -24 110 -56.5t31 -86.5q0 -68 -49.5 -107t-137.5 -39q-91 0 -143.5 40zM202 -110q9 -3 26 -6t32 -3q19 0 26 4.5t7 15.5q0 9 -5.5 13.5t-19.5 4.5h-46q-20 0 -20 16q0 9 5 37l9 51h68l-7 -46h10q36 0 59 -18t23 -58
q0 -41 -27.5 -63t-76.5 -22q-41 0 -77 12z" />
    <glyph glyph-name="scircumflex" unicode="&#x15d;" horiz-adv-x="465" 
d="M104.5 34q-52.5 40 -52.5 112v20h112v-11q0 -30 23 -46.5t62 -16.5q36 0 52 10.5t16 33.5q0 19 -16.5 31t-64.5 27l-40 12q-79 23 -112.5 55t-33.5 92q0 63 52 101.5t139 38.5q88 0 136.5 -42t48.5 -118v-11h-112v12q0 61 -79 61q-32 0 -49.5 -11t-17.5 -31
q0 -15 7 -23.5t24 -15.5t53 -18l42 -13q79 -24 110 -56.5t31 -86.5q0 -68 -49.5 -107t-137.5 -39q-91 0 -143.5 40zM115 644l78 42q17 9 26.5 12t21.5 3q11 0 20.5 -3t26.5 -12l78 -42v-97l-125 64l-126 -64v97z" />
    <glyph glyph-name="scommaaccent" unicode="&#x219;" horiz-adv-x="465" 
d="M104.5 34q-52.5 40 -52.5 112v20h112v-11q0 -30 23 -46.5t62 -16.5q36 0 52 10.5t16 33.5q0 19 -16.5 31t-64.5 27l-40 12q-79 23 -112.5 55t-33.5 92q0 63 52 101.5t139 38.5q88 0 136.5 -42t48.5 -118v-11h-112v12q0 61 -79 61q-32 0 -49.5 -11t-17.5 -31
q0 -15 7 -23.5t24 -15.5t53 -18l42 -13q79 -24 110 -56.5t31 -86.5q0 -68 -49.5 -107t-137.5 -39q-91 0 -143.5 40zM195 -53h96v-70l-37 -132h-59v202z" />
    <glyph glyph-name="germandbls" unicode="&#xdf;" horiz-adv-x="540" 
d="M247.5 33q-39.5 39 -39.5 117h109q0 -60 46 -60q19 0 28.5 11.5t9.5 29.5q0 22 -9 36t-28 27l-55 39q-62 44 -62 90q0 22 10 41t35 44l27 27q25 25 25 47q0 24 -23 38t-60 14q-48 0 -69.5 -20t-21.5 -65v-449h-117v465q0 82 54 123.5t158 41.5q86 0 141.5 -38t55.5 -101
q0 -23 -8 -41.5t-30 -40.5l-28 -28q-25 -25 -25 -39q0 -10 6 -17.5t26 -22.5l51 -39q33 -25 49 -53.5t16 -66.5q0 -69 -41 -109t-119 -40q-72 0 -111.5 39z" />
    <glyph glyph-name="longs" unicode="&#x17f;" horiz-adv-x="315" 
d="M305 674v-98q-11 3 -35 3q-68 0 -68 -65v-514h-118v389h-59v98h59v43q0 150 162 150q32 0 59 -6z" />
    <glyph glyph-name="t" unicode="t" horiz-adv-x="367" 
d="M208 389v-206q0 -43 21.5 -65t67.5 -22q9 0 27 2v-101q-25 -3 -45 -3q-97 0 -143 42.5t-46 133.5v219h-80v98h80v118h118v-118h119v-98h-119z" />
    <glyph glyph-name="tbar" unicode="&#x167;" horiz-adv-x="367" 
d="M208 389v-101h84v-88h-84v-17q0 -43 21.5 -65t67.5 -22q9 0 27 2v-101q-25 -3 -45 -3q-97 0 -143 42.5t-46 133.5v30h-76v88h76v101h-80v98h80v118h118v-118h119v-98h-119z" />
    <glyph glyph-name="tcaron" unicode="&#x165;" horiz-adv-x="367" 
d="M360 694v-70l-37 -108h-59v178h96zM208 487h119v-98h-119v-206q0 -43 21.5 -65t67.5 -22q9 0 27 2v-101q-25 -3 -45 -3q-97 0 -143 42.5t-46 133.5v219h-80v98h80v118h118v-118z" />
    <glyph glyph-name="uni0163" unicode="&#x163;" horiz-adv-x="367" 
d="M208 389v-206q0 -43 21.5 -65t67.5 -22q9 0 27 2v-101q-25 -3 -45 -3q-97 0 -143 42.5t-46 133.5v219h-80v98h80v118h118v-118h119v-98h-119zM173 -53h96v-70l-37 -132h-59v202z" />
    <glyph glyph-name="uni021B" unicode="&#x21b;" horiz-adv-x="367" 
d="M208 389v-206q0 -43 21.5 -65t67.5 -22q9 0 27 2v-101q-25 -3 -45 -3q-97 0 -143 42.5t-46 133.5v219h-80v98h80v118h118v-118h119v-98h-119zM173 -53h96v-70l-37 -132h-59v202z" />
    <glyph glyph-name="u" unicode="u" horiz-adv-x="529" 
d="M469 487v-487h-107l-3 45q-19 -25 -52 -38t-74 -13q-86 0 -132 44t-46 125v324h118v-298q0 -46 17.5 -69.5t67.5 -23.5q55 0 74 24.5t19 68.5v298h118z" />
    <glyph glyph-name="uacute" unicode="&#xfa;" horiz-adv-x="529" 
d="M469 487v-487h-107l-3 45q-19 -25 -52 -38t-74 -13q-86 0 -132 44t-46 125v324h118v-298q0 -46 17.5 -69.5t67.5 -23.5q55 0 74 24.5t19 68.5v298h118zM281 689h135l-114 -142h-102z" />
    <glyph glyph-name="ubreve" unicode="&#x16d;" horiz-adv-x="529" 
d="M469 487v-487h-107l-3 45q-19 -25 -52 -38t-74 -13q-86 0 -132 44t-46 125v324h118v-298q0 -46 17.5 -69.5t67.5 -23.5q55 0 74 24.5t19 68.5v298h118zM171.5 587q-37.5 29 -43.5 92h75q4 -18 20.5 -26.5t38.5 -8.5t38 8.5t20 26.5h75q-6 -63 -43.5 -92t-89.5 -29
q-53 0 -90.5 29z" />
    <glyph glyph-name="ucircumflex" unicode="&#xfb;" horiz-adv-x="529" 
d="M469 487v-487h-107l-3 45q-19 -25 -52 -38t-74 -13q-86 0 -132 44t-46 125v324h118v-298q0 -46 17.5 -69.5t67.5 -23.5q55 0 74 24.5t19 68.5v298h118zM136 644l78 42q17 9 26.5 12t21.5 3q11 0 20.5 -3t26.5 -12l78 -42v-97l-125 64l-126 -64v97z" />
    <glyph glyph-name="udieresis" unicode="&#xfc;" horiz-adv-x="529" 
d="M469 487v-487h-107l-3 45q-19 -25 -52 -38t-74 -13q-86 0 -132 44t-46 125v324h118v-298q0 -46 17.5 -69.5t67.5 -23.5q55 0 74 24.5t19 68.5v298h118zM128 691h102v-121h-102v121zM294 691h102v-121h-102v121z" />
    <glyph glyph-name="ugrave" unicode="&#xf9;" horiz-adv-x="529" 
d="M469 487v-487h-107l-3 45q-19 -25 -52 -38t-74 -13q-86 0 -132 44t-46 125v324h118v-298q0 -46 17.5 -69.5t67.5 -23.5q55 0 74 24.5t19 68.5v298h118zM101 689h135l81 -142h-102z" />
    <glyph glyph-name="uhungarumlaut" unicode="&#x171;" horiz-adv-x="529" 
d="M469 487v-487h-107l-3 45q-19 -25 -52 -38t-74 -13q-86 0 -132 44t-46 125v324h118v-298q0 -46 17.5 -69.5t67.5 -23.5q55 0 74 24.5t19 68.5v298h118zM178 689h127l-103 -142h-90zM352 689h130l-103 -142h-92z" />
    <glyph glyph-name="umacron" unicode="&#x16b;" horiz-adv-x="529" 
d="M469 487v-487h-107l-3 45q-19 -25 -52 -38t-74 -13q-86 0 -132 44t-46 125v324h118v-298q0 -46 17.5 -69.5t67.5 -23.5q55 0 74 24.5t19 68.5v298h118zM139 667h246v-90h-246v90z" />
    <glyph glyph-name="uogonek" unicode="&#x173;" horiz-adv-x="529" 
d="M469 487v-487h-107l-3 45q-19 -25 -52 -38t-74 -13q-86 0 -132 44t-46 125v324h118v-298q0 -46 17.5 -69.5t67.5 -23.5q55 0 74 24.5t19 68.5v298h118zM346 -151q-26 23 -26 61q0 39 24 73t75 65l50 -48q-35 -23 -47 -40.5t-12 -32.5q0 -12 7.5 -19t21.5 -7q18 0 41 10
v-68q-34 -17 -72 -17q-36 0 -62 23z" />
    <glyph glyph-name="uring" unicode="&#x16f;" horiz-adv-x="529" 
d="M469 487v-487h-107l-3 45q-19 -25 -52 -38t-74 -13q-86 0 -132 44t-46 125v324h118v-298q0 -46 17.5 -69.5t67.5 -23.5q55 0 74 24.5t19 68.5v298h118zM182.5 554.5q-28.5 28.5 -28.5 71.5t28.5 71.5t79.5 28.5t80 -28.5t29 -71.5t-29 -71.5t-80 -28.5t-79.5 28.5z
M286 602q8 9 8 24t-8 24t-24 9t-24 -9.5t-8 -23.5t8 -23.5t24 -9.5t24 9z" />
    <glyph glyph-name="utilde" unicode="&#x169;" horiz-adv-x="529" 
d="M469 487v-487h-107l-3 45q-19 -25 -52 -38t-74 -13q-86 0 -132 44t-46 125v324h118v-298q0 -46 17.5 -69.5t67.5 -23.5q55 0 74 24.5t19 68.5v298h118zM199 675q26 0 62 -14q30 -10 43 -10q22 0 25 28h73q-3 -63 -23 -90t-63 -27q-24 0 -62 14q-30 10 -42 10
q-20 0 -24 -28h-75q6 117 86 117z" />
    <glyph glyph-name="v" unicode="v" horiz-adv-x="501" 
d="M485 487l-181 -487h-107l-181 487h126l113 -326l113 326h117z" />
    <glyph glyph-name="w" unicode="w" horiz-adv-x="731" 
d="M708 487l-148 -487h-107l-88 276l-88 -276h-108l-146 487h125l84 -331l106 331h64l104 -327l86 327h116z" />
    <glyph glyph-name="wacute" unicode="&#x1e83;" horiz-adv-x="731" 
d="M708 487l-148 -487h-107l-88 276l-88 -276h-108l-146 487h125l84 -331l106 331h64l104 -327l86 327h116zM385 689h135l-114 -142h-102z" />
    <glyph glyph-name="wcircumflex" unicode="&#x175;" horiz-adv-x="731" 
d="M708 487l-148 -487h-107l-88 276l-88 -276h-108l-146 487h125l84 -331l106 331h64l104 -327l86 327h116zM240 644l78 42q17 9 26.5 12t21.5 3q11 0 20.5 -3t26.5 -12l78 -42v-97l-125 64l-126 -64v97z" />
    <glyph glyph-name="wdieresis" unicode="&#x1e85;" horiz-adv-x="731" 
d="M708 487l-148 -487h-107l-88 276l-88 -276h-108l-146 487h125l84 -331l106 331h64l104 -327l86 327h116zM232 691h102v-121h-102v121zM398 691h102v-121h-102v121z" />
    <glyph glyph-name="wgrave" unicode="&#x1e81;" horiz-adv-x="731" 
d="M708 487l-148 -487h-107l-88 276l-88 -276h-108l-146 487h125l84 -331l106 331h64l104 -327l86 327h116zM205 689h135l81 -142h-102z" />
    <glyph glyph-name="x" unicode="x" horiz-adv-x="471" 
d="M298 244l153 -244h-126l-93 148l-90 -148h-122l153 243l-153 244h126l93 -148l90 148h122z" />
    <glyph glyph-name="y" unicode="y" horiz-adv-x="511" 
d="M495 487l-182 -511q-24 -68 -50 -104t-60.5 -50.5t-86.5 -14.5q-29 0 -62 6v101q30 -5 55 -5q35 0 56 15.5t36 52.5l9 23l-195 487h126l130 -316l107 316h117z" />
    <glyph glyph-name="yacute" unicode="&#xfd;" horiz-adv-x="511" 
d="M495 487l-182 -511q-24 -68 -50 -104t-60.5 -50.5t-86.5 -14.5q-29 0 -62 6v101q30 -5 55 -5q35 0 56 15.5t36 52.5l9 23l-195 487h126l130 -316l107 316h117zM286 689h135l-114 -142h-102z" />
    <glyph glyph-name="ycircumflex" unicode="&#x177;" horiz-adv-x="511" 
d="M495 487l-182 -511q-24 -68 -50 -104t-60.5 -50.5t-86.5 -14.5q-29 0 -62 6v101q30 -5 55 -5q35 0 56 15.5t36 52.5l9 23l-195 487h126l130 -316l107 316h117zM141 644l78 42q17 9 26.5 12t21.5 3q11 0 20.5 -3t26.5 -12l78 -42v-97l-125 64l-126 -64v97z" />
    <glyph glyph-name="ydieresis" unicode="&#xff;" horiz-adv-x="511" 
d="M495 487l-182 -511q-24 -68 -50 -104t-60.5 -50.5t-86.5 -14.5q-29 0 -62 6v101q30 -5 55 -5q35 0 56 15.5t36 52.5l9 23l-195 487h126l130 -316l107 316h117zM133 691h102v-121h-102v121zM299 691h102v-121h-102v121z" />
    <glyph glyph-name="ygrave" unicode="&#x1ef3;" horiz-adv-x="511" 
d="M495 487l-182 -511q-24 -68 -50 -104t-60.5 -50.5t-86.5 -14.5q-29 0 -62 6v101q30 -5 55 -5q35 0 56 15.5t36 52.5l9 23l-195 487h126l130 -316l107 316h117zM106 689h135l81 -142h-102z" />
    <glyph glyph-name="z" unicode="z" horiz-adv-x="439" 
d="M411 92v-92h-383v81l237 314h-225v92h365v-79l-238 -316h244z" />
    <glyph glyph-name="zacute" unicode="&#x17a;" horiz-adv-x="439" 
d="M411 92v-92h-383v81l237 314h-225v92h365v-79l-238 -316h244zM239 689h135l-114 -142h-102z" />
    <glyph glyph-name="zcaron" unicode="&#x17e;" horiz-adv-x="439" 
d="M411 92v-92h-383v81l237 314h-225v92h365v-79l-238 -316h244zM198.5 548q-9.5 3 -26.5 12l-78 42v97l126 -64l125 64v-97l-78 -42q-17 -9 -26.5 -12t-20.5 -3q-12 0 -21.5 3z" />
    <glyph glyph-name="zdotaccent" unicode="&#x17c;" horiz-adv-x="439" 
d="M411 92v-92h-383v81l237 314h-225v92h365v-79l-238 -316h244zM167 691h106v-126h-106v126z" />
    <glyph glyph-name="cacute.loclPLK" horiz-adv-x="478" 
d="M92.5 38.5q-51.5 44.5 -51.5 132.5v142q0 180 204 180q110 0 156.5 -45t46.5 -125v-10h-118v8q0 34 -21.5 52.5t-63.5 18.5q-86 0 -86 -83v-131q0 -83 86 -83q42 0 63 18.5t21 52.5h119v-2q0 -170 -203 -170q-101 0 -152.5 44.5zM234 689h130l-80 -142h-96z" />
    <glyph glyph-name="nacute.loclPLK" horiz-adv-x="540" 
d="M437.5 450.5q47.5 -42.5 47.5 -119.5v-331h-118v305q0 42 -19 64t-72 22q-57 0 -77.5 -23t-20.5 -63v-305h-118v487h107l3 -46q21 25 55 38.5t76 13.5q89 0 136.5 -42.5zM272 689h130l-80 -142h-96z" />
    <glyph glyph-name="oacute.loclPLK" horiz-adv-x="503" 
d="M95.5 39.5q-54.5 45.5 -54.5 132.5v142q0 87 55 133t158 46q100 0 154 -46t54 -133v-142q0 -87 -54.5 -132.5t-155.5 -45.5q-102 0 -156.5 45.5zM326 117q18 22 18 64v128q0 43 -17.5 63t-72.5 20q-56 0 -75.5 -21t-19.5 -62v-128q0 -43 19 -64.5t74 -21.5q56 0 74 22z
M243 689h130l-80 -142h-96z" />
    <glyph glyph-name="sacute.loclPLK" horiz-adv-x="465" 
d="M104.5 34q-52.5 40 -52.5 112v20h112v-11q0 -30 23 -46.5t62 -16.5q36 0 52 10.5t16 33.5q0 19 -16.5 31t-64.5 27l-40 12q-79 23 -112.5 55t-33.5 92q0 63 52 101.5t139 38.5q88 0 136.5 -42t48.5 -118v-11h-112v12q0 61 -79 61q-32 0 -49.5 -11t-17.5 -31
q0 -15 7 -23.5t24 -15.5t53 -18l42 -13q79 -24 110 -56.5t31 -86.5q0 -68 -49.5 -107t-137.5 -39q-91 0 -143.5 40zM230 689h130l-80 -142h-96z" />
    <glyph glyph-name="zacute.loclPLK" horiz-adv-x="439" 
d="M411 92v-92h-383v81l237 314h-225v92h365v-79l-238 -316h244zM209 689h130l-80 -142h-96z" />
    <glyph glyph-name="fi" unicode="&#xfb01;" horiz-adv-x="568" 
d="M230 563q-17 -16 -17 -49v-27h93v-98h-93v-389h-118v389h-70v98h70v43q0 70 38.5 110t121.5 40q34 0 61 -6v-98q-11 3 -40 3t-46 -16zM388 668h118v-106h-118v106zM388 487h118v-487h-118v487z" />
    <glyph glyph-name="fl" unicode="&#xfb02;" horiz-adv-x="604" 
d="M230 563q-17 -16 -17 -49v-27h93v-98h-93v-389h-118v389h-70v98h70v43q0 70 38.5 110t121.5 40q34 0 61 -6v-98q-11 3 -40 3t-46 -16zM381 142v526h118v-485q0 -45 13 -64.5t51 -19.5q16 0 21 1v-101q-27 -5 -57 -5q-146 0 -146 148z" />
    <glyph glyph-name="ordfeminine" unicode="&#xaa;" horiz-adv-x="321" 
d="M261 601q35 -29 35 -84v-202h-84l-2 25q-31 -31 -92 -31q-49 0 -78.5 26t-29.5 67q0 94 126 94h70v8q0 30 -11.5 44.5t-36.5 14.5q-22 0 -35 -11.5t-13 -33.5h-90v5q0 50 36.5 78.5t102.5 28.5q67 0 102 -29zM206 440v1h-62q-44 0 -44 -33q0 -17 12 -26t36 -9q58 0 58 67
z" />
    <glyph glyph-name="ordmasculine" unicode="&#xba;" horiz-adv-x="312" 
d="M51.5 344.5q-36.5 35.5 -36.5 98.5v53q0 63 36.5 98.5t104.5 35.5t104.5 -35.5t36.5 -98.5v-53q0 -63 -36.5 -98.5t-104.5 -35.5t-104.5 35.5zM195 407.5q12 13.5 12 41.5v42q0 28 -12 41t-39 13t-39 -13.5t-12 -41.5v-42q0 -28 12 -41t39 -13t39 13.5z" />
    <glyph glyph-name="uni0394" unicode="&#x394;" horiz-adv-x="702" 
d="M657 66v-66h-612v66l257 558h94zM178 101h343l-172 365z" />
    <glyph glyph-name="uni03A9" unicode="&#x3a9;" horiz-adv-x="780" 
d="M682 110v-110h-267v87q52 31 79 59t37 59.5t10 76.5v108q0 124 -151 124q-76 0 -113.5 -32t-37.5 -92v-108q0 -43 9.5 -74.5t37 -60.5t79.5 -60v-87h-267v110h102q-86 62 -86 171v110q0 115 73 177t203 62q131 0 203.5 -62.5t72.5 -176.5v-110q0 -55 -20.5 -96.5
t-65.5 -74.5h102z" />
    <glyph glyph-name="uni03BC" unicode="&#x3bc;" horiz-adv-x="535" 
d="M480 487v-487h-107l-2 31q-40 -37 -104 -37q-65 0 -106 35l12 -231h-118v689h118v-306q0 -42 20 -64t75 -22q57 0 75.5 23.5t18.5 62.5v306h118z" />
    <glyph glyph-name="pi" unicode="&#x3c0;" horiz-adv-x="672" 
d="M614 376h-91v-376h-111v376h-153v-376h-111v376h-90v111h556v-111z" />
    <glyph glyph-name="zero" unicode="0" horiz-adv-x="614" 
d="M121 55q-61 61 -61 181v149q0 120 62 182.5t185 62.5q126 0 186.5 -60.5t60.5 -181.5v-149q0 -120 -62 -182.5t-185 -62.5q-125 0 -186 61zM379.5 123.5q26.5 13.5 38 45.5t11.5 89v108q0 57 -11.5 89t-38 45.5t-72.5 13.5q-47 0 -73 -13.5t-37.5 -45.5t-11.5 -89v-108
q0 -57 11.5 -89t37.5 -45.5t73 -13.5q46 0 72.5 13.5z" />
    <glyph glyph-name="one" unicode="1" horiz-adv-x="528" 
d="M488 101v-101h-429v101h168v401l-168 -53v106l218 69h75v-523h136z" />
    <glyph glyph-name="two" unicode="2" horiz-adv-x="568" 
d="M232 110h273v-110h-448v100l215 172q59 47 83.5 81t24.5 74q0 42 -26 64.5t-74 22.5q-63 0 -86.5 -26.5t-23.5 -75.5v-10h-125v14q0 106 61 160t181 54q102 0 164 -51t62 -143q0 -66 -35.5 -116.5t-109.5 -106.5z" />
    <glyph glyph-name="three" unicode="3" horiz-adv-x="582" 
d="M505 277q27 -36 27 -92q0 -84 -60.5 -137.5t-182.5 -53.5q-116 0 -178.5 50.5t-63.5 152.5h127q1 -44 34.5 -66t85.5 -22q54 0 82 20t28 59q0 77 -117 77h-65v101h58q104 0 104 75q0 36 -27 55t-73 19q-51 0 -81.5 -23.5t-30.5 -67.5v-5h-127v6q0 100 65 152.5t177 52.5
q70 0 121 -23t78 -62t27 -86q0 -92 -84 -131q49 -15 76 -51z" />
    <glyph glyph-name="four" unicode="4" horiz-adv-x="600" 
d="M580 143h-108v-143h-122v143h-320v86l210 395h137l-202 -372h175v144h122v-144h108v-109z" />
    <glyph glyph-name="five" unicode="5" horiz-adv-x="570" 
d="M470.5 359.5q64.5 -47.5 64.5 -151.5q0 -100 -64 -157t-175 -57q-113 0 -177 51.5t-64 151.5h126q0 -46 30 -70t87 -24q54 0 80.5 26t26.5 74q0 53 -36 74.5t-119 21.5h-176v325h404v-108h-278v-109h75q131 0 195.5 -47.5z" />
    <glyph glyph-name="six" unicode="6" horiz-adv-x="574" 
d="M481 360q58 -56 58 -148q0 -102 -69 -160t-189 -58q-113 0 -179.5 56t-66.5 153q0 52 16.5 95.5t62.5 104.5l167 221h132l-166 -218q31 10 79 10q97 0 155 -56zM378 132.5q33 27.5 33 76.5q0 48 -32.5 75t-91.5 27q-58 0 -90.5 -27.5t-32.5 -74.5q0 -50 32 -77t91 -27
q58 0 91 27.5z" />
    <glyph glyph-name="seven" unicode="7" horiz-adv-x="499" 
d="M479 624v-95l-255 -529h-134l251 513h-321v111h459z" />
    <glyph glyph-name="eight" unicode="8" horiz-adv-x="592" 
d="M544 184q0 -90 -65 -140t-183 -50t-183 49.5t-65 138.5q0 99 97 146q-37 18 -59 52.5t-22 76.5q0 80 62.5 126.5t169.5 46.5t169.5 -46.5t62.5 -126.5q0 -42 -22.5 -76.5t-59.5 -51.5q98 -48 98 -145zM216.5 505q-27.5 -19 -27.5 -55q0 -37 28 -55.5t81 -18.5q51 0 78 19
t27 55t-27.5 55t-79.5 19t-79.5 -19zM383.5 123.5q31.5 23.5 31.5 63.5q0 39 -31 61.5t-86 22.5q-57 0 -89 -22.5t-32 -61.5q0 -40 31.5 -63.5t87.5 -23.5t87.5 23.5z" />
    <glyph glyph-name="nine" unicode="9" horiz-adv-x="574" 
d="M472 574q67 -56 67 -152q0 -51 -18.5 -98.5t-60.5 -102.5l-167 -221h-132l166 217q-31 -9 -65 -9q-73 0 -126.5 28.5t-79.5 81.5q-21 45 -21 98v1v2q0 97 68.5 154t187.5 57q114 0 181 -56zM378 340.5q33 27.5 33 74.5q0 50 -32.5 77t-91.5 27q-58 0 -91 -27.5t-33 -75.5
q0 -49 32.5 -76t91.5 -27q58 0 91 27.5z" />
    <glyph glyph-name="zero.tf" horiz-adv-x="642" 
d="M135 55q-61 61 -61 181v149q0 120 62 182.5t185 62.5q126 0 186.5 -60.5t60.5 -181.5v-149q0 -120 -62 -182.5t-185 -62.5q-125 0 -186 61zM393.5 123.5q26.5 13.5 38 45.5t11.5 89v108q0 57 -11.5 89t-38 45.5t-72.5 13.5q-47 0 -73 -13.5t-37.5 -45.5t-11.5 -89v-108
q0 -57 11.5 -89t37.5 -45.5t73 -13.5q46 0 72.5 13.5z" />
    <glyph glyph-name="one.tf" horiz-adv-x="642" 
d="M547 101v-101h-429v101h168v401l-168 -53v106l218 69h75v-523h136z" />
    <glyph glyph-name="two.tf" horiz-adv-x="642" 
d="M275 110h273v-110h-448v100l215 172q59 47 83.5 81t24.5 74q0 42 -26 64.5t-74 22.5q-63 0 -86.5 -26.5t-23.5 -75.5v-10h-125v14q0 106 61 160t181 54q102 0 164 -51t62 -143q0 -66 -35.5 -116.5t-109.5 -106.5z" />
    <glyph glyph-name="three.tf" horiz-adv-x="642" 
d="M541 277q27 -36 27 -92q0 -84 -60.5 -137.5t-182.5 -53.5q-116 0 -178.5 50.5t-63.5 152.5h127q1 -44 34.5 -66t85.5 -22q54 0 82 20t28 59q0 77 -117 77h-65v101h58q104 0 104 75q0 36 -27 55t-73 19q-51 0 -81.5 -23.5t-30.5 -67.5v-5h-127v6q0 100 65 152.5t177 52.5
q70 0 121 -23t78 -62t27 -86q0 -92 -84 -131q49 -15 76 -51z" />
    <glyph glyph-name="four.tf" horiz-adv-x="642" 
d="M600 143h-108v-143h-122v143h-320v86l210 395h137l-202 -372h175v144h122v-144h108v-109z" />
    <glyph glyph-name="five.tf" horiz-adv-x="642" 
d="M510.5 359.5q64.5 -47.5 64.5 -151.5q0 -100 -64 -157t-175 -57q-113 0 -177 51.5t-64 151.5h126q0 -46 30 -70t87 -24q54 0 80.5 26t26.5 74q0 53 -36 74.5t-119 21.5h-176v325h404v-108h-278v-109h75q131 0 195.5 -47.5z" />
    <glyph glyph-name="six.tf" horiz-adv-x="642" 
d="M514 360q58 -56 58 -148q0 -102 -69 -160t-189 -58q-113 0 -179.5 56t-66.5 153q0 52 16.5 95.5t62.5 104.5l167 221h132l-166 -218q31 10 79 10q97 0 155 -56zM411 132.5q33 27.5 33 76.5q0 48 -32.5 75t-91.5 27q-58 0 -90.5 -27.5t-32.5 -74.5q0 -50 32 -77t91 -27
q58 0 91 27.5z" />
    <glyph glyph-name="seven.tf" horiz-adv-x="642" 
d="M566 624v-95l-290 -529h-134l283 513h-353v111h494z" />
    <glyph glyph-name="eight.tf" horiz-adv-x="642" 
d="M569 184q0 -90 -65 -140t-183 -50t-183 49.5t-65 138.5q0 99 97 146q-37 18 -59 52.5t-22 76.5q0 80 62.5 126.5t169.5 46.5t169.5 -46.5t62.5 -126.5q0 -42 -22.5 -76.5t-59.5 -51.5q98 -48 98 -145zM241.5 505q-27.5 -19 -27.5 -55q0 -37 28 -55.5t81 -18.5q51 0 78 19
t27 55t-27.5 55t-79.5 19t-79.5 -19zM408.5 123.5q31.5 23.5 31.5 63.5q0 39 -31 61.5t-86 22.5q-57 0 -89 -22.5t-32 -61.5q0 -40 31.5 -63.5t87.5 -23.5t87.5 23.5z" />
    <glyph glyph-name="nine.tf" horiz-adv-x="642" 
d="M506 574q67 -56 67 -152q0 -51 -18.5 -98.5t-60.5 -102.5l-167 -221h-132l166 217q-31 -9 -65 -9q-102 0 -164.5 56t-62.5 152q0 99 69 156.5t187 57.5q114 0 181 -56zM412 340.5q33 27.5 33 74.5q0 50 -32.5 77t-91.5 27q-58 0 -91 -27.5t-33 -75.5q0 -49 32.5 -76
t91.5 -27q58 0 91 27.5z" />
    <glyph glyph-name="uni00B9" unicode="&#xb9;" horiz-adv-x="391" 
d="M343 329v-86h-258v86h92v194l-102 -31v89l145 43h55v-295h68z" />
    <glyph glyph-name="uni00B2" unicode="&#xb2;" horiz-adv-x="392" 
d="M208 330h130v-88h-280v74l120 104q35 30 48 47.5t13 36.5q0 17 -10 27t-29 10q-48 0 -49 -59h-98q0 72 40.5 110t109.5 38q64 0 100.5 -32t36.5 -89q0 -36 -18.5 -67t-69.5 -74z" />
    <glyph glyph-name="uni00B3" unicode="&#xb3;" horiz-adv-x="391" 
d="M351 358q0 -53 -38 -87.5t-111 -34.5q-68 0 -107.5 34.5t-39.5 99.5h97q1 -24 13.5 -34.5t39.5 -10.5q22 0 33.5 9.5t11.5 27.5q0 35 -46 35h-52v74h43q22 0 33.5 9.5t11.5 26.5q0 16 -10.5 25t-28.5 9q-20 0 -34 -11t-15 -34h-98q0 64 42 99t110 35q61 0 98 -30t37 -77
q0 -51 -38 -82q48 -27 48 -83z" />
    <glyph glyph-name="uni2074" unicode="&#x2074;" horiz-adv-x="391" 
d="M364 327h-50v-85h-96v85h-188v67l122 230h108l-121 -211h79v67h96v-67h50v-86z" />
    <glyph glyph-name="fraction" unicode="&#x2044;" horiz-adv-x="370" 
d="M271 624h117l-289 -624h-117z" />
    <glyph glyph-name="onehalf" unicode="&#xbd;" horiz-adv-x="980" 
d="M643 630l-237 -630h-103l237 630h103zM177 329v194l-102 -31v89l145 43h55v-295h68v-86h-258v86h92zM724 88h130v-88h-280v74l120 104q35 30 48 47.5t13 36.5q0 17 -10 27t-29 10q-48 0 -49 -59h-98q0 72 40.5 110t109.5 38q64 0 100.5 -32t36.5 -89q0 -36 -18.5 -67
t-69.5 -74z" />
    <glyph glyph-name="onequarter" unicode="&#xbc;" horiz-adv-x="950" 
d="M642 630l-237 -630h-103l237 630h103zM177 329v194l-102 -31v89l145 43h55v-295h68v-86h-258v86h92zM857 85h-50v-85h-96v85h-188v67l122 230h108l-121 -211h79v67h96v-67h50v-86z" />
    <glyph glyph-name="threequarters" unicode="&#xbe;" horiz-adv-x="922" 
d="M313 270.5q-38 -34.5 -111 -34.5q-68 0 -107.5 34.5t-39.5 99.5h97q1 -24 13.5 -34.5t39.5 -10.5q22 0 33.5 9.5t11.5 27.5q0 35 -46 35h-52v74h43q22 0 33.5 9.5t11.5 26.5q0 16 -10.5 25t-28.5 9q-20 0 -34 -11t-15 -34h-98q0 64 42 99t110 35q61 0 98 -30t37 -77
q0 -51 -38 -82q48 -27 48 -83q0 -53 -38 -87.5zM624 630l-237 -630h-103l237 630h103zM839 85h-50v-85h-96v85h-188v67l122 230h108l-121 -211h79v67h96v-67h50v-86z" />
    <glyph glyph-name="asterisk" unicode="*" horiz-adv-x="490" 
d="M214 389l-122 -68l-46 79l125 50l-125 48l46 79l122 -67l-13 118h86l-13 -118l122 67l47 -79l-126 -48l127 -50l-49 -79l-120 68l13 -118h-87z" />
    <glyph glyph-name="backslash" unicode="\" horiz-adv-x="342" 
d="M7 630h110l218 -630h-110z" />
    <glyph glyph-name="periodcentered" unicode="&#xb7;" horiz-adv-x="232" 
d="M60 385h112v-129h-112v129z" />
    <glyph glyph-name="bullet" unicode="&#x2022;" horiz-adv-x="480" 
d="M160.5 199q-36.5 19 -58.5 51.5t-22 70.5t22 70t58.5 51t79.5 19t80 -19t58.5 -51t21.5 -70t-21.5 -70.5t-58.5 -51.5t-80 -19t-79.5 19z" />
    <glyph glyph-name="colon" unicode=":" horiz-adv-x="232" 
d="M60 398h112v-129h-112v129zM60 129h112v-129h-112v129z" />
    <glyph glyph-name="comma" unicode="," horiz-adv-x="221" 
d="M60 129h112v-87l-63 -189h-49v276z" />
    <glyph glyph-name="ellipsis" unicode="&#x2026;" horiz-adv-x="644" 
d="M60 129h112v-129h-112v129zM266 129h113v-129h-113v129zM474 129h110v-129h-110v129z" />
    <glyph glyph-name="exclam" unicode="!" horiz-adv-x="281" 
d="M82 624h119l-8 -434h-103zM85 119h111v-119h-111v119z" />
    <glyph glyph-name="exclamdown" unicode="&#xa1;" horiz-adv-x="281" 
d="M199 -137h-119l8 434h103zM196 368h-111v119h111v-119z" />
    <glyph glyph-name="numbersign" unicode="#" horiz-adv-x="577" 
d="M441 374v-118h120v-91h-120v-165h-98v165h-109v-165h-99v165h-119v91h119v118h-119v91h119v165h99v-165h109v165h98v-165h120v-91h-120zM343 374h-109v-118h109v118z" />
    <glyph glyph-name="period" unicode="." horiz-adv-x="232" 
d="M60 129h112v-129h-112v129z" />
    <glyph glyph-name="question" unicode="?" horiz-adv-x="597" 
d="M220 226q0 34 5 53.5t23 37.5t59 42l26 15q36 20 48.5 36.5t12.5 42.5q0 33 -26.5 50.5t-80.5 17.5q-55 0 -85.5 -20t-30.5 -59v-13h-118v12q0 87 65 138t173 51q105 0 165.5 -47t60.5 -131q0 -51 -22.5 -81.5t-70.5 -58.5l-22 -13q-34 -20 -49 -32.5t-20 -23.5t-5 -28
v-29h-108v40zM217 119h111v-119h-111v119z" />
    <glyph glyph-name="questiondown" unicode="&#xbf;" horiz-adv-x="597" 
d="M377 261q0 -34 -5 -53.5t-23 -37.5t-59 -42l-26 -15q-36 -20 -48.5 -36.5t-12.5 -42.5q0 -33 26.5 -50.5t80.5 -17.5q55 0 85.5 20t30.5 59v13h118v-12q0 -87 -65 -138t-173 -51q-105 0 -165.5 47t-60.5 131q0 51 22.5 81.5t70.5 58.5l22 13q34 20 49 32.5t20 23.5t5 28
v29h108v-40zM380 368h-111v119h111v-119z" />
    <glyph glyph-name="quotedbl" unicode="&#x22;" horiz-adv-x="386" 
d="M55 624h111l-9 -266h-93zM220 624h111l-9 -266h-93z" />
    <glyph glyph-name="quotesingle" unicode="'" horiz-adv-x="221" 
d="M55 624h111l-9 -266h-93z" />
    <glyph glyph-name="semicolon" unicode=";" horiz-adv-x="221" 
d="M60 398h112v-129h-112v129zM60 129h112v-87l-63 -189h-49v276z" />
    <glyph glyph-name="slash" unicode="/" horiz-adv-x="342" 
d="M225 630h110l-218 -630h-110z" />
    <glyph glyph-name="underscore" unicode="_" horiz-adv-x="450" 
d="M9 -38h432v-99h-432v99z" />
    <glyph glyph-name="braceleft" unicode="{" horiz-adv-x="404" 
d="M169 -157.5q-32 26.5 -32 99.5v177q0 41 -23 61t-82 24v92q59 4 82 24t23 60v178q0 66 28.5 96t105.5 30h105v-60l-79 -17q-23 -5 -33.5 -15t-10.5 -30v-174q0 -57 -24 -89t-84 -49q59 -17 83.5 -49.5t24.5 -88.5v-174q0 -20 9.5 -30t34.5 -15l79 -17v-60h-105
q-70 0 -102 26.5z" />
    <glyph glyph-name="braceright" unicode="}" horiz-adv-x="404" 
d="M235 657.5q32 -26.5 32 -99.5v-177q0 -41 23 -61t82 -24v-92q-59 -4 -82 -24t-23 -60v-178q0 -66 -28.5 -96t-105.5 -30h-105v60l79 17q23 5 33.5 15t10.5 30v174q0 57 24 89t84 49q-59 17 -83.5 49.5t-24.5 88.5v174q0 20 -9.5 30t-34.5 15l-79 17v60h105
q70 0 102 -26.5z" />
    <glyph glyph-name="bracketleft" unicode="[" horiz-adv-x="328" 
d="M67 685h233v-104h-117v-661h117v-104h-233v869z" />
    <glyph glyph-name="bracketright" unicode="]" horiz-adv-x="328" 
d="M261 -184h-233v104h117v661h-117v104h233v-869z" />
    <glyph glyph-name="parenleft" unicode="(" horiz-adv-x="341" 
d="M106.5 5.5q-39.5 123.5 -39.5 239.5q0 118 37.5 240t105.5 195h122q-73 -86 -107.5 -199.5t-34.5 -235.5q0 -119 36 -233t106 -202h-122q-64 72 -103.5 195.5z" />
    <glyph glyph-name="parenright" unicode=")" horiz-adv-x="341" 
d="M234.5 484.5q39.5 -123.5 39.5 -239.5q0 -118 -37.5 -240t-105.5 -195h-122q73 86 107.5 199.5t34.5 235.5q0 119 -36 233t-106 202h122q64 -72 103.5 -195.5z" />
    <glyph glyph-name="emdash" unicode="&#x2014;" horiz-adv-x="905" 
d="M0 355h905v-101h-905v101z" />
    <glyph glyph-name="endash" unicode="&#x2013;" horiz-adv-x="441" 
d="M0 355h441v-101h-441v101z" />
    <glyph glyph-name="hyphen" unicode="-" horiz-adv-x="277" 
d="M35 355h207v-105h-207v105z" />
    <glyph glyph-name="uni00AD" unicode="&#xad;" horiz-adv-x="277" 
d="M35 355h207v-105h-207v105z" />
    <glyph glyph-name="guillemotleft" unicode="&#xab;" horiz-adv-x="663" 
d="M53 238v48l222 166l65 -74l-157 -115l157 -114l-65 -75zM325 238v48l222 166l65 -74l-157 -115l157 -114l-65 -75z" />
    <glyph glyph-name="guillemotright" unicode="&#xbb;" horiz-adv-x="663" 
d="M610 288v-48l-222 -166l-65 74l157 115l-157 114l65 75zM338 288v-48l-222 -166l-65 74l157 115l-157 114l65 75z" />
    <glyph glyph-name="guilsinglleft" unicode="&#x2039;" horiz-adv-x="391" 
d="M53 238v48l222 166l65 -74l-157 -115l157 -114l-65 -75z" />
    <glyph glyph-name="guilsinglright" unicode="&#x203a;" horiz-adv-x="391" 
d="M338 290v-48l-222 -166l-65 74l157 115l-157 114l65 75z" />
    <glyph glyph-name="quotedblbase" unicode="&#x201e;" horiz-adv-x="384" 
d="M60 -127v256h112v-87l-56 -169h-56zM223 -127v256h112v-87l-56 -169h-56z" />
    <glyph glyph-name="quotedblleft" unicode="&#x201c;" horiz-adv-x="384" 
d="M324 624v-256h-112v87l56 169h56zM161 624v-256h-112v87l56 169h56z" />
    <glyph glyph-name="quotedblright" unicode="&#x201d;" horiz-adv-x="384" 
d="M60 368v256h112v-87l-56 -169h-56zM223 368v256h112v-87l-56 -169h-56z" />
    <glyph glyph-name="quoteleft" unicode="&#x2018;" horiz-adv-x="221" 
d="M161 624v-256h-112v87l56 169h56z" />
    <glyph glyph-name="quoteright" unicode="&#x2019;" horiz-adv-x="221" 
d="M60 368v256h112v-87l-56 -169h-56z" />
    <glyph glyph-name="quotesinglbase" unicode="&#x201a;" horiz-adv-x="221" 
d="M60 -127v256h112v-87l-56 -169h-56z" />
    <glyph glyph-name="uni2003" unicode="&#x2003;" horiz-adv-x="905" 
 />
    <glyph glyph-name="uni2002" unicode="&#x2002;" horiz-adv-x="441" 
 />
    <glyph glyph-name="uni200A" unicode="&#x200a;" horiz-adv-x="57" 
 />
    <glyph glyph-name="uni00A0" unicode="&#xa0;" horiz-adv-x="174" 
 />
    <glyph glyph-name="uni2009" unicode="&#x2009;" horiz-adv-x="181" 
 />
    <glyph glyph-name="cent" unicode="&#xa2;" horiz-adv-x="495" 
d="M465 166v-9q0 -142 -166 -161v-77h-88v77q-170 15 -170 175v145q0 82 43 124t127 50v78h88v-78q165 -17 165 -167v-10h-118v8q0 29 -9.5 45t-37.5 22v-289q28 6 38 22t10 45h118zM170.5 129q11.5 -21 40.5 -29v287q-29 -9 -40.5 -30t-11.5 -58v-111q0 -38 11.5 -59z" />
    <glyph glyph-name="currency" unicode="&#xa4;" horiz-adv-x="533" 
d="M428 212l85 -108h-116l-37 43q-42 -20 -93 -20q-52 0 -94 20l-37 -43h-116l85 108q-24 42 -24 104t24 104l-85 108h116l37 -43q40 20 94 20q53 0 93 -20l37 43h116l-85 -108q24 -42 24 -104t-24 -104zM326.5 247q20.5 20 20.5 69t-20.5 69t-59.5 20q-40 0 -60.5 -20
t-20.5 -69t20.5 -69t60.5 -20q39 0 59.5 20z" />
    <glyph glyph-name="dollar" unicode="$" horiz-adv-x="591" 
d="M485.5 56q-50.5 -49 -140.5 -59v-78h-96v78q-90 11 -139 58.5t-49 126.5v23h126v-16q0 -63 62 -79v153q-72 21 -112.5 44.5t-58 56.5t-17.5 83q0 73 50 121.5t138 58.5v82h96v-82q84 -12 129 -62.5t45 -135.5v-9h-126v16q0 56 -48 75v-150l23 -7q86 -26 127 -67.5
t41 -103.5q0 -78 -50.5 -127zM202.5 418q12.5 -13 46.5 -26v123q-59 -14 -59 -61q0 -23 12.5 -36zM406 166q0 25 -13 40t-48 28v-127q61 10 61 59z" />
    <glyph glyph-name="Euro" unicode="&#x20ac;" horiz-adv-x="621" 
d="M446 426v8q0 38 -22 59.5t-88 21.5q-61 0 -90 -24.5t-29 -73.5v-1h167v-88h-167v-48h167v-88h-167q2 -38 30 -60.5t88 -22.5q66 0 88.5 20t22.5 54v1h125v-8q0 -86 -59.5 -134t-176.5 -48q-119 0 -181 51.5t-62 145.5v1h-62v88h62v48h-62v88h62q1 109 62.5 161.5
t183.5 52.5q116 0 174.5 -50t58.5 -146v-8h-125z" />
    <glyph glyph-name="florin" unicode="&#x192;" horiz-adv-x="429" 
d="M314.5 531q-16.5 -12 -22.5 -42v-2h91l-15 -88h-93l-78 -404q-28 -148 -185 -148q-35 0 -72 8l17 89q18 -5 46 -5q35 0 52.5 14.5t24.5 50.5l76 395h-60l15 88h62l2 11q14 72 58 104.5t130 32.5q32 0 66 -9l-15 -88q-20 5 -50 5q-33 0 -49.5 -12z" />
    <glyph glyph-name="sterling" unicode="&#xa3;" horiz-adv-x="604" 
d="M559 111l-9 -111h-471v84q94 41 94 102q0 28 -6 50h-112v100h61q-19 33 -28 58t-9 55q0 52 30 93.5t83 64.5t120 23q111 0 174.5 -53.5t63.5 -152.5v-21h-126v17q0 94 -112 94q-53 0 -80 -21.5t-27 -54.5q0 -23 8 -43.5t33 -58.5h207v-100h-168q3 -19 3 -39
q0 -49 -28 -86h299z" />
    <glyph glyph-name="yen" unicode="&#xa5;" horiz-adv-x="583" 
d="M453 406h80v-92h-130l-50 -91v-18h180v-92h-180v-113h-126v113h-175v92h175v19l-49 90h-126v92h76l-118 218h131l151 -283l150 283h131z" />
    <glyph glyph-name="dotmath" unicode="&#x22c5;" horiz-adv-x="232" 
d="M60 385h112v-129h-112v129z" />
    <glyph glyph-name="plus" unicode="+" horiz-adv-x="565" 
d="M514 213h-184v-166h-95v166h-184v92h184v163h95v-163h184v-92z" />
    <glyph glyph-name="minus" unicode="&#x2212;" horiz-adv-x="565" 
d="M51 305h463v-92h-463v92z" />
    <glyph glyph-name="multiply" unicode="&#xd7;" horiz-adv-x="565" 
d="M417 77l-136 120l-133 -117l-67 65l129 114l-131 115l68 66l135 -119l131 116l68 -65l-129 -113l133 -117z" />
    <glyph glyph-name="divide" unicode="&#xf7;" horiz-adv-x="565" 
d="M233 481h98v-107h-98v107zM51 305h463v-92h-463v92zM233 144h98v-108h-98v108z" />
    <glyph glyph-name="equal" unicode="=" horiz-adv-x="565" 
d="M51 406h463v-92h-463v92zM51 205h463v-92h-463v92z" />
    <glyph glyph-name="notequal" unicode="&#x2260;" horiz-adv-x="565" 
d="M367 314l-56 -109h203v-92h-251l-60 -116h-111l60 116h-101v92h149l57 109h-206v92h254l63 121h110l-63 -121h99v-92h-147z" />
    <glyph glyph-name="greater" unicode="&#x3e;" horiz-adv-x="565" 
d="M514 302v-84l-464 -164v102l343 104l-343 104v101z" />
    <glyph glyph-name="less" unicode="&#x3c;" horiz-adv-x="565" 
d="M51 218v84l464 164v-102l-343 -104l343 -104v-101z" />
    <glyph glyph-name="greaterequal" unicode="&#x2265;" horiz-adv-x="565" 
d="M514 393v-83l-463 -165v102l341 105l-341 104v101zM51 92h463v-92h-463v92z" />
    <glyph glyph-name="lessequal" unicode="&#x2264;" horiz-adv-x="565" 
d="M514 456l-341 -104l341 -105v-102l-463 165v83l463 164v-101zM51 92h463v-92h-463v92z" />
    <glyph glyph-name="plusminus" unicode="&#xb1;" horiz-adv-x="565" 
d="M514 427v-92h-184v-166h-95v166h-184v92h184v163h95v-163h184zM51 92h463v-92h-463v92z" />
    <glyph glyph-name="approxequal" unicode="&#x2248;" horiz-adv-x="565" 
d="M115 388q28 35 80 35q22 0 44 -6t54 -17q19 -7 37.5 -12t31.5 -5q26 0 38.5 11t16.5 35h62q-3 -141 -110 -141q-22 0 -42 5t-56 17q-19 7 -37.5 12t-31.5 5q-25 0 -37 -8.5t-16 -30.5h-63q1 65 29 100zM115 199q28 35 80 35q22 0 44 -6t54 -17q19 -7 37.5 -12t31.5 -5
q26 0 38.5 11t16.5 35h62q-3 -141 -110 -141q-22 0 -42 5t-56 17q-19 7 -37.5 12t-31.5 5q-25 0 -37 -8.5t-16 -30.5h-63q1 65 29 100z" />
    <glyph glyph-name="logicalnot" unicode="&#xac;" horiz-adv-x="565" 
d="M514 406v-293h-97v201h-366v92h463z" />
    <glyph glyph-name="asciitilde" unicode="~" horiz-adv-x="565" 
d="M96.5 358q30.5 37 93.5 37q23 0 46 -7t57 -20q26 -11 44.5 -17t34.5 -6q55 0 58 50h70q-2 -76 -31 -112.5t-93 -36.5q-24 0 -47 7t-57 20q-28 11 -46 16.5t-34 5.5q-54 0 -57 -49h-70q1 75 31.5 112z" />
    <glyph glyph-name="infinity" unicode="&#x221e;" horiz-adv-x="791" 
d="M697.5 442.5q42.5 -49.5 42.5 -128.5q0 -84 -41.5 -133.5t-127.5 -49.5q-49 0 -95 23t-81 63q-33 -41 -79 -63.5t-99 -22.5q-82 0 -124 48.5t-42 128.5q0 83 42.5 133.5t126.5 50.5q48 0 95 -22t81 -61q34 38 80 60.5t97 22.5q82 0 124.5 -49.5zM335 310q-50 78 -111 78
q-72 0 -72 -80q0 -37 18 -55.5t47 -18.5q65 0 118 76zM639 314q0 74 -64 74q-34 0 -64.5 -18t-55.5 -50q63 -86 115 -86q69 0 69 80z" />
    <glyph glyph-name="integral" unicode="&#x222b;" horiz-adv-x="471" 
d="M76 -198v87q24 -3 37 -3q37 0 50 15t13 51v575q0 70 41.5 111.5t122.5 41.5q29 0 55 -5v-87q-12 3 -37 3q-37 0 -50 -15t-13 -51v-575q0 -70 -41.5 -111.5t-121.5 -41.5q-30 0 -56 5z" />
    <glyph glyph-name="uni2126" unicode="&#x2126;" horiz-adv-x="780" 
d="M682 110v-110h-267v87q52 31 79 59t37 59.5t10 76.5v108q0 124 -151 124q-76 0 -113.5 -32t-37.5 -92v-108q0 -43 9.5 -74.5t37 -60.5t79.5 -60v-87h-267v110h102q-86 62 -86 171v110q0 115 73 177t203 62q131 0 203.5 -62.5t72.5 -176.5v-110q0 -55 -20.5 -96.5
t-65.5 -74.5h102z" />
    <glyph glyph-name="uni2206" unicode="&#x2206;" horiz-adv-x="702" 
d="M657 66v-66h-612v66l257 558h94zM178 101h343l-172 365z" />
    <glyph glyph-name="product" unicode="&#x220f;" horiz-adv-x="799" 
d="M754 509h-120v-702h-112v702h-245v-702h-112v702h-120v115h709v-115z" />
    <glyph glyph-name="summation" unicode="&#x2211;" horiz-adv-x="639" 
d="M51 -88l284 317l-289 299v96h504v-111h-327l272 -273l-290 -317h405l-14 -113h-545v102z" />
    <glyph glyph-name="radical" unicode="&#x221a;" horiz-adv-x="578" 
d="M570 710v-89h-53l-226 -621h-111l-123 327h-48v83h151l85 -221l192 521h133z" />
    <glyph glyph-name="partialdiff" unicode="&#x2202;" horiz-adv-x="573" 
d="M453.5 543q80.5 -87 80.5 -267q0 -146 -67 -214t-187 -68q-73 0 -127.5 26.5t-84 75t-29.5 111.5q0 94 62.5 145.5t161.5 51.5q76 0 139 -21q-10 63 -58.5 103.5t-123.5 40.5q-31 0 -62 -6t-55 -15v100q23 10 57 17t68 7q145 0 225.5 -87zM383.5 138.5
q32.5 34.5 32.5 100.5v30q-31 14 -67 22.5t-63 8.5q-129 0 -129 -93q0 -48 33.5 -75.5t95.5 -27.5q65 0 97.5 34.5z" />
    <glyph glyph-name="uni00B5" unicode="&#xb5;" horiz-adv-x="535" 
d="M480 487v-487h-107l-2 31q-40 -37 -104 -37q-65 0 -106 35l12 -231h-118v689h118v-306q0 -42 20 -64t75 -22q57 0 75.5 23.5t18.5 62.5v306h118z" />
    <glyph glyph-name="percent" unicode="%" horiz-adv-x="938" 
d="M108.5 287.5q-41.5 38.5 -41.5 109.5v85q0 72 40 110t120 38t120 -38t40 -110v-85q0 -71 -41.5 -109.5t-118.5 -38.5t-118.5 38.5zM554 630h102l-274 -630h-102zM275.5 352.5q14.5 14.5 14.5 46.5v81q0 34 -14 47.5t-49 13.5q-33 0 -48 -15t-15 -46v-81q0 -31 15 -46
t48 -15q34 0 48.5 14.5zM592.5 32.5q-41.5 38.5 -41.5 109.5v85q0 72 40 110t120 38t120 -38t40 -110v-85q0 -71 -41.5 -109.5t-118.5 -38.5t-118.5 38.5zM759.5 97.5q14.5 14.5 14.5 46.5v81q0 34 -14 47.5t-49 13.5q-33 0 -48 -15t-15 -46v-81q0 -31 15 -46t48 -15
q34 0 48.5 14.5z" />
    <glyph glyph-name="perthousand" unicode="&#x2030;" horiz-adv-x="1313" 
d="M108.5 287.5q-41.5 38.5 -41.5 109.5v85q0 72 40 110t120 38t120 -38t40 -110v-85q0 -71 -41.5 -109.5t-118.5 -38.5t-118.5 38.5zM554 630h102l-274 -630h-102zM275.5 352.5q14.5 14.5 14.5 46.5v81q0 34 -14 47.5t-49 13.5q-33 0 -48 -15t-15 -46v-81q0 -31 15 -46
t48 -15q34 0 48.5 14.5zM592.5 32.5q-41.5 38.5 -41.5 109.5v85q0 72 40 110t120 38t120 -38t40 -110v-85q0 -71 -41.5 -109.5t-118.5 -38.5t-118.5 38.5zM967.5 32.5q-41.5 38.5 -41.5 109.5v85q0 72 40 110t120 38t120 -38t40 -110v-85q0 -71 -41.5 -109.5t-118.5 -38.5
t-118.5 38.5zM759.5 97.5q14.5 14.5 14.5 46.5v81q0 34 -14 47.5t-49 13.5q-33 0 -48 -15t-15 -46v-81q0 -31 15 -46t48 -15q34 0 48.5 14.5zM1134.5 97.5q14.5 14.5 14.5 46.5v81q0 34 -14 47.5t-49 13.5q-33 0 -48 -15t-15 -46v-81q0 -31 15 -46t48 -15q34 0 48.5 14.5z
" />
    <glyph glyph-name="lozenge" unicode="&#x25ca;" horiz-adv-x="695" 
d="M44 316l304 317l303 -317l-303 -317zM535 316l-187 185l-188 -185l188 -185z" />
    <glyph glyph-name="uniF8FF" unicode="&#xf8ff;" horiz-adv-x="500" 
d="M70.5 598q-8.5 9 -8.5 22q0 12 8.5 21t21.5 9q12 0 21.5 -9t9.5 -21q0 -13 -9.5 -22t-21.5 -9q-13 0 -21.5 9zM137 598q-9 9 -9 22q0 12 9 21t21 9q13 0 21.5 -9t8.5 -21q0 -13 -8.5 -22t-21.5 -9q-12 0 -21 9zM201.5 598q-9.5 9 -9.5 22q0 12 9.5 21t21.5 9
q13 0 21.5 -9t8.5 -21q0 -13 -8.5 -22t-21.5 -9q-12 0 -21.5 9zM267.5 598q-8.5 9 -8.5 22q0 12 8.5 21t21.5 9q12 0 21.5 -9t9.5 -21q0 -13 -9.5 -22t-21.5 -9q-13 0 -21.5 9zM333 598q-9 9 -9 22q0 12 9 21t22 9q11 0 20.5 -9t9.5 -21q0 -13 -9 -22t-21 -9q-13 0 -22 9z
M398.5 598q-9.5 9 -9.5 22q0 12 9.5 21t21.5 9q13 0 21.5 -9t8.5 -21q0 -13 -8.5 -22t-21.5 -9q-12 0 -21.5 9zM70.5 532.5q-8.5 8.5 -8.5 21.5q0 12 8.5 21t21.5 9q12 0 21.5 -9t9.5 -21t-9.5 -21t-21.5 -9q-13 0 -21.5 8.5zM70.5 467q-8.5 9 -8.5 22q0 12 8.5 20.5
t21.5 8.5q12 0 21.5 -8.5t9.5 -20.5q0 -13 -9.5 -22t-21.5 -9q-13 0 -21.5 9zM201.5 467q-9.5 9 -9.5 22q0 12 9.5 20.5t21.5 8.5q13 0 21.5 -8.5t8.5 -20.5q0 -13 -8.5 -22t-21.5 -9q-12 0 -21.5 9zM267.5 467q-8.5 9 -8.5 22q0 12 8.5 20.5t21.5 8.5q12 0 21.5 -8.5
t9.5 -20.5q0 -13 -9.5 -22t-21.5 -9q-13 0 -21.5 9zM333 467q-9 9 -9 22q0 12 9 20.5t22 8.5q12 0 21 -8.5t9 -20.5t-9 -21.5t-21 -9.5q-13 0 -22 9zM398.5 467q-9.5 9 -9.5 22q0 12 9.5 20.5t21.5 8.5q13 0 21.5 -8.5t8.5 -20.5q0 -13 -8.5 -22t-21.5 -9q-12 0 -21.5 9z
M70.5 402q-8.5 8 -8.5 21t8.5 21.5t21.5 8.5q12 0 21.5 -9t9.5 -21t-9.5 -20.5t-21.5 -8.5q-13 0 -21.5 8zM201.5 402.5q-9.5 8.5 -9.5 20.5t9.5 21t21.5 9q13 0 21.5 -8.5t8.5 -21.5t-8.5 -21t-21.5 -8q-12 0 -21.5 8.5zM70.5 335.5q-8.5 8.5 -8.5 21.5t8.5 22t21.5 9
q12 0 21.5 -9t9.5 -22q0 -12 -9.5 -21t-21.5 -9q-13 0 -21.5 8.5zM201.5 336q-9.5 9 -9.5 21q0 13 9.5 22t21.5 9q13 0 21.5 -9t8.5 -22t-8.5 -21.5t-21.5 -8.5q-12 0 -21.5 9zM267.5 335.5q-8.5 8.5 -8.5 21.5t8.5 22t21.5 9q12 0 21.5 -9t9.5 -22q0 -12 -9.5 -21t-21.5 -9
q-13 0 -21.5 8.5zM333 335.5q-9 8.5 -9 21.5t9 22t22 9q12 0 21 -9t9 -22q0 -12 -9 -21t-21 -9q-13 0 -22 8.5zM398.5 336q-9.5 9 -9.5 21q0 13 9.5 22t21.5 9q13 0 21.5 -9t8.5 -22t-8.5 -21.5t-21.5 -8.5q-12 0 -21.5 9zM70.5 270.5q-8.5 8.5 -8.5 21.5q0 12 8.5 21
t21.5 9q12 0 21.5 -9t9.5 -21t-9.5 -21t-21.5 -9q-13 0 -21.5 8.5zM398.5 271q-9.5 9 -9.5 21t9.5 21t21.5 9q13 0 21.5 -9t8.5 -21q0 -13 -8.5 -21.5t-21.5 -8.5q-12 0 -21.5 9zM70.5 205.5q-8.5 8.5 -8.5 21.5q0 12 8.5 20.5t21.5 8.5q12 0 21.5 -8.5t9.5 -20.5t-9.5 -21
t-21.5 -9q-13 0 -21.5 8.5zM201.5 206q-9.5 9 -9.5 21t9.5 20.5t21.5 8.5q13 0 21.5 -8.5t8.5 -20.5q0 -13 -8.5 -21.5t-21.5 -8.5q-12 0 -21.5 9zM267.5 205.5q-8.5 8.5 -8.5 21.5q0 12 8.5 20.5t21.5 8.5q12 0 21.5 -8.5t9.5 -20.5t-9.5 -21t-21.5 -9q-13 0 -21.5 8.5z
M333 205.5q-9 8.5 -9 21.5q0 12 9 20.5t22 8.5q12 0 21 -8.5t9 -20.5t-9 -21t-21 -9q-13 0 -22 8.5zM398.5 206q-9.5 9 -9.5 21t9.5 20.5t21.5 8.5q13 0 21.5 -8.5t8.5 -20.5q0 -13 -8.5 -21.5t-21.5 -8.5q-12 0 -21.5 9zM70.5 139q-8.5 9 -8.5 22t8.5 21.5t21.5 8.5
q12 0 21.5 -9t9.5 -21q0 -13 -9.5 -22t-21.5 -9q-13 0 -21.5 9zM70.5 73.5q-8.5 8.5 -8.5 21.5t8.5 21.5t21.5 8.5q12 0 21.5 -8.5t9.5 -21.5q0 -12 -9.5 -21t-21.5 -9q-13 0 -21.5 8.5zM201.5 74q-9.5 9 -9.5 21q0 13 9.5 21.5t21.5 8.5q13 0 21.5 -8.5t8.5 -21.5
t-8.5 -21.5t-21.5 -8.5q-12 0 -21.5 9zM70.5 8.5q-8.5 8.5 -8.5 21.5q0 12 9 21.5t21 9.5t21.5 -9.5t9.5 -21.5t-9.5 -21t-21.5 -9q-13 0 -21.5 8.5zM137 8.5q-9 8.5 -9 21.5q0 12 9 21.5t21 9.5t21 -9.5t9 -21.5q0 -13 -8.5 -21.5t-21.5 -8.5q-12 0 -21 8.5zM201.5 9
q-9.5 9 -9.5 21t9.5 21.5t21.5 9.5t21 -9.5t9 -21.5q0 -13 -8.5 -21.5t-21.5 -8.5q-12 0 -21.5 9z" />
    <glyph glyph-name="at" unicode="@" horiz-adv-x="783" 
d="M205 138q72 -61 222 -61q71 0 146 14.5t135 37.5v-80q-59 -26 -134.5 -41t-154.5 -15q-187 0 -283.5 85t-96.5 236q0 102 43.5 174t124 109.5t190.5 37.5q107 0 186 -36t122 -102t43 -153q0 -94 -44 -145t-112 -51q-42 0 -70 15.5t-38 44.5q-13 -28 -43 -44t-72 -16
q-56 0 -89.5 33.5t-33.5 91.5v86q0 61 32.5 94.5t91.5 33.5q50 0 81 -28l3 24h77v-200q0 -60 55 -60q68 0 68 123q0 98 -69.5 151.5t-187.5 53.5q-128 0 -196 -61.5t-68 -175.5q0 -115 72 -176zM447 355q0 26 -15 41t-42 15q-35 0 -47.5 -14.5t-12.5 -41.5v-76
q0 -26 15 -40.5t43 -14.5t43.5 15t15.5 40v76z" />
    <glyph glyph-name="ampersand" unicode="&#x26;" horiz-adv-x="649" 
d="M497 0l-39 41q-77 -47 -183 -47q-109 0 -169.5 47.5t-60.5 128.5q0 59 29 101t97 74q-30 35 -43 66.5t-13 69.5q0 43 24 77t68.5 53t102.5 19q81 0 129.5 -40t48.5 -103q0 -35 -13.5 -60.5t-45 -49t-91.5 -55.5l124 -135q34 41 34 119v16h99v-17q0 -116 -66 -190
l105 -115h-137zM247.5 519q-20.5 -15 -20.5 -40q0 -21 11 -40.5t38 -48.5q55 25 77.5 45t22.5 44q0 25 -19.5 40t-51.5 15q-37 0 -57.5 -15zM341.5 98.5q23.5 4.5 46.5 16.5l-154 161q-71 -33 -71 -92q0 -40 33 -65t90 -25q32 0 55.5 4.5z" />
    <glyph glyph-name="paragraph" unicode="&#xb6;" horiz-adv-x="600" 
d="M566 538h-76v-690h-95v690h-66v-690h-95v421q-87 3 -141 49t-54 128q0 49 27.5 89.5t77.5 64.5t115 24h307v-86z" />
    <glyph glyph-name="section" unicode="&#xa7;" horiz-adv-x="483" 
d="M408 61.5q17 -28.5 17 -68.5q0 -68 -50.5 -106.5t-127.5 -38.5q-87 0 -135.5 41.5t-48.5 117.5v11h112v-16q0 -29 19 -44t53 -15q30 0 47 12t17 31t-15 32.5t-67 44.5l-66 39q-57 34 -81 64t-24 73q0 33 19 62.5t56 51.5q-40 26 -57.5 54t-17.5 74q0 66 51 104t128 38
q86 0 134.5 -41.5t48.5 -117.5v-11h-112v16q0 29 -18.5 44t-50.5 15t-49 -12t-17 -33q0 -20 15.5 -34.5t53.5 -34.5l47 -25q50 -27 77 -45.5t43 -44.5t16 -63q0 -32 -18.5 -62.5t-52.5 -57.5q37 -26 54 -54.5zM188 218q13 -13 55 -36l32 -18q33 25 33 54q0 23 -17 38t-70 45
l-9 5q-37 -22 -37 -55q0 -20 13 -33z" />
    <glyph glyph-name="copyright" unicode="&#xa9;" horiz-adv-x="802" 
d="M206 35q-81 41 -123 113t-42 164t42 164t123 113t195 41t195 -41t123 -113t42 -164t-42 -164t-123 -113t-195 -41t-195 41zM601.5 141q65.5 66 65.5 171q0 106 -65.5 171.5t-200.5 65.5t-200.5 -65.5t-65.5 -171.5t65.5 -171.5t200.5 -65.5t200.5 66zM299.5 168
q-35.5 31 -35.5 90v108q0 59 35 90t100 31q63 0 98.5 -31t35.5 -90v-18h-72v19q0 25 -14.5 37.5t-46.5 12.5q-37 0 -50.5 -14t-13.5 -36v-110q0 -22 13.5 -36t50.5 -14q33 0 47 13t14 38v18h72v-18q0 -58 -35.5 -89.5t-98.5 -31.5q-64 0 -99.5 31z" />
    <glyph glyph-name="registered" unicode="&#xae;" horiz-adv-x="802" 
d="M596 589q81 -41 123 -113t42 -164t-42 -164t-123 -113t-195 -41t-195 41t-123 113t-42 164t42 164t123 113t195 41t195 -41zM601.5 141q65.5 66 65.5 171q0 106 -65.5 171.5t-200.5 65.5t-200.5 -65.5t-65.5 -171.5t65.5 -171.5t200.5 -65.5t200.5 66zM465 259l75 -116
h-81l-68 107h-35v-107h-72v344h112q74 0 111.5 -29.5t37.5 -90.5q0 -84 -80 -108zM455 328q17 12 17 40q0 29 -18.5 41t-51.5 12h-46v-105h50q32 0 49 12z" />
    <glyph glyph-name="trademark" unicode="&#x2122;" horiz-adv-x="565" 
d="M25 624h212v-75h-67v-188h-78v188h-67v75zM530 624v-263h-73v103l-45 -70h-17l-47 70v-103h-72v263h57l71 -112l68 112h58z" />
    <glyph glyph-name="degree" unicode="&#xb0;" horiz-adv-x="424" 
d="M89 352q-43 43 -43 118t43 117.5t123 42.5t123 -42.5t43 -117.5t-43 -118t-123 -43t-123 43zM263 418.5q17 18.5 17 51.5q0 32 -17 50.5t-51 18.5t-51 -18.5t-17 -50.5q0 -33 17 -51.5t51 -18.5t51 18.5z" />
    <glyph glyph-name="bar" unicode="|" horiz-adv-x="217" 
d="M55 710h107v-920h-107v920z" />
    <glyph glyph-name="brokenbar" unicode="&#xa6;" horiz-adv-x="217" 
d="M55 710h107v-360h-107v360zM55 150h107v-360h-107v360z" />
    <glyph glyph-name="dagger" unicode="&#x2020;" horiz-adv-x="488" 
d="M421 257l-123 4l9 -414h-127l9 414l-122 -4v100l122 -4l-9 271h127l-9 -271l123 4v-100z" />
    <glyph glyph-name="uni2113" unicode="&#x2113;" horiz-adv-x="556" 
d="M509 136q-40 -68 -92.5 -105t-115.5 -37q-75 0 -117.5 39.5t-47.5 107.5l-59 -32l-45 96l103 56v141q0 113 46 170.5t143 57.5q72 0 114.5 -42t42.5 -105q0 -144 -228 -278q0 -54 14.5 -76.5t47.5 -22.5q51 0 97 83zM268.5 492q-15.5 -26 -15.5 -89v-74q51 36 80 72.5
t29 69.5q0 22 -11.5 34.5t-31.5 12.5q-35 0 -50.5 -26z" />
    <glyph glyph-name="daggerdbl" unicode="&#x2021;" horiz-adv-x="488" 
d="M421 352l-123 3l9 -120l-9 -120l123 3v-100l-123 4l9 -176h-127l9 176l-122 -4v100l122 -3l-9 120l9 120l-122 -3v100l122 -4l-9 176h127l-9 -176l123 4v-100z" />
    <glyph glyph-name="estimated" unicode="&#x212e;" horiz-adv-x="949" 
d="M280 34.5q-90 43.5 -143 118.5t-53 163q0 89 53 164t143 118.5t196 43.5q105 0 195 -43.5t142.5 -118.5t52.5 -164v-7h-634q-4 0 -4 -5v-178q0 -10 8 -21q47 -44 109.5 -69.5t131.5 -25.5q74 0 139.5 29t111.5 79h57q-54 -59 -135.5 -93t-173.5 -34q-106 0 -196 43.5z
M718 326q4 0 4 5v179q0 13 -9 22q-43 43 -105.5 67t-130.5 24q-70 0 -132.5 -24.5t-107.5 -69.5q-9 -9 -9 -23v-175q0 -5 4 -5h486z" />
    <glyph glyph-name="uni2116" unicode="&#x2116;" horiz-adv-x="981" 
d="M629 624v-624h-112l-319 414v-414h-118v624h112l319 -421v421h118zM720.5 344.5q-36.5 35.5 -36.5 98.5v53q0 63 36.5 98.5t104.5 35.5t104.5 -35.5t36.5 -98.5v-53q0 -63 -36.5 -98.5t-104.5 -35.5t-104.5 35.5zM864 407.5q12 13.5 12 41.5v42q0 28 -12 41t-39 13
t-39 -13.5t-12 -41.5v-42q0 -28 12 -41t39 -13t39 13.5z" />
    <glyph glyph-name="asciicircum" unicode="^" horiz-adv-x="565" 
d="M399 360l-117 154l-117 -154h-104l193 264h56l193 -264h-104z" />
    <glyph glyph-name="uni0308" unicode="&#x308;" 
d="M-337 691h102v-121h-102v121zM-171 691h102v-121h-102v121z" />
    <glyph glyph-name="uni0307" unicode="&#x307;" 
d="M-256 691h106v-126h-106v126z" />
    <glyph glyph-name="gravecomb" unicode="&#x300;" 
d="M-321 689h135l81 -142h-102z" />
    <glyph glyph-name="acutecomb" unicode="&#x301;" 
d="M-199 689h135l-114 -142h-102z" />
    <glyph glyph-name="uni030B" unicode="&#x30b;" 
d="M-311 689h127l-103 -142h-90zM-137 689h130l-103 -142h-92z" />
    <glyph glyph-name="caroncomb.alt" 
d="M-165 668h96v-70l-37 -132h-59v202z" />
    <glyph glyph-name="uni0302" unicode="&#x302;" 
d="M-328 644l78 42q17 9 26.5 12t21.5 3q11 0 20.5 -3t26.5 -12l78 -42v-97l-125 64l-126 -64v97z" />
    <glyph glyph-name="uni030C" unicode="&#x30c;" 
d="M-223.5 548q-9.5 3 -26.5 12l-78 42v97l126 -64l125 64v-97l-78 -42q-17 -9 -26.5 -12t-20.5 -3q-12 0 -21.5 3z" />
    <glyph glyph-name="uni0306" unicode="&#x306;" 
d="M-292.5 587q-37.5 29 -43.5 92h75q4 -18 20.5 -26.5t38.5 -8.5t38 8.5t20 26.5h75q-6 -63 -43.5 -92t-89.5 -29q-53 0 -90.5 29z" />
    <glyph glyph-name="uni030A" unicode="&#x30a;" 
d="M-282.5 554.5q-28.5 28.5 -28.5 71.5t28.5 71.5t79.5 28.5t80 -28.5t29 -71.5t-29 -71.5t-80 -28.5t-79.5 28.5zM-179 602q8 9 8 24t-8 24t-24 9t-24 -9.5t-8 -23.5t8 -23.5t24 -9.5t24 9z" />
    <glyph glyph-name="tildecomb" unicode="&#x303;" 
d="M-265 675q26 0 62 -14q30 -10 43 -10q22 0 25 28h73q-3 -63 -23 -90t-63 -27q-24 0 -62 14q-30 10 -42 10q-20 0 -24 -28h-75q6 117 86 117z" />
    <glyph glyph-name="uni0304" unicode="&#x304;" 
d="M-326 667h246v-90h-246v90z" />
    <glyph glyph-name="uni0326" unicode="&#x326;" 
d="M-256 -53h96v-70l-37 -132h-59v202z" />
    <glyph glyph-name="uni0327" unicode="&#x327;" 
d="M-270 -110q9 -3 26 -6t32 -3q19 0 26 4.5t7 15.5q0 9 -5.5 13.5t-19.5 4.5h-46q-20 0 -20 16q0 9 5 37l9 51h68l-7 -46h10q36 0 59 -18t23 -58q0 -41 -27.5 -63t-76.5 -22q-41 0 -77 12z" />
    <glyph glyph-name="uni0328" unicode="&#x328;" 
d="M-267 -151q-26 23 -26 61q0 39 24 73t75 65l50 -48q-35 -23 -47 -40.5t-12 -32.5q0 -12 7.5 -19t21.5 -7q18 0 41 10v-68q-34 -17 -72 -17q-36 0 -62 23z" />
    <glyph glyph-name="uni0308.case" 
d="M-337 805h102v-121h-102v121zM-171 805h102v-121h-102v121z" />
    <glyph glyph-name="uni0307.case" 
d="M-256 829h106v-126h-106v126z" />
    <glyph glyph-name="gravecomb.case" 
d="M-321 826h135l81 -142h-102z" />
    <glyph glyph-name="acutecomb.case" 
d="M-181 826h135l-114 -142h-102z" />
    <glyph glyph-name="uni030B.case" 
d="M-271 826h127l-103 -142h-90zM-97 826h130l-103 -142h-92z" />
    <glyph glyph-name="uni0302.case" 
d="M-328 769l78 42q17 9 26.5 12t21.5 3q11 0 20.5 -3t26.5 -12l78 -42v-97l-125 64l-126 -64v97z" />
    <glyph glyph-name="uni030C.case" 
d="M-223.5 673q-9.5 3 -26.5 12l-78 42v97l126 -64l125 64v-97l-78 -42q-17 -9 -26.5 -12t-20.5 -3q-12 0 -21.5 3z" />
    <glyph glyph-name="uni0306.case" 
d="M-292.5 724q-37.5 29 -43.5 92h75q4 -18 20.5 -26.5t38.5 -8.5t38 8.5t20 26.5h75q-6 -63 -43.5 -92t-89.5 -29q-53 0 -90.5 29z" />
    <glyph glyph-name="uni030A.case" 
d="M-282.5 687.5q-28.5 28.5 -28.5 71.5t28.5 71.5t79.5 28.5t80 -28.5t29 -71.5t-29 -71.5t-80 -28.5t-79.5 28.5zM-179 735q8 9 8 24t-8 24t-24 9t-24 -9.5t-8 -23.5t8 -23.5t24 -9.5t24 9z" />
    <glyph glyph-name="tildecomb.case" 
d="M-265 792q26 0 62 -14q30 -10 43 -10q22 0 25 28h73q-3 -63 -23 -90t-63 -27q-24 0 -62 14q-30 10 -42 10q-20 0 -24 -28h-75q6 117 86 117z" />
    <glyph glyph-name="uni0304.case" 
d="M-326 793h246v-90h-246v90z" />
    <glyph glyph-name="acutecomb.loclPLK" 
d="M-269 689h130l-80 -142h-96z" />
    <glyph glyph-name="acutecomb.case.loclPLK" 
d="M-211 826h130l-80 -142h-96z" />
    <glyph glyph-name="acute" unicode="&#xb4;" horiz-adv-x="405" 
d="M206 689h135l-114 -142h-102z" />
    <glyph glyph-name="breve" unicode="&#x2d8;" horiz-adv-x="405" 
d="M112.5 587q-37.5 29 -43.5 92h75q4 -18 20.5 -26.5t38.5 -8.5t38 8.5t20 26.5h75q-6 -63 -43.5 -92t-89.5 -29q-53 0 -90.5 29z" />
    <glyph glyph-name="caron" unicode="&#x2c7;" horiz-adv-x="405" 
d="M181.5 548q-9.5 3 -26.5 12l-78 42v97l126 -64l125 64v-97l-78 -42q-17 -9 -26.5 -12t-20.5 -3q-12 0 -21.5 3z" />
    <glyph glyph-name="cedilla" unicode="&#xb8;" horiz-adv-x="405" 
d="M135 -110q9 -3 26 -6t32 -3q19 0 26 4.5t7 15.5q0 9 -5.5 13.5t-19.5 4.5h-46q-20 0 -20 16q0 9 5 37l9 51h68l-7 -46h10q36 0 59 -18t23 -58q0 -41 -27.5 -63t-76.5 -22q-41 0 -77 12z" />
    <glyph glyph-name="circumflex" unicode="&#x2c6;" horiz-adv-x="405" 
d="M77 644l78 42q17 9 26.5 12t21.5 3q11 0 20.5 -3t26.5 -12l78 -42v-97l-125 64l-126 -64v97z" />
    <glyph glyph-name="dieresis" unicode="&#xa8;" horiz-adv-x="405" 
d="M68 691h102v-121h-102v121zM234 691h102v-121h-102v121z" />
    <glyph glyph-name="dotaccent" unicode="&#x2d9;" horiz-adv-x="405" 
d="M149 691h106v-126h-106v126z" />
    <glyph glyph-name="grave" unicode="`" horiz-adv-x="405" 
d="M84 689h135l81 -142h-102z" />
    <glyph glyph-name="hungarumlaut" unicode="&#x2dd;" horiz-adv-x="405" 
d="M94 689h127l-103 -142h-90zM268 689h130l-103 -142h-92z" />
    <glyph glyph-name="macron" unicode="&#xaf;" horiz-adv-x="405" 
d="M79 667h246v-90h-246v90z" />
    <glyph glyph-name="ogonek" unicode="&#x2db;" horiz-adv-x="405" 
d="M138 -151q-26 23 -26 61q0 39 24 73t75 65l50 -48q-35 -23 -47 -40.5t-12 -32.5q0 -12 7.5 -19t21.5 -7q18 0 41 10v-68q-34 -17 -72 -17q-36 0 -62 23z" />
    <glyph glyph-name="ring" unicode="&#x2da;" horiz-adv-x="405" 
d="M122.5 554.5q-28.5 28.5 -28.5 71.5t28.5 71.5t79.5 28.5t80 -28.5t29 -71.5t-29 -71.5t-80 -28.5t-79.5 28.5zM226 602q8 9 8 24t-8 24t-24 9t-24 -9.5t-8 -23.5t8 -23.5t24 -9.5t24 9z" />
    <glyph glyph-name="tilde" unicode="&#x2dc;" horiz-adv-x="405" 
d="M140 675q26 0 62 -14q30 -10 43 -10q22 0 25 28h73q-3 -63 -23 -90t-63 -27q-24 0 -62 14q-30 10 -42 10q-20 0 -24 -28h-75q6 117 86 117z" />
    <glyph glyph-name="acute.case" horiz-adv-x="405" 
d="M224 826h135l-114 -142h-102z" />
    <glyph glyph-name="breve.case" horiz-adv-x="405" 
d="M112.5 724q-37.5 29 -43.5 92h75q4 -18 20.5 -26.5t38.5 -8.5t38 8.5t20 26.5h75q-6 -63 -43.5 -92t-89.5 -29q-53 0 -90.5 29z" />
    <glyph glyph-name="caron.case" horiz-adv-x="405" 
d="M181.5 673q-9.5 3 -26.5 12l-78 42v97l126 -64l125 64v-97l-78 -42q-17 -9 -26.5 -12t-20.5 -3q-12 0 -21.5 3z" />
    <glyph glyph-name="circumflex.case" horiz-adv-x="405" 
d="M77 769l78 42q17 9 26.5 12t21.5 3q11 0 20.5 -3t26.5 -12l78 -42v-97l-125 64l-126 -64v97z" />
    <glyph glyph-name="dieresis.case" horiz-adv-x="405" 
d="M68 805h102v-121h-102v121zM234 805h102v-121h-102v121z" />
    <glyph glyph-name="dotaccent.case" horiz-adv-x="405" 
d="M149 829h106v-126h-106v126z" />
    <glyph glyph-name="grave.case" horiz-adv-x="405" 
d="M84 826h135l81 -142h-102z" />
    <glyph glyph-name="hungarumlaut.case" horiz-adv-x="405" 
d="M134 826h127l-103 -142h-90zM308 826h130l-103 -142h-92z" />
    <glyph glyph-name="macron.case" horiz-adv-x="405" 
d="M79 793h246v-90h-246v90z" />
    <glyph glyph-name="ring.case" horiz-adv-x="405" 
d="M122.5 687.5q-28.5 28.5 -28.5 71.5t28.5 71.5t79.5 28.5t80 -28.5t29 -71.5t-29 -71.5t-80 -28.5t-79.5 28.5zM226 735q8 9 8 24t-8 24t-24 9t-24 -9.5t-8 -23.5t8 -23.5t24 -9.5t24 9z" />
    <glyph glyph-name="tilde.case" horiz-adv-x="405" 
d="M140 792q26 0 62 -14q30 -10 43 -10q22 0 25 28h73q-3 -63 -23 -90t-63 -27q-24 0 -62 14q-30 10 -42 10q-20 0 -24 -28h-75q6 117 86 117z" />
  </font>
</defs>
</svg>
