<?xml version="1.0" standalone="no"?>
<!DOCTYPE svg PUBLIC "-//W3C//DTD SVG 1.1//EN" "http://www.w3.org/Graphics/SVG/1.1/DTD/svg11.dtd" >
<svg xmlns="http://www.w3.org/2000/svg" xmlns:xlink="http://www.w3.org/1999/xlink" version="1.1">
<metadata></metadata>
<defs>
<font id="tt_squaresblack_italic" horiz-adv-x="1382" >
<font-face units-per-em="2048" ascent="1638" descent="-410" />
<missing-glyph horiz-adv-x="675" />
<glyph horiz-adv-x="0" />
<glyph horiz-adv-x="0" />
<glyph horiz-adv-x="682" />
<glyph unicode="&#xd;" horiz-adv-x="614" />
<glyph unicode=" "  horiz-adv-x="675" />
<glyph unicode="&#x09;" horiz-adv-x="675" />
<glyph unicode="&#xa0;" horiz-adv-x="675" />
<glyph unicode="!" horiz-adv-x="696" d="M41 0l59 348h410l-59 -348h-410zM168 840l104 594h451l-105 -594l-137 -369h-307z" />
<glyph unicode="&#x22;" horiz-adv-x="972" d="M193 1208l38 226h349l-39 -226l-119 -266h-205zM653 1208l39 226h348l-39 -226l-118 -266h-205z" />
<glyph unicode="#" horiz-adv-x="1802" d="M4 266l59 328h297l105 246h-256l57 327h338l119 267h369l-119 -267h287l118 267h369l-119 -267h215l-57 -327h-297l-105 -246h256l-59 -328h-338l-117 -266h-368l116 266h-286l-117 -266h-369l117 266h-215zM729 594h287l104 246h-286z" />
<glyph unicode="$" horiz-adv-x="1536" d="M0 0l59 348h861l61 51l20 113l-40 51h-617l-223 246l67 379l310 246h256l32 184h349l-33 -184h430l-62 -349h-798l-60 -51l-16 -92l41 -51h614l224 -246l-70 -399l-309 -246h-246l-33 -184h-348l33 184h-502z" />
<glyph unicode="%" horiz-adv-x="2048" d="M119 911l65 369l226 174h368l164 -174l-65 -369l-226 -174h-368zM276 0l1154 1434h399l-1153 -1434h-400zM442 1004l35 -31h62l47 31l32 184l-36 31h-62l-45 -31zM1153 154l64 368l225 174h368l164 -174l-63 -368l-225 -174h-369zM1477 246l34 -31h62l47 31l33 184 l-37 31h-62l-45 -31z" />
<glyph unicode="&#x26;" horiz-adv-x="1566" d="M-4 215l61 348l215 174l-120 133l61 349l274 215h881l-61 -349h-615l-59 -51l-17 -92l50 -61h297l18 102h451l-19 -102h164l-57 -328h-164l-96 -553h-1065zM479 399l41 -51h348l37 205h-338l-71 -61z" />
<glyph unicode="'" horiz-adv-x="491" d="M193 1208l38 226h328l-39 -226l-119 -266h-184z" />
<glyph unicode="(" horiz-adv-x="880" d="M6 -195l270 1536l275 215h461l-62 -348h-184l-74 -61l-200 -1147l49 -61h184l-61 -349h-461z" />
<glyph unicode=")" horiz-adv-x="880" d="M-133 -410l59 349h185l73 61l201 1147l-49 61h-184l61 348h461l196 -215l-270 -1536l-274 -215h-459z" />
<glyph unicode="*" horiz-adv-x="1003" d="M121 922l192 102l-157 102l174 226l155 -103l37 205h266l-36 -205l192 103l92 -226l-190 -102l155 -102l-174 -226l-157 92l-33 -194h-266l32 194l-190 -92z" />
<glyph unicode="+" horiz-adv-x="1269" d="M102 543v348h379v379h348v-379h379v-348h-379v-379h-348v379h-379z" />
<glyph unicode="," horiz-adv-x="614" d="M-10 -174l153 174h-143l59 348h410l-59 -348l-289 -297z" />
<glyph unicode="-" horiz-adv-x="1105" d="M53 420l62 348h942l-62 -348h-942z" />
<glyph unicode="." horiz-adv-x="614" d="M0 0l59 348h410l-59 -348h-410z" />
<glyph unicode="/" horiz-adv-x="1333" d="M-102 0l1153 1434h432l-1153 -1434h-432z" />
<glyph unicode="0" horiz-adv-x="1679" d="M53 246l166 942l334 266h881l239 -266l-166 -942l-333 -266h-881zM528 389l52 -61h430l71 61l115 655l-49 62h-430l-74 -62z" />
<glyph unicode="1" horiz-adv-x="1290" d="M20 0l60 348h307l131 737h-307l61 349h758l-192 -1086h307l-60 -348h-1065z" />
<glyph unicode="2" horiz-adv-x="1536" d="M-31 0l105 594l334 266h553l106 82l16 92l-43 51h-829l61 349h1096l197 -215l-74 -420l-334 -267h-553l-106 -81l-19 -103h881l-60 -348h-1331z" />
<glyph unicode="3" horiz-adv-x="1505" d="M-41 0l59 348h861l61 51l16 93l-77 81h-492l57 328h451l106 82l11 51l-43 51h-799l61 349h1065l197 -215l-57 -328l-176 -133l163 -174l-65 -369l-273 -215h-1126z" />
<glyph unicode="4" horiz-adv-x="1536" d="M-37 266l51 287l981 881h496l-145 -820h174l-62 -348h-174l-45 -266h-451l46 266h-871zM557 614h338l66 369z" />
<glyph unicode="5" horiz-adv-x="1546" d="M20 0l60 348h850l61 51l25 144l-41 51h-830l148 840h1229l-62 -349h-778l-29 -163h615l223 -246l-76 -430l-309 -246h-1086z" />
<glyph unicode="6" horiz-adv-x="1587" d="M49 225l166 942l334 267h1014l-62 -349h-788l-72 -61l-18 -102h686l223 -246l-80 -451l-309 -245h-871zM528 389l52 -61h378l72 61l25 143l-49 62h-441z" />
<glyph unicode="7" d="M129 1085l61 349h1301l-53 -297l-803 -1137h-481l784 1085h-809z" />
<glyph unicode="8" horiz-adv-x="1587" d="M2 195l70 389l225 174l-131 133l61 348l275 215h891l196 -215l-61 -348l-176 -133l164 -174l-70 -389l-272 -215h-973zM485 379l43 -51h441l59 51l25 133l-52 61h-419l-72 -61zM629 963l51 -62h338l72 62l16 92l-41 51h-358l-62 -51z" />
<glyph unicode="9" horiz-adv-x="1587" d="M72 0l59 348h789l73 62l19 102h-686l-224 246l80 450l310 246h870l223 -246l-168 -942l-332 -266h-1013zM578 901l51 -61h440l35 204l-49 62h-379l-74 -62z" />
<glyph unicode=":" horiz-adv-x="614" d="M0 0l63 369h410l-63 -369h-410zM119 676l63 368h410l-64 -368h-409z" />
<glyph unicode=";" horiz-adv-x="614" d="M-4 -195l168 195h-164l63 369h410l-63 -369l-289 -297zM119 676l63 368h410l-64 -368h-409z" />
<glyph unicode="&#x3c;" horiz-adv-x="972" d="M41 522l614 604l256 -256l-358 -348l358 -348l-256 -256z" />
<glyph unicode="=" horiz-adv-x="1228" d="M123 246v327h1024v-327h-1024zM123 758v327h1024v-327h-1024z" />
<glyph unicode="&#x3e;" horiz-adv-x="972" d="M82 174l358 348l-358 348l256 256l614 -604l-614 -604z" />
<glyph unicode="?" horiz-adv-x="1402" d="M129 1085l61 349h1035l231 -256l-63 -359l-322 -256h-297l-12 -71h-410l54 307l118 92h369l72 61l14 72l-51 61h-799zM266 0l60 348h409l-59 -348h-410z" />
<glyph unicode="@" horiz-adv-x="2078" d="M33 72l162 921l407 328h1157l289 -328l-109 -624l-288 -236h-328l-86 92l-119 -92h-399l-156 164l84 471l213 164h656l-95 -533l45 -41h41l95 72l77 440l-161 185h-768l-228 -185l-119 -675l162 -185h942l-47 -266h-1136zM889 399l45 -41h123l57 41l55 308h-174l-59 -41z " />
<glyph unicode="A" horiz-adv-x="1781" d="M-102 0l850 1434h583l348 -1434h-475l-69 287h-594l-168 -287h-475zM745 635h308l-82 403z" />
<glyph unicode="B" horiz-adv-x="1699" d="M41 0l252 1434h1177l197 -215l-59 -338l-152 -113l170 -195l-63 -358l-273 -215h-1249zM551 348h532l62 51l14 82l-78 82h-491zM647 891h420l107 82l12 61l-43 51h-461z" />
<glyph unicode="C" horiz-adv-x="1515" d="M55 266l160 901l334 267h1044l-61 -349h-819l-72 -61l-109 -614l50 -62h819l-60 -348h-1044z" />
<glyph unicode="D" horiz-adv-x="1730" d="M41 0l252 1434h1188l239 -267l-159 -901l-332 -266h-1188zM551 348h512l74 62l108 614l-51 61h-512z" />
<glyph unicode="E" horiz-adv-x="1525" d="M41 0l252 1434h1311l-62 -349h-860l-37 -204h635l-57 -328h-635l-37 -205h881l-60 -348h-1331z" />
<glyph unicode="F" horiz-adv-x="1484" d="M41 0l252 1434h1311l-62 -349h-860l-43 -245h635l-62 -348h-634l-86 -492h-451z" />
<glyph unicode="G" horiz-adv-x="1720" d="M55 266l160 901l334 267h1085l-61 -349h-860l-72 -61l-109 -614l50 -62h512l73 62l29 163h-289l58 328h718l-112 -635l-332 -266h-942z" />
<glyph unicode="H" horiz-adv-x="1740" d="M41 0l252 1434h450l-96 -543h553l96 543h451l-252 -1434h-451l95 543h-553l-94 -543h-451z" />
<glyph unicode="I" horiz-adv-x="1228" d="M0 0l59 348h287l131 737h-287l62 349h1024l-62 -349h-286l-131 -737h286l-59 -348h-1024z" />
<glyph unicode="J" horiz-adv-x="1280" d="M-82 0l59 348h605l73 62l181 1024h450l-207 -1168l-331 -266h-830z" />
<glyph unicode="K" horiz-adv-x="1648" d="M41 0l252 1434h438l-96 -543h135l477 543h520l-624 -697l424 -737h-523l-305 543h-153l-94 -543h-451z" />
<glyph unicode="L" horiz-adv-x="1433" d="M41 0l252 1434h450l-192 -1086h799l-60 -348h-1249z" />
<glyph unicode="M" horiz-adv-x="2088" d="M41 0l252 1434h450l336 -656l566 656h450l-252 -1434h-450l125 717l-373 -430h-307l-222 430l-124 -717h-451z" />
<glyph unicode="N" horiz-adv-x="1792" d="M41 0l252 1434h440l479 -768l136 768h450l-252 -1434h-440l-479 768l-135 -768h-451z" />
<glyph unicode="O" horiz-adv-x="1751" d="M53 246l166 942l334 266h952l240 -266l-166 -942l-334 -266h-952zM528 389l52 -61h501l72 61l115 655l-49 62h-502l-74 -62z" />
<glyph unicode="P" horiz-adv-x="1669" d="M41 0l252 1434h1177l224 -246l-101 -563l-309 -246h-727l-65 -379h-451zM618 727h482l71 61l43 236l-51 61h-481z" />
<glyph unicode="Q" horiz-adv-x="1751" d="M53 246l166 942l334 266h952l240 -266l-166 -942l-252 -201l168 -270h-461l-125 205h-616zM528 389l52 -61h501l72 61l115 655l-49 62h-502l-74 -62z" />
<glyph unicode="R" horiz-adv-x="1689" d="M41 0l252 1434h1157l223 -246l-84 -471l-286 -236l264 -481h-502l-227 420h-273l-73 -420h-451zM627 768h460l72 61l35 195l-51 61h-461z" />
<glyph unicode="S" horiz-adv-x="1597" d="M0 0l59 348h922l61 51l21 113l-43 51h-676l-223 246l67 379l310 246h1095l-61 -349h-860l-60 -51l-14 -71l43 -52h676l223 -245l-74 -420l-309 -246h-1157z" />
<glyph unicode="T" horiz-adv-x="1433" d="M129 1085l61 349h1352l-61 -349h-451l-190 -1085h-451l191 1085h-451z" />
<glyph unicode="U" horiz-adv-x="1761" d="M84 246l209 1188h450l-184 -1045l51 -61h451l72 61l184 1045h450l-208 -1188l-334 -266h-901z" />
<glyph unicode="V" horiz-adv-x="1720" d="M150 1434h481l203 -1004l555 1004h481l-836 -1434h-553z" />
<glyph unicode="W" horiz-adv-x="2437" d="M170 1434h461l63 -977l398 977h553l53 -977l407 977h461l-651 -1434h-574l-71 881l-379 -881h-574z" />
<glyph unicode="X" horiz-adv-x="1638" d="M-123 0l690 727l-397 707h502l221 -430l373 430h501l-647 -707l436 -727h-501l-262 440l-414 -440h-502z" />
<glyph unicode="Y" horiz-adv-x="1597" d="M129 1434h481l236 -584l440 584h481l-772 -1014l-73 -420h-451l74 420z" />
<glyph unicode="Z" horiz-adv-x="1495" d="M-41 0l59 338l900 747h-738l62 349h1321l-60 -338l-911 -748h799l-60 -348h-1372z" />
<glyph unicode="[" horiz-adv-x="942" d="M-33 -410l348 1966h738l-62 -348h-286l-226 -1269h287l-61 -349h-738z" />
<glyph unicode="\" horiz-adv-x="1333" d="M150 1434h432l649 -1434h-432z" />
<glyph unicode="]" horiz-adv-x="942" d="M-113 -410l60 349h286l226 1269h-287l61 348h738l-348 -1966h-736z" />
<glyph unicode="^" horiz-adv-x="1003" d="M90 983l397 451h328l238 -451h-400l-57 133l-107 -133h-399z" />
<glyph unicode="_" horiz-adv-x="942" d="M-174 -410l55 308h940l-55 -308h-940z" />
<glyph unicode="`" horiz-adv-x="737" d="M233 1556h439l110 -368h-327z" />
<glyph unicode="a" horiz-adv-x="1320" d="M-8 195l43 245l287 226h491l10 61l-32 41h-553l47 276h757l207 -225l-143 -819h-328l-37 82l-96 -82h-471zM422 307l33 -41h235l60 41l16 92h-287l-49 -41z" />
<glyph unicode="b" horiz-adv-x="1361" d="M31 0l252 1434h409l-69 -390h471l215 -235l-101 -573l-297 -236h-880zM494 307h245l82 62l56 307l-62 61h-246z" />
<glyph unicode="c" horiz-adv-x="1146" d="M31 236l100 573l297 235h737l-53 -307h-512l-82 -61l-55 -307l61 -62h512l-53 -307h-737z" />
<glyph unicode="d" horiz-adv-x="1361" d="M31 236l100 573l297 235h471l70 390h409l-252 -1434h-327l-37 82l-96 -82h-420zM463 369l61 -62h195l57 41l70 389h-246l-82 -61z" />
<glyph unicode="e" horiz-adv-x="1280" d="M31 236l104 593l299 236h592l215 -236l-80 -450h-696l-6 -41l59 -62h543l-47 -276h-768zM512 645h307l15 82l-62 61h-164l-82 -61z" />
<glyph unicode="f" horiz-adv-x="942" d="M55 666l54 307h153l41 225l297 236h543l-56 -308h-317l-82 -61l-16 -92h276l-53 -307h-277l-116 -666h-410l117 666h-154z" />
<glyph unicode="g" horiz-adv-x="1351" d="M29 -410l55 308h543l82 61l10 61h-471l-213 236l96 553l297 235h881l-213 -1218l-299 -236h-768zM467 389l61 -61h246l72 409h-246l-82 -61z" />
<glyph unicode="h" horiz-adv-x="1372" d="M31 0l252 1434h409l-69 -390h481l199 -215l-146 -829h-409l118 676l-61 61h-236l-129 -737h-409z" />
<glyph unicode="i" horiz-adv-x="655" d="M20 0l183 1044h409l-182 -1044h-410zM229 1188l56 317h409l-55 -317h-410z" />
<glyph unicode="j" horiz-adv-x="706" d="M-317 -410l55 308h244l81 61l191 1085h410l-213 -1218l-299 -236h-469zM281 1188l55 317h409l-55 -317h-409z" />
<glyph unicode="k" horiz-adv-x="1361" d="M31 0l252 1434h409l-131 -738h92l308 348h471l-447 -501l295 -543h-471l-201 389h-100l-68 -389h-409z" />
<glyph unicode="l" horiz-adv-x="727" d="M92 0l197 1126h-144l56 308h553l-252 -1434h-410z" />
<glyph unicode="m" horiz-adv-x="2058" d="M20 0l183 1044h327l37 -81l97 81h317l113 -122h10l153 122h533l199 -215l-146 -829h-409l118 676l-61 61h-154l-82 -61l-118 -676h-410l119 676l-62 61h-153l-82 -61l-119 -676h-410z" />
<glyph unicode="n" horiz-adv-x="1372" d="M20 0l183 1044h327l37 -81l97 81h440l199 -215l-146 -829h-409l118 676l-61 61h-174l-82 -61l-119 -676h-410z" />
<glyph unicode="o" horiz-adv-x="1341" d="M27 215l108 614l297 236h645l215 -236l-108 -614l-297 -235h-645zM459 348l61 -61h195l82 61l61 348l-59 62h-195l-84 -62z" />
<glyph unicode="p" horiz-adv-x="1361" d="M-53 -410l256 1454h327l37 -81l97 81h430l215 -235l-101 -573l-297 -236h-481l-74 -410h-409zM483 307h256l82 62l56 307l-62 61h-205l-59 -41z" />
<glyph unicode="q" horiz-adv-x="1351" d="M31 236l100 573l297 235h881l-252 -1433h-410l70 389h-471zM463 369l61 -62h246l76 430h-246l-82 -61z" />
<glyph unicode="r" horiz-adv-x="1013" d="M20 0l183 1044h327l37 -81l97 81h409l-53 -307h-389l-82 -61l-119 -676h-410z" />
<glyph unicode="s" horiz-adv-x="1208" d="M-31 0l47 276h635l47 31l9 51l-35 31h-430l-181 195l48 266l247 194h809l-47 -276h-573l-47 -31l-9 -41l37 -30h430l181 -195l-50 -276l-247 -195h-871z" />
<glyph unicode="t" horiz-adv-x="972" d="M68 737l53 307h153l45 246h410l-45 -246h236l-54 -307h-235l-66 -368l62 -62h256l-54 -307h-481l-215 236l88 501h-153z" />
<glyph unicode="u" d="M57 215l146 829h409l-118 -675l61 -62h174l82 62l119 675h409l-182 -1044h-328l-36 82l-97 -82h-440z" />
<glyph unicode="v" horiz-adv-x="1290" d="M80 1044h430l108 -614l322 614h430l-612 -1044h-430z" />
<glyph unicode="w" horiz-adv-x="1863" d="M100 1044h451l6 -604l240 604h430l26 -604l220 604h450l-459 -1044h-501l-35 563l-232 -563h-501z" />
<glyph unicode="x" horiz-adv-x="1269" d="M-113 0l473 543l-249 501h460l105 -231l182 231h461l-426 -501l285 -543h-482l-116 279l-211 -279h-482z" />
<glyph unicode="y" d="M49 -410l55 308h553l82 61l11 61h-492l-197 216l142 808h409l-114 -655l61 -61h246l125 716h409l-213 -1218l-299 -236h-778z" />
<glyph unicode="z" horiz-adv-x="1157" d="M-51 0l47 276l573 461h-471l54 307h1013l-47 -276l-573 -461h512l-53 -307h-1055z" />
<glyph unicode="{" horiz-adv-x="983" d="M70 522l22 123l178 143l101 564l262 204h461l-56 -307h-174l-82 -61l-75 -430l-205 -174l143 -174l-80 -451l62 -61h174l-56 -308h-460l-189 205l103 584z" />
<glyph unicode="|" horiz-adv-x="778" d="M205 -410v1966h409v-1966h-409z" />
<glyph unicode="}" horiz-adv-x="983" d="M-113 -410l54 308h174l82 61l79 451l205 174l-143 174l76 430l-62 61h-174l55 307h461l189 -204l-101 -564l129 -143l-22 -123l-178 -143l-103 -584l-262 -205h-459z" />
<glyph unicode="~" horiz-adv-x="1423" d="M82 635l471 369l328 -226l256 205l245 -287l-471 -368l-327 225l-256 -205z" />
<glyph unicode="&#xa1;" horiz-adv-x="696" d="M12 -389l105 594l137 368h307l6 -368l-104 -594h-451zM225 696l60 348h409l-59 -348h-410z" />
<glyph unicode="&#xa2;" horiz-adv-x="1167" d="M31 236l100 573l297 235h256l31 164h307l-31 -164h195l-53 -307h-195l-76 -430h195l-53 -307h-195l-33 -184h-307l33 184h-256zM422 369l61 -62h72l76 430h-72l-82 -61z" />
<glyph unicode="&#xa3;" horiz-adv-x="1443" d="M-61 0l59 348h123l180 144l14 81h-194l51 297h195l53 297l334 267h635l-62 -349h-409l-72 -61l-29 -154h461l-51 -297h-461l-29 -163l-73 -62h686l-60 -348h-1351z" />
<glyph unicode="&#xa4;" horiz-adv-x="1792" d="M10 184l45 246h185l16 102h-184l45 246h184l115 656h1177l224 -246l-72 -410l-311 -246h-727l-17 -102h727l-45 -246h-727l-31 -184h-450l31 184h-185zM752 778h481l72 62l32 184l-51 61h-481z" />
<glyph unicode="&#xa5;" horiz-adv-x="1638" d="M70 195l43 235h448l-47 113h-379l43 235h240l-268 656h481l235 -584l441 584h481l-500 -656h242l-43 -235h-379l-84 -113h444l-43 -235h-450l-33 -195h-450l32 195h-454z" />
<glyph unicode="&#xa6;" horiz-adv-x="737" d="M184 -410v820h410v-820h-410zM184 737v819h410v-819h-410z" />
<glyph unicode="&#xa7;" horiz-adv-x="1443" d="M-43 -410l57 328h697l61 51l6 41l-39 51h-452l-224 246l68 389l150 117l-107 119l45 256l309 246h871l-58 -328h-655l-61 -51l-4 -31l38 -51h474l223 -246l-68 -389l-151 -119l108 -117l-47 -266l-309 -246h-932zM539 451l51 -62h194l72 62l25 133l-52 61h-194l-72 -61z " />
<glyph unicode="&#xa8;" horiz-adv-x="1003" d="M172 1208l57 328h369l-57 -328h-369zM684 1208l57 328h369l-57 -328h-369z" />
<glyph unicode="&#xa9;" horiz-adv-x="2078" d="M133 246v921l348 328h1157l349 -328v-921l-349 -328h-1157zM481 369l195 -185h768l194 185v675l-194 185h-768l-195 -185v-675zM666 471v471l184 164h563v-205h-369l-71 -61v-267l71 -61h369v-205h-563z" />
<glyph unicode="&#xaa;" horiz-adv-x="952" d="M102 819l37 205l189 143h358l6 31l-26 31h-410l37 205h573l146 -160l-105 -598h-252l-10 82l-106 -82h-297zM424 901l27 -20h133l61 51l6 41h-184l-35 -31z" />
<glyph unicode="&#xab;" horiz-adv-x="1402" d="M29 512l589 563l199 -205l-368 -358l243 -358l-272 -205zM602 512l590 563l199 -205l-369 -358l244 -358l-273 -205z" />
<glyph unicode="&#xac;" horiz-adv-x="1269" d="M102 543v348h1086v-594h-379v246h-707z" />
<glyph unicode="&#xad;" horiz-adv-x="1146" d="M74 420l61 348h942l-61 -348h-942z" />
<glyph unicode="&#xae;" horiz-adv-x="2078" d="M133 246v921l348 328h1157l349 -328v-921l-349 -328h-1157zM481 369l195 -185h768l194 185v675l-194 185h-768l-195 -185v-675zM655 307v799h656l184 -164v-225l-143 -123l184 -287h-328l-143 225h-102v-225h-308zM963 737h174l51 51v62l-51 51h-174v-164z" />
<glyph unicode="&#xaf;" horiz-adv-x="880" d="M215 1229l51 287h676l-51 -287h-676z" />
<glyph unicode="&#xb0;" horiz-adv-x="921" d="M139 911l66 369l225 174h369l164 -174l-66 -369l-225 -174h-369zM463 1004l35 -31h61l47 31l33 184l-37 31h-61l-45 -31z" />
<glyph unicode="&#xb1;" horiz-adv-x="1269" d="M102 748v348h379v317h348v-317h379v-348h-379v-297h-348v297h-379zM123 0v348h1065v-348h-1065z" />
<glyph unicode="&#xb2;" horiz-adv-x="870" d="M150 963l51 286l166 133h286l25 21l4 20l-18 21h-410l35 194h573l103 -112l-33 -195l-154 -123h-289l-34 -30l-4 -21h430l-35 -194h-696z" />
<glyph unicode="&#xb3;" horiz-adv-x="849" d="M150 963l34 194h410l24 21v10l-16 20h-246l31 174h215l37 31l2 10l-18 21h-379l35 194h542l103 -112l-27 -154l-82 -61l78 -82l-27 -154l-143 -112h-573z" />
<glyph unicode="&#xb4;" horiz-adv-x="737" d="M168 1188l242 368h438l-352 -368h-328z" />
<glyph unicode="&#xb5;" horiz-adv-x="1423" d="M-53 -410l254 1434h409l-121 -676l46 -41h256l57 41l121 676h409l-180 -1024h-328l-36 82l-97 -82h-235l-60 72l-86 -482h-409z" />
<glyph unicode="&#xb6;" horiz-adv-x="1617" d="M119 676l90 512l309 246h543l-326 -1844h-327l149 840h-215zM930 -410l325 1844h328l-326 -1844h-327z" />
<glyph unicode="&#xb7;" horiz-adv-x="675" d="M102 410l62 348h409l-61 -348h-410z" />
<glyph unicode="&#xb8;" horiz-adv-x="614" d="M-129 -502l31 185h194l47 30l4 21l-36 30h-174l43 236h215l-13 -61h92l140 -144l-27 -153l-190 -144h-326z" />
<glyph unicode="&#xb9;" horiz-adv-x="675" d="M150 963l34 194h133l50 287h-134l35 194h400l-84 -481h133l-35 -194h-532z" />
<glyph unicode="&#xba;" horiz-adv-x="931" d="M106 840l76 430l213 164h441l155 -164l-76 -430l-213 -164h-440zM430 932l25 -31h133l37 31l43 246l-25 30h-133l-37 -30z" />
<glyph unicode="&#xbb;" horiz-adv-x="1402" d="M-14 154l370 358l-245 358l272 205l393 -563l-592 -563zM559 154l371 358l-246 358l272 205l394 -563l-592 -563z" />
<glyph unicode="&#xbc;" horiz-adv-x="1771" d="M113 758l34 194h134l49 287h-133l34 195h400l-84 -482h133l-35 -194h-532zM123 0l1153 1434h307l-1153 -1434h-307zM858 102l31 174l420 400h346l-66 -379h92l-34 -195h-93l-18 -102h-266l18 102h-430zM1159 297h164l33 184z" />
<glyph unicode="&#xbd;" horiz-adv-x="1832" d="M113 758l34 194h134l49 287h-133l34 195h400l-84 -482h133l-35 -194h-532zM123 0l1153 1434h307l-1153 -1434h-307zM942 0l51 287l166 133h287l24 20l5 21l-19 20h-409l34 195h574l102 -113l-33 -194l-153 -123h-289l-35 -31l-4 -20h430l-35 -195h-696z" />
<glyph unicode="&#xbe;" horiz-adv-x="1945" d="M113 758l34 194h410l25 21v10l-17 21h-246l31 174h215l37 30l2 11l-18 20h-379l35 195h542l103 -113l-27 -154l-82 -61l78 -82l-27 -154l-143 -112h-573zM297 0l1153 1434h307l-1153 -1434h-307zM1032 102l31 174l420 400h346l-66 -379h92l-34 -195h-92l-19 -102h-266 l18 102h-430zM1333 297h164l33 184z" />
<glyph unicode="&#xbf;" horiz-adv-x="1402" d="M6 -133l64 358l321 256h297l12 72h410l-53 -307l-119 -92h-369l-71 -62l-15 -72l52 -61h798l-61 -348h-1034zM727 696l59 348h410l-59 -348h-410z" />
<glyph unicode="&#xc0;" horiz-adv-x="1781" d="M-102 0l850 1434h583l348 -1434h-475l-69 287h-594l-168 -287h-475zM684 1966h438l111 -369h-328zM745 635h308l-82 403z" />
<glyph unicode="&#xc1;" horiz-adv-x="1781" d="M-102 0l850 1434h583l348 -1434h-475l-69 287h-594l-168 -287h-475zM745 635h308l-82 403zM905 1597l242 369h438l-352 -369h-328z" />
<glyph unicode="&#xc2;" horiz-adv-x="1781" d="M-102 0l850 1434h583l348 -1434h-475l-69 287h-594l-168 -287h-475zM639 1597l332 369h327l201 -369h-348l-57 144l-107 -144h-348zM745 635h308l-82 403z" />
<glyph unicode="&#xc3;" horiz-adv-x="1781" d="M-102 0l850 1434h583l348 -1434h-475l-69 287h-594l-168 -287h-475zM664 1802l354 205l233 -123l195 113l102 -236l-354 -205l-233 123l-195 -112zM745 635h308l-82 403z" />
<glyph unicode="&#xc4;" horiz-adv-x="1781" d="M-102 0l850 1434h583l348 -1434h-475l-69 287h-594l-168 -287h-475zM633 1618l57 328h369l-58 -328h-368zM745 635h308l-82 403zM1145 1618l57 328h369l-58 -328h-368z" />
<glyph unicode="&#xc5;" horiz-adv-x="1781" d="M-102 0l850 1434h583l348 -1434h-475l-69 287h-594l-168 -287h-475zM745 635h308l-82 403zM754 1679l47 267l188 143h328l139 -143l-47 -267l-188 -143h-328zM1006 1772l34 -41h103l47 41l14 83l-33 39h-102l-49 -41z" />
<glyph unicode="&#xc6;" horiz-adv-x="2416" d="M-102 0l753 1434h1843l-61 -349h-799l-37 -204h574l-57 -328h-574l-37 -205h819l-59 -348h-1270l49 287h-532l-141 -287h-471zM684 635h420l80 450h-266z" />
<glyph unicode="&#xc7;" horiz-adv-x="1515" d="M55 266l160 901l334 267h1044l-61 -349h-819l-72 -61l-109 -614l50 -62h819l-60 -348h-1044zM541 -502l30 185h195l47 30l4 21l-37 30h-174l43 236h215l-12 -61h92l139 -144l-26 -153l-191 -144h-325z" />
<glyph unicode="&#xc8;" horiz-adv-x="1525" d="M41 0l252 1434h1311l-62 -349h-860l-37 -204h635l-57 -328h-635l-37 -205h881l-60 -348h-1331zM592 1966h438l111 -369h-328z" />
<glyph unicode="&#xc9;" horiz-adv-x="1525" d="M41 0l252 1434h1311l-62 -349h-860l-37 -204h635l-57 -328h-635l-37 -205h881l-60 -348h-1331zM813 1597l242 369h438l-352 -369h-328z" />
<glyph unicode="&#xca;" horiz-adv-x="1525" d="M41 0l252 1434h1311l-62 -349h-860l-37 -204h635l-57 -328h-635l-37 -205h881l-60 -348h-1331zM547 1597l332 369h327l201 -369h-348l-58 144l-106 -144h-348z" />
<glyph unicode="&#xcb;" horiz-adv-x="1525" d="M41 0l252 1434h1311l-62 -349h-860l-37 -204h635l-57 -328h-635l-37 -205h881l-60 -348h-1331zM541 1618l57 328h369l-58 -328h-368zM1053 1618l57 328h369l-58 -328h-368z" />
<glyph unicode="&#xcc;" horiz-adv-x="1228" d="M0 0l59 348h287l131 737h-287l62 349h1024l-62 -349h-286l-131 -737h286l-59 -348h-1024zM408 1966h438l110 -369h-327z" />
<glyph unicode="&#xcd;" horiz-adv-x="1228" d="M0 0l59 348h287l131 737h-287l62 349h1024l-62 -349h-286l-131 -737h286l-59 -348h-1024zM629 1597l241 369h439l-353 -369h-327z" />
<glyph unicode="&#xce;" horiz-adv-x="1228" d="M0 0l59 348h287l131 737h-287l62 349h1024l-62 -349h-286l-131 -737h286l-59 -348h-1024zM362 1597l332 369h328l201 -369h-349l-57 144l-106 -144h-349z" />
<glyph unicode="&#xcf;" horiz-adv-x="1228" d="M0 0l59 348h287l131 737h-287l62 349h1024l-62 -349h-286l-131 -737h286l-59 -348h-1024zM356 1618l58 328h368l-57 -328h-369zM868 1618l58 328h368l-57 -328h-369z" />
<glyph unicode="&#xd0;" horiz-adv-x="1802" d="M33 543l61 348h174l97 543h1187l240 -267l-160 -901l-332 -266h-1187l94 543h-174zM623 348h512l73 62l109 614l-51 61h-512l-35 -194h297l-62 -348h-297z" />
<glyph unicode="&#xd1;" horiz-adv-x="1792" d="M41 0l252 1434h440l479 -768l136 768h450l-252 -1434h-440l-479 768l-135 -768h-451zM664 1802l354 205l233 -123l195 113l102 -236l-354 -205l-233 123l-195 -112z" />
<glyph unicode="&#xd2;" horiz-adv-x="1751" d="M53 246l166 942l334 266h952l240 -266l-166 -942l-334 -266h-952zM528 389l52 -61h501l72 61l115 655l-49 62h-502l-74 -62zM664 1966h438l110 -369h-327z" />
<glyph unicode="&#xd3;" horiz-adv-x="1751" d="M53 246l166 942l334 266h952l240 -266l-166 -942l-334 -266h-952zM528 389l52 -61h501l72 61l115 655l-49 62h-502l-74 -62zM885 1597l241 369h439l-353 -369h-327z" />
<glyph unicode="&#xd4;" horiz-adv-x="1751" d="M53 246l166 942l334 266h952l240 -266l-166 -942l-334 -266h-952zM528 389l52 -61h501l72 61l115 655l-49 62h-502l-74 -62zM618 1597l332 369h328l201 -369h-349l-57 144l-106 -144h-349z" />
<glyph unicode="&#xd5;" horiz-adv-x="1751" d="M53 246l166 942l334 266h952l240 -266l-166 -942l-334 -266h-952zM528 389l52 -61h501l72 61l115 655l-49 62h-502l-74 -62zM643 1802l354 205l234 -123l194 113l103 -236l-354 -205l-234 123l-195 -112z" />
<glyph unicode="&#xd6;" horiz-adv-x="1751" d="M53 246l166 942l334 266h952l240 -266l-166 -942l-334 -266h-952zM528 389l52 -61h501l72 61l115 655l-49 62h-502l-74 -62zM612 1618l58 328h368l-57 -328h-369zM1124 1618l58 328h368l-57 -328h-369z" />
<glyph unicode="&#xd7;" horiz-adv-x="1187" d="M102 451l267 266l-267 266l246 246l266 -266l267 266l245 -246l-266 -266l266 -266l-245 -246l-267 266l-266 -266z" />
<glyph unicode="&#xd8;" horiz-adv-x="1751" d="M-104 -20l225 194l-68 72l166 942l334 266h952l41 -51l62 51h307l-229 -194l59 -72l-166 -942l-334 -266h-952l-45 40l-47 -40h-305zM557 553l641 553h-481l-74 -62zM600 328h481l72 61l84 481z" />
<glyph unicode="&#xd9;" horiz-adv-x="1761" d="M84 246l209 1188h450l-184 -1045l51 -61h451l72 61l184 1045h450l-208 -1188l-334 -266h-901zM674 1966h438l111 -369h-328z" />
<glyph unicode="&#xda;" horiz-adv-x="1761" d="M84 246l209 1188h450l-184 -1045l51 -61h451l72 61l184 1045h450l-208 -1188l-334 -266h-901zM895 1597l242 369h438l-352 -369h-328z" />
<glyph unicode="&#xdb;" horiz-adv-x="1761" d="M84 246l209 1188h450l-184 -1045l51 -61h451l72 61l184 1045h450l-208 -1188l-334 -266h-901zM629 1597l332 369h327l201 -369h-348l-58 144l-106 -144h-348z" />
<glyph unicode="&#xdc;" horiz-adv-x="1761" d="M84 246l209 1188h450l-184 -1045l51 -61h451l72 61l184 1045h450l-208 -1188l-334 -266h-901zM623 1618l57 328h369l-58 -328h-368zM1135 1618l57 328h369l-58 -328h-368z" />
<glyph unicode="&#xdd;" horiz-adv-x="1638" d="M150 1434h481l235 -584l441 584h481l-772 -1014l-74 -420h-450l73 420zM834 1597l241 369h438l-352 -369h-327z" />
<glyph unicode="&#xde;" horiz-adv-x="1679" d="M41 0l252 1434h450l-32 -185h727l223 -245l-100 -564l-310 -245h-727l-32 -195h-451zM586 543h481l74 61l41 236l-52 61h-481z" />
<glyph unicode="&#xdf;" horiz-adv-x="1402" d="M31 0l213 1219l299 235h614l213 -235l-47 -277l-147 -115l157 -172l-73 -419l-297 -236h-420l53 307h195l81 62l37 204l-61 62h-195l56 307h133l82 62l14 81l-61 62h-164l-82 -62l-191 -1085h-409z" />
<glyph unicode="&#xe0;" horiz-adv-x="1320" d="M-8 195l43 245l287 226h491l10 61l-32 41h-553l47 276h757l207 -225l-143 -819h-328l-37 82l-96 -82h-471zM356 1556h439l110 -368h-327zM422 307l33 -41h235l60 41l16 92h-287l-49 -41z" />
<glyph unicode="&#xe1;" horiz-adv-x="1320" d="M-8 195l43 245l287 226h491l10 61l-32 41h-553l47 276h757l207 -225l-143 -819h-328l-37 82l-96 -82h-471zM422 307l33 -41h235l60 41l16 92h-287l-49 -41zM547 1188l241 368h439l-353 -368h-327z" />
<glyph unicode="&#xe2;" horiz-adv-x="1320" d="M-8 195l43 245l287 226h491l10 61l-32 41h-553l47 276h757l207 -225l-143 -819h-328l-37 82l-96 -82h-471zM311 1188l332 368h328l200 -368h-348l-57 143l-107 -143h-348zM422 307l33 -41h235l60 41l16 92h-287l-49 -41z" />
<glyph unicode="&#xe3;" horiz-adv-x="1320" d="M-8 195l43 245l287 226h491l10 61l-32 41h-553l47 276h757l207 -225l-143 -819h-328l-37 82l-96 -82h-471zM356 1393l355 204l233 -122l195 112l102 -235l-354 -205l-234 123l-194 -113zM422 307l33 -41h235l60 41l16 92h-287l-49 -41z" />
<glyph unicode="&#xe4;" horiz-adv-x="1320" d="M-8 195l43 245l287 226h491l10 61l-32 41h-553l47 276h757l207 -225l-143 -819h-328l-37 82l-96 -82h-471zM326 1208l57 328h369l-58 -328h-368zM422 307l33 -41h235l60 41l16 92h-287l-49 -41zM838 1208l57 328h369l-58 -328h-368z" />
<glyph unicode="&#xe5;" horiz-adv-x="1320" d="M-8 195l43 245l287 226h491l10 61l-32 41h-553l47 276h757l207 -225l-143 -819h-328l-37 82l-96 -82h-471zM422 307l33 -41h235l60 41l16 92h-287l-49 -41zM438 1331l47 266l189 144h327l140 -144l-47 -266l-189 -143h-327zM690 1423l35 -41h102l47 41l15 84l-33 39h-102 l-49 -41z" />
<glyph unicode="&#xe6;" horiz-adv-x="1976" d="M-8 195l43 245l287 226h491l10 61l-32 41h-553l47 276h757l52 -61l106 82h522l215 -236l-79 -450h-687l-6 -41l60 -62h532l-47 -276h-696l-78 82l-107 -82h-655zM422 307l33 -41h215l84 62l12 71h-287l-49 -41zM1219 645h297l14 82l-62 61h-153l-82 -61z" />
<glyph unicode="&#xe7;" horiz-adv-x="1146" d="M31 236l100 573l297 235h737l-53 -307h-512l-82 -61l-55 -307l61 -62h512l-53 -307h-737zM332 -502l30 185h195l47 30l4 21l-37 30h-174l43 236h215l-12 -61h92l139 -144l-26 -153l-191 -144h-325z" />
<glyph unicode="&#xe8;" horiz-adv-x="1280" d="M31 236l104 593l299 236h592l215 -236l-80 -450h-696l-6 -41l59 -62h543l-47 -276h-768zM356 1556h439l110 -368h-327zM512 645h307l15 82l-62 61h-164l-82 -61z" />
<glyph unicode="&#xe9;" horiz-adv-x="1280" d="M31 236l104 593l299 236h592l215 -236l-80 -450h-696l-6 -41l59 -62h543l-47 -276h-768zM512 645h307l15 82l-62 61h-164l-82 -61zM578 1188l241 368h438l-352 -368h-327z" />
<glyph unicode="&#xea;" horiz-adv-x="1280" d="M31 236l104 593l299 236h592l215 -236l-80 -450h-696l-6 -41l59 -62h543l-47 -276h-768zM311 1188l332 368h328l200 -368h-348l-57 143l-107 -143h-348zM512 645h307l15 82l-62 61h-164l-82 -61z" />
<glyph unicode="&#xeb;" horiz-adv-x="1280" d="M31 236l104 593l299 236h592l215 -236l-80 -450h-696l-6 -41l59 -62h543l-47 -276h-768zM305 1208l57 328h369l-57 -328h-369zM512 645h307l15 82l-62 61h-164l-82 -61zM817 1208l57 328h369l-57 -328h-369z" />
<glyph unicode="&#xec;" horiz-adv-x="655" d="M20 0l183 1044h409l-182 -1044h-410zM49 1556h438l111 -368h-328z" />
<glyph unicode="&#xed;" horiz-adv-x="655" d="M20 0l183 1044h409l-182 -1044h-410zM270 1188l242 368h438l-352 -368h-328z" />
<glyph unicode="&#xee;" horiz-adv-x="655" d="M4 1188l332 368h328l200 -368h-348l-57 143l-107 -143h-348zM20 0l183 1044h409l-182 -1044h-410z" />
<glyph unicode="&#xef;" horiz-adv-x="737" d="M39 1208l57 328h369l-57 -328h-369zM61 0l183 1044h409l-182 -1044h-410zM551 1208l57 328h369l-57 -328h-369z" />
<glyph unicode="&#xf0;" horiz-adv-x="1320" d="M6 215l76 430l297 236h379l-60 123h-348l51 286h164l-78 144h400l67 -144h308l-52 -286h-123l160 -318l-84 -471l-297 -235h-645zM438 348l62 -61h194l82 61l41 225h-266l-82 -61z" />
<glyph unicode="&#xf1;" horiz-adv-x="1372" d="M20 0l183 1044h327l37 -81l97 81h440l199 -215l-146 -829h-409l118 676l-61 61h-174l-82 -61l-119 -676h-410zM387 1393l354 204l234 -122l194 112l103 -235l-354 -205l-234 123l-195 -113z" />
<glyph unicode="&#xf2;" horiz-adv-x="1341" d="M27 215l108 614l297 236h645l215 -236l-108 -614l-297 -235h-645zM397 1556h439l110 -368h-328zM459 348l61 -61h195l82 61l61 348l-59 62h-195l-84 -62z" />
<glyph unicode="&#xf3;" horiz-adv-x="1341" d="M27 215l108 614l297 236h645l215 -236l-108 -614l-297 -235h-645zM459 348l61 -61h195l82 61l61 348l-59 62h-195l-84 -62zM618 1188l242 368h438l-352 -368h-328z" />
<glyph unicode="&#xf4;" horiz-adv-x="1341" d="M27 215l108 614l297 236h645l215 -236l-108 -614l-297 -235h-645zM352 1188l332 368h328l200 -368h-348l-57 143l-107 -143h-348zM459 348l61 -61h195l82 61l61 348l-59 62h-195l-84 -62z" />
<glyph unicode="&#xf5;" horiz-adv-x="1341" d="M27 215l108 614l297 236h645l215 -236l-108 -614l-297 -235h-645zM377 1393l354 204l234 -122l194 112l103 -235l-355 -205l-233 123l-195 -113zM459 348l61 -61h195l82 61l61 348l-59 62h-195l-84 -62z" />
<glyph unicode="&#xf6;" horiz-adv-x="1341" d="M27 215l108 614l297 236h645l215 -236l-108 -614l-297 -235h-645zM346 1208l57 328h369l-57 -328h-369zM459 348l61 -61h195l82 61l61 348l-59 62h-195l-84 -62zM858 1208l57 328h369l-57 -328h-369z" />
<glyph unicode="&#xf7;" horiz-adv-x="1269" d="M102 563v307h1106v-307h-1106zM461 123v307h389v-307h-389zM461 1004v307h389v-307h-389z" />
<glyph unicode="&#xf8;" horiz-adv-x="1341" d="M-145 -20l225 184l-53 51l108 614l297 236h645l45 -41l47 41h297l-227 -184l53 -52l-108 -614l-297 -235h-645l-45 40l-47 -40h-295zM487 502l312 256h-195l-84 -62zM520 287h195l82 61l34 195z" />
<glyph unicode="&#xf9;" d="M57 215l146 829h409l-118 -675l61 -62h174l82 62l119 675h409l-182 -1044h-328l-36 82l-97 -82h-440zM408 1556h438l110 -368h-327z" />
<glyph unicode="&#xfa;" d="M57 215l146 829h409l-118 -675l61 -62h174l82 62l119 675h409l-182 -1044h-328l-36 82l-97 -82h-440zM629 1188l241 368h439l-353 -368h-327z" />
<glyph unicode="&#xfb;" d="M57 215l146 829h409l-118 -675l61 -62h174l82 62l119 675h409l-182 -1044h-328l-36 82l-97 -82h-440zM362 1188l332 368h328l201 -368h-349l-57 143l-106 -143h-349z" />
<glyph unicode="&#xfc;" d="M57 215l146 829h409l-118 -675l61 -62h174l82 62l119 675h409l-182 -1044h-328l-36 82l-97 -82h-440zM356 1208l58 328h368l-57 -328h-369zM868 1208l58 328h368l-57 -328h-369z" />
<glyph unicode="&#xfd;" d="M49 -410l55 308h553l82 61l11 61h-492l-197 216l142 808h409l-114 -655l61 -61h246l125 716h409l-213 -1218l-299 -236h-778zM629 1188l241 368h439l-353 -368h-327z" />
<glyph unicode="&#xfe;" horiz-adv-x="1372" d="M-43 -410l326 1844h409l-69 -390h481l215 -235l-100 -573l-297 -236h-482l-73 -410h-410zM494 307h256l81 62l56 307l-62 61h-256z" />
<glyph unicode="&#xff;" d="M49 -410l55 308h553l82 61l11 61h-492l-197 216l142 808h409l-114 -655l61 -61h246l125 716h409l-213 -1218l-299 -236h-778zM356 1208l58 328h368l-57 -328h-369zM868 1208l58 328h368l-57 -328h-369z" />
<glyph unicode="&#x152;" horiz-adv-x="2375" d="M55 266l160 901l334 267h1905l-62 -349h-758l-37 -204h533l-57 -328h-533l-37 -205h778l-59 -348h-1925zM532 410l50 -62h471l131 737h-471l-72 -61z" />
<glyph unicode="&#x153;" horiz-adv-x="1976" d="M27 215l108 614l297 236h563l78 -82l109 82h540l215 -236l-79 -450h-687l-6 -41l60 -62h532l-47 -276h-717l-69 72l-119 -92h-563zM459 348l61 -61h154l82 61l61 348l-59 62h-154l-84 -62zM1219 645h297l14 82l-62 61h-153l-82 -61z" />
<glyph unicode="&#x178;" horiz-adv-x="1638" d="M150 1434h481l235 -584l441 584h481l-772 -1014l-74 -420h-450l73 420zM561 1618l57 328h369l-57 -328h-369zM1073 1618l57 328h369l-57 -328h-369z" />
<glyph unicode="&#x2c6;" horiz-adv-x="983" d="M168 1188l332 368h327l201 -368h-348l-57 143l-107 -143h-348z" />
<glyph unicode="&#x2dc;" horiz-adv-x="1054" d="M223 1393l355 204l233 -122l195 112l102 -235l-354 -205l-234 123l-194 -113z" />
<glyph unicode="&#x2000;" horiz-adv-x="1044" />
<glyph unicode="&#x2001;" horiz-adv-x="2089" />
<glyph unicode="&#x2002;" horiz-adv-x="1044" />
<glyph unicode="&#x2003;" horiz-adv-x="2089" />
<glyph unicode="&#x2004;" horiz-adv-x="696" />
<glyph unicode="&#x2005;" horiz-adv-x="522" />
<glyph unicode="&#x2006;" horiz-adv-x="348" />
<glyph unicode="&#x2007;" horiz-adv-x="348" />
<glyph unicode="&#x2008;" horiz-adv-x="261" />
<glyph unicode="&#x2009;" horiz-adv-x="417" />
<glyph unicode="&#x200a;" horiz-adv-x="116" />
<glyph unicode="&#x2010;" horiz-adv-x="1105" d="M53 420l62 348h942l-62 -348h-942z" />
<glyph unicode="&#x2011;" horiz-adv-x="1105" d="M53 420l62 348h942l-62 -348h-942z" />
<glyph unicode="&#x2012;" horiz-adv-x="1105" d="M53 420l62 348h942l-62 -348h-942z" />
<glyph unicode="&#x2013;" horiz-adv-x="1310" d="M35 430l57 328h1188l-57 -328h-1188z" />
<glyph unicode="&#x2014;" horiz-adv-x="1740" d="M35 430l57 328h1618l-57 -328h-1618z" />
<glyph unicode="&#x2018;" horiz-adv-x="614" d="M137 788l62 349l288 297l131 -123l-153 -174h143l-61 -349h-410z" />
<glyph unicode="&#x2019;" horiz-adv-x="614" d="M180 911l154 174h-144l62 349h410l-62 -349l-289 -297z" />
<glyph unicode="&#x201a;" horiz-adv-x="614" d="M-10 -174l153 174h-143l59 348h410l-59 -348l-289 -297z" />
<glyph unicode="&#x201c;" horiz-adv-x="1167" d="M137 788l62 349l288 297l131 -123l-153 -174h143l-61 -349h-410zM690 788l62 349l288 297l131 -123l-153 -174h143l-61 -349h-410z" />
<glyph unicode="&#x201d;" horiz-adv-x="1167" d="M180 911l154 174h-144l62 349h410l-62 -349l-289 -297zM733 911l154 174h-144l62 349h409l-61 -349l-289 -297z" />
<glyph unicode="&#x201e;" horiz-adv-x="1167" d="M-10 -174l153 174h-143l59 348h410l-59 -348l-289 -297zM543 -174l153 174h-143l59 348h410l-59 -348l-289 -297z" />
<glyph unicode="&#x2022;" horiz-adv-x="942" d="M209 369l80 450h450l-80 -450h-450z" />
<glyph unicode="&#x2026;" horiz-adv-x="1884" d="M0 0l59 348h410l-59 -348h-410zM635 0l59 348h410l-60 -348h-409zM1270 0l59 348h410l-60 -348h-409z" />
<glyph unicode="&#x202f;" horiz-adv-x="417" />
<glyph unicode="&#x2039;" horiz-adv-x="952" d="M29 522l721 604l194 -235l-444 -369l315 -368l-278 -236z" />
<glyph unicode="&#x203a;" horiz-adv-x="952" d="M-14 154l442 368l-313 369l276 235l508 -604l-721 -604z" />
<glyph unicode="&#x205f;" horiz-adv-x="522" />
<glyph unicode="&#x20ac;" horiz-adv-x="1617" d="M35 440l43 236h184l14 82h-184l41 235h184l31 174l334 267h1024l-57 -328h-799l-74 -62l-8 -51h563l-41 -235h-563l-14 -82h563l-43 -236h-563l-8 -51l51 -61h798l-57 -328h-1024l-242 266l31 174h-184z" />
<glyph unicode="&#x2122;" horiz-adv-x="2109" d="M143 1188v246h809v-246h-256v-553h-307v553h-246zM1065 635v799h307l215 -359l215 359h307v-799h-307v348l-123 -205h-184l-123 205v-348h-307z" />
<glyph unicode="&#x25fc;" horiz-adv-x="1044" d="M0 0v1044h1044v-1044h-1044z" />
</font>
</defs>
</svg>
